<svg xmlns="http://www.w3.org/2000/svg" viewBox="0 0 256 256">
  <path fill="#000" fill-rule="evenodd" d="M114.286 70c-4.5 4-5.9 6.8-7.5 14.4-.7 3.3-3 9.8-5.2 14.5-8.4 18.1-10.2 36.5-3.8 38.5 1 .3 4.1-.4 7-1.5 4.8-1.9 5.4-1.9 7.6-.5 3.3 2.2 3 3.9-1.7 9-4.3 4.6-11 8.5-14.8 8.5-2.6 0-7.6 2.4-11.4 5.6-4.9 4.1-8.2 4-22.3-.6-13.6-4.5-24.3-5.9-31.8-4.3-5.9 1.3-6.6 3.2-2.8 8.4 4.4 5.9 4.4 11.7.1 18.3-2.8 4.1-3 4.9-1.7 6.2 1.8 1.9 18.4 3.4 24.5 2.3 7.8-1.5 28.3-11.6 35.9-17.6 6.9-5.5 23.2-14.3 26.5-14.3 1 0 2.4.6 3.1 1.3 5.2 5.2 8.1 5.4 14.8 1.1 1.9-1.2 7.1-3.2 11.5-4.4 4.4-1.2 10-3.3 12.4-4.7 2.6-1.5 6.9-2.8 10.8-3.3 7.4-.9 9.7-2.6 12.4-8.7 2.7-6.4 12.8-20.2 15.8-21.7 1.4-.8 4-1.7 5.7-2 1.7-.4 4.1-1.7 5.2-2.9 2.5-2.7 5.2-8.8 5.2-11.9 0-6 7.7-13 13.9-12.6 4 .3 7.1-2.9 7.1-7.2 0-4.3-2.1-5.6-9.9-6.4-10.1-.9-30 4.3-43.5 11.3-5.3 2.8-10.8 5.1-12.2 5.1-3.9 0-7.9-2.2-18.9-10.6-17.2-13.1-25.1-15.3-32-9.3z"/>
</svg>
