<svg xmlns="http://www.w3.org/2000/svg" viewBox="0 0 256 256">
  <path fill="#000" fill-rule="evenodd" d="M44.2 87.7h.6c1 0 1.2-.3 2-.8l.8-.4 1-.4 1-1.2 1.2-1.3.6-.3c.2 0 .6-.8.7-.8l1.7-1v-.3c1.6-2 3.2-4 4.7-6.3.2 0 .6-1 .8-1.2 0 0 .4-.7.4-1l.5-.5c.5-1 1-2 1-3l.3-.4.3-.5 1.2-2.4.2-.4c0-.3.6-2 .6-2.5.4-1.7 1-3.5 1.2-5.5V57c0-1 .6-2 .8-2.8V52l.2-.7.7-6c0-.7.5-1.2.3-2 .2-.3 1-.8 1.2-.8l2.7-.5h1c1-.2 1.8-.5 2.5-.8l1.3-.3.4.4V43l.2.5V45c0 1.4.3 2.4.3 3.8v3.5H76l-1.8.6h-.6l-1.4.5c-1.4 0-4.4.6-4.4.6l-.8.2c0 .2 2.8 2 3.4 2l3.2-.5.4-.2 1.3-.3h1c1 0 2-.6 2.8-.8h1c1-.4 2.2-1 3.3-1 .6 0 1 .8 1 1.2 0 .6 0 1.4-.4 2H84c-.3 1-.3 1.7-.7 2.5l-1 1.4-.3 1v.4l-.4.4-.6 1.5c0 .2-.8 1-1 1.3-1 1.5-1 2.4-2 3.8-.4.3-.5.6-1 .6-.3 0-.5-.3-.8-.6-.3 0-1-1-1.2-1.2 0-.3-1.8-2.2-2-2.4-.3-.5-1-.8-1.5-1.3l-.6-1-1.2-1h-.3c-.4 0-.6.2-1 .4l-1 .3-.3.4c-.2.6-1.2.6-1.2 1.2 0 .3.2.3.5.5l1.4.5c.8.4 1.5 1 2 2h.3c.6.5 1 .4 1.5 1 .6.7 1.3 1 2 1.8l1.5 1.2c.3.2.5.7.5 1L73.2 75l-1 .5-.5 1-.7.5-.4.3-1.3 1c-1 1-1.8 1-2.7 2 0 0-.8.8-1 .8 0 .3-1.2.7-1.4 1l-1.5.8-.4.2c-.4 0-.5 0-1 .4-.8.5-1.4 1.3-2 1.6h-.7l-.5.4c-1.3.5-3 .5-4.2 2h.2c1.6 0 3-.8 4.6-1.4l1-.3h.8s1-.7 1.2-.7l1-.3s.6-.5 1-.5c1.8-1 4-1.7 5.7-3l4-2.7 3.3-3 1-1h.5c2 0 2.3 2 3.2 3C83 80 84.7 82 86.6 84l1 1.6c0 .3 0 .7.5.7h.7c1.4 0 3-.3 4.2-.6.4 0 1.8-.6 2-.6l3-.3c.2 0 .2-.2.2-.4 0-.7-1.4-.7-1.8-.7l-1.3-.3-.6-.2c-1.4-.3-2.5-1-3.7-1.5-.6-.4-1.2-.5-1.8-1L87 79.3l-1.3-1h-.3l-.5-.7c0-.3-2-2-2.3-2.3l-.4-.5-.4-.6-.8-.5c-.7-.4-1.2-1-1.6-1.6l-.2-.5.2-.3c0-.3 1.2-1.4 1.3-1.6.4-1.3.7-2.3 1.5-3.4l.4-.6.3-.6c0-.2.7-.8.7-1 .2 0 1-2 1-2l1.4-1.6.4-.4c.4-.8.4-1.7 1-2.5l.7-1c.2-.4.4-1.3 1-1.4.6-.2 1.8-.2 2.5-.2 0-.5-.4-1-.5-1.4-.2-.5-.8-.5-1-1l-.2-.4-.4-.4-1.4-1.4-1.4-2h-.4c-1 0-1.4 1-2.3 1.4h-.8l-.4.4-1 .7h-.7l-.5.2-1 .6h-.4c-.3 0-.6 0-.6-.3V51v-1.7l.3-.8-.2-1.2v-2.6l.3-3.2.5-1L81 40l.4-.2h3.8c1-.8 2-1 3-1h.4c.6 0 1.2.6 1.2 1.2 0 1.2-.3 2-.8 3.2-.3.7-.5.7-.5 1.8 1 0 1.6-1.3 2.2-2.3 0-.2.6-.6.6-.7l.3-.5.6-.4c.2 0 1.6-1.3 1.8-1.6l1-1c.5-.4 1.4-.4 1.6-1.2V37c0-.4.2-.5 0-.7-.2 0-1-.6-1-.6l-.8-1-2-2c-.3-.2-.7-.8-.8-1h-.7c-.8 0-2 2.2-2.6 2.7 0 0-1.4 1-1.7 1-.6.6-1.5.6-2 .8l-.7.3h-1c-.5.3-.8.6-1.3.7h-.6l-.6.2h-.5C79 37.4 79 36 79 35v-1l.3-1.7c0-.7-.2-1.2 0-1.8v-4l.6-.4c.3-.3.7-.2.7-.8 0-1.4-2.5-2.5-3.4-3-.2 0-1-.7-1-.7-.8-.6-1.4-1.5-2.5-1.5v.8l.2.3.4 1V24l.6.6.2.3.3.8v2.9l.3.4v1.4l.3 1.4v5.2l.2.4-1.2.3-1.4.4-1.5.8-1.7.2c-.2 0-.8.5-.8.5l-2 .3-.8.3c-.4 0-.5 0-.5-.3l-.2-1-.6-1.2s-.6-.7-.6-1c-.3-.3-.4-1.2-1.2-1.2h-.4V37l.3 1.3v2.6l-.3.8v4c0 1.3-1 1-1 1.8 0 .4.3.5.3 1l.2 2c0 .3-.2 1.4-.4 1.6l-.2.8v4c-.2 1.2-.7 2.3-1 3.4v1.2l-.3 1-.2.5v.8s0 .7-.3 1l-.3.5c-.3.4-.8 2.3-1 2.7l-.2.8-1.5 3.4c-.3.6-.4 1.3-1 2l-1 1s-.2.8-.4 1l-.3.4c-.3.8-.6 1.2-1 1.8-2 2.6-4.2 5-6.8 7-1 .8-1.7 2-2.8 2.5zm-5-14.4c0 1.2.5 2 1 2.8l.6.7s.7 1 .7 1.3l.3.4.2.3v.5l.5.2c.5 0 1-1 1-1.3 0-.4-.5-.5-.5-1v-1.8-2.4l-.3-1v-.4c0-1.2.7-1 1.6-1l.8-.2 1.2-.2.5-.3c1-.3 2.3-.3 3.5-.6h.6l1-.2 1.2-.6h1c.3 0 1-.5 1-.5h1s.4-.3.4-.5c0-1.5-2.7-1.5-2.7-2.5V64l.3-1.3V62l1-6.3c0-.4.6-3 1-3 .6-.2 2-.2 2-1v-.4l-1.4-.8-3-3c-.7 0-.7 1-1 1.3l-1 1-.2.5-.2.2c-.8.2-2 .3-2.7.8l-.3.3h-.5l-.8.3H46l-.5.5c-.6.3-1.5.3-2 .4l-1 .3h-.3l-.8-.8v-.2c0-.6.5-1 .8-1.4 0-.2.6-1.3.8-1.4l.4-.5c.2 0 .6-.8.8-1 .2 0 1.5-1.5 1.6-1.6l.4-.6 1-1c.3-.4.5-1.3.8-1.8.6-1 1.2-1.5 1.8-2.4.3-.5.6-2.3 1.4-2.3H53v-.7c0-.3-.5-1.4-.7-1.5 0-.2-.5-.7-.5-.8V35s0-.2.2-.2l.6-.4 1.8-.2 1-.3 2.4-.3H60.5v-.8c-1-1-1.8-2-3-2.8-.4-.3-1-1.4-2-1.4-.5 0-.5 1.3-1 1.6l-.7.2c-.2.3-1.2 1-1.4 1h-1.6l-.7.2h-.8c-.7 0-1.8.7-2.4 1l-4.5.6-2 .2-1.4.4-5 .5h-2.5v.3c0 .7 1 1 1.6 1.4.4 0 1 .6 1.3.6.6.4 1.2 1.2 2 1.2 1 0 1.8-.5 2.7-.6h.7c.7-.2 1.3-.5 2-.6 1.7-.5 3.3-1 5-1.3.6 0 .7.7.7 1 0 1-1 2.7-1.5 3.5l-1.3 2.4c-.5.4-.8 1.4-1 1.8-.4.6-.4 1-.8 1.7-.3 0-1.4 1.4-1.5 1.6l-.3.8-.6.6c-.2.3-.3 1-.8 1-.3 0-.4-.3-.6-.4l-1-1.3H38c0 1.3.6 2.4.6 3.4 0 .6-.8 1.5-1.3 2.2-.7.8-1.3 1.7-2 2.8l-.5 1-1 1.5-.2.5c-.5.6-1.3 1-1.7 1.5-.3 0-.7.8-.7.8L31 64v.2s.4 2 1 2l.2-.4v-2l.5-.6c0-.3 1.8-2 2-2.3l.4-.6 1.4-1c.5-.6 1.7-2.5 2.2-2.5.8.4.8 1 .8 1.4 0 1.6.4 3.2.4 4.8V71c0 1-.6 1.6-.6 2.3zm2.4-16.7v-.3c.4-.5 1-.8 1.6-1l1-.2h1.4l.6-.2 2-.5 2.7-1 .7-.2.6.5v.7l-.2 1.3V57l-.2.8v1.8l-.2 1.6-.2.7c0 .4-.3 3-.6 3.2-.8.4-1.4.4-2.2.7l-.8.2h-.4l-1 .3c-.4.2-1.4.8-1.8.8l-1.2-.2c-.2 0-.5-.2-.5-.5 0-.2-.5-1.5-.5-2l-.7-5.8V57l-.2-.4zm-5-10.6c0 .4 0 .8.5 1v-.3c0-.3 0-.7-.4-.7zm38 29h.3s0 .2-.3.2V75zm15.8-37.6zM54.6 149.6c0 .5 1.6 1.2 2 1.4.2 0 .6.7.8.7l1 .4 1-.5c0-.2 1.5-.6 1.7-.8h.4l.6-.6 1.2-.5c1.2-.6 2.7-1.2 3.8-2l.6-.6c.6-.5 1.5-.7 2.2-1.2.7-.4.7-.7 1.5-1l1.2-.5.5-.3 1-.3c0-.2.7-.7.8-1h-.5c-.4 0-.6 0-1 .3 0 0-.5.7-.7.7l-1.2.2c-.6 0-1.4.3-2 .4l-1 .3c-.5 0-.8.5-1.4.5l-.7-.5c-.5-.7 0-1.6-.4-2.2v-3l.4-.5 1.8-.2h.5c1-.3 3-.4 3.6-1.2v-.2-.4l-2-2H70c-.7 0-1.5.8-2 1l-1 .5-.5.2-.6-.6c0-1.3-.4-2.7-.4-4 0-.6.3-.6 1-.8 2-.6 4-1.4 6-1.5l2-.2c.3 0 1.5 0 2-.2l.3-.4.8-.2.5-.2.3.2.5.3.5.3c.6.2.6 1 .8 1.8l.2 1v2l.3.7v1c-.5 1-3.3.8-4.2 1l-1 .5h-1l-1.5.4-.2.2c.5 1 1.7 2.2 2.6 2.2 1.8 0 3.3-1 5-1 .5 0 .6.3.6.5l.2 1.3v4c-.3.3-1.2.8-1.7 1H77l-2.3.7h-1l-1.2.4c0 .4 0 .4.5.5l2.4 1 .6.6h.8l.7-.3 1.8-.3c.7 0 .7.3 1.5.3h.4c.5-.3.3-1 1-1h2.3l1-.3H87l.8-.4h1.8c2-.2 4-1 6-.7.3 0 .3-.2.3-.3v-.2c-.3-1.8-1-1-2-2l-.8-1.3h-.4c-.6 0-1 .3-1.6.5-.7 0-1.4.3-2 .5l-.6.4h-1-.4c-.7.3-1 .7-1.7.7-1 0-1-1.4-1.2-2v-2l-.4-1v-.2l.5-.7.3-1h.4c.5 0 .6.3 1 .3l1.4-.2 1.2-.2 1.2-.3H93l.3-.3 1.6-.2h.5l1-.3h.2v-.2c0-.4-.4-1-.4-1l-2.5-2.4s-.2-.2-.5-.2c-.7 0-.7.4-1.3.7-1 .4-2.4.6-3.5 1l-.5.2c-.7.2-1.3 0-2 .3l-.7.5c-.5 0-.6-.2-1-.3-.2-.2 0-.3-.2-.6 0-.4-.5-.2-.5-.7 0-.8 0-1.4.3-2 0-.2.5-.6.5-.8-.4-.3-1.5-1.4-1.6-1.7-.3-.2-.3-.2-.3-.6 0-.4.2-.4.4-.5l1-.4h.6l.8-.3 1-.3h1.5l1-.3h.7l2 .2c0-1-.8-1.2-1.4-1.7-1-.5-1.6-2-3-2-.3 0-1 .6-1.6.7-.7.2-1.3.2-2 .6l-.6.3-1 .3-1 .3c-1.5.3-2.8.4-4.2 1l-.5-.4c.3-1.6-.2-3-.4-4.4v-.2c0-.6 1.2-.7 1.4-.7l1.4-.3.3-.2 1-.3h1.6c.4 0 2.2-.7 2.3-.7l1.7-.3 3.4-.5h1.6l2-.3s.3-.3.5-.3l1.5-.2v-.4c-1.4-1.3-2.3-2.8-4-3.5-1 0-2 .8-3 1l-.8.3c-.2 0-.6.8-.8.8l-1.2.2-.3.3h-1.4l-3 1h-1l-.6.4h-1.9c-.3 0-.5-.2-.5-.5v-4.9c0-.8 1-1 1-2v-.4c-.2-.3-1.2-1.4-1.6-1.5 0 0-.5-.4-1-.5l-1.2-.6c-.5-.2-1-.6-1.6-.6h-.7c-.3 0-1.4 0-1.4.4 0 .3 1 1 1.4 1 .3.4.3.6.6.8l.4.7v1.3l.2.4.2.8v2.4c0 .5.4 1 .6 1.7 0 .7-.2.7.2 1.2l.3.3c-.3.5-.7 1-1 1l-3 .2c-1 0-1.4.6-2.3.7l-3.2.3h-.5l-.4.2-2.8.3H59c-.6 0-.5.6-1.6.8h-2c-.3 0-.8.4-.8 1 0 .2 1.7.8 2 1 .2 0 1 .6 1.3.6h2.5l2.3-.7 2.8-.4.7-.2 1.3-.3h1l1-.3h1c.7 0 1-.4 1.8-.4l.2.2c.5.6.2 1.4.4 2v2.1c-.2.4-1.3.4-1.6.5l-.5.2-2 .2c-1 .2-2 .7-3 .8H65l-.8.3-1.4.2-1 .4h-2.7c-.3 0-.5.3-.5.3v.2l.3.5.3.6c0 .5 1 0 1.2.3l1 .5c.4 0 .8.5 1 .8.3.5 0 1 0 1.4l.4 1.7v1.4l.2.4-.2.3c-.6.3-1 0-1.8.3l-1 .3-2.2.2-.8.2-.4.3c-.3.2-1.7.4-2 .4-.2 0-.2.5-.2.5 0 .5.8.5 1.3 1 .2 0 .3.6.7.8H58c.4 0 .8 0 1.3-.2l1.2-.2s.7-.4 1-.4h1.3c.4.3 1 1.3 1 2V144.8c0 .8 0 1.3-1 1.7l-2 .4s-.6 0-.8.3l-1.4.5c-.3 0-2.8 1-3.2 1-.4.3-.8.4-.8.8zM47 159c0 1 .6 1.6 1 2.3l.3.6.7.8.3.8c.2 0 .7 1.2.8 1.2h.2l.4-.2 1.2-1.3v-.2l-.2-.6c.2-3 0-5.7-.3-8.8V152l-.2-1.3v-1-5.8c.3-.5.3-.6.3-1v-.2l-.2-1v-7.2-1.6V126.3v-.8c0-1 1-2.4 1-3.6 0-.7-.2-1-.5-1.3 0-.2-.5-1-.6-1-.6-.5-1.4-1.2-2-1.2-1 0-1.4 1-1.8 1.7-.3.5-.5.8-1 1-.7.8-2 1.3-3 1.6l-.7.2-.5.3c-1 .4-2 .8-3 .8-.7-.5-.7-2-1-2.7-.4-.6-1-1.2-1.4-2l-.4-1c0-.4-.3-.2-.5-.2-.5 0-.7.4-.7.8 0 .7.6 1.7 1 2.5l.2.6.2 1.5v.2l.3.8.2 1.2V129.8l.3.6c0 1.6.3 3 .5 4.6v.2l-.2 1.6v1l.2 1v8.5c-.2.5-1.3.5-1.3 1 0 .8.5 1.2.6 1.8.3.4.6 1.8.6 2v.2c0 .4 0 1.3-.3 1.4-.6 0-1 0-1.7.2l-.6.3-2 .3h-.6l-2.3.4v1.2l1 1.3c.3.3.8.2 1 .3l2.3 1 .5.5c1.6 0 2.2-1.3 3.4-2l.8-.2.6-.6h.4l1.4-1h.8l.3-.2c.2-.3 0-.5.6-.8 1-.6 2.3-1 3.5-1.6.4-.4.5-.7 1-.8.3 0 .6.4.6.6v2l.3 1v.2l-.2 1v1c-.4.4-1 .6-1 1.5zm4 15.7h1.5c.3-.2 1.7-.5 2-.5 1 0 1.8-.3 2.7-.6l4.4-1.8.4-.2s.6-.8.8-.8c0 0 .7-.5 1-.5l.3-.5.4-.5 2-1.8v-.8l.8-.5v-.5l.3-.7 1-1.8V162l.5-1.5v-.3l.3-1c.2-.7 1.4-1 2-1.2h1.3c.4 0 2.2-.7 2.5-.7h1l1-.3h.4c.3 0 .5.3.5.6l.2 1.5V161.7c0 .5 0 1.2-.3 1.7v5.6l.3 1c0 .4.8 1.8.8 1.8.2.3 1 1.2 1.4 1.3l.5.3.5.3c1 .3 2 .6 3.2.6h.3l5-.4h2l.8-.2 3.4-.4 2-1c.7-.4 1-2 1-2.5 0-.7 0-1.3-.2-1.7 0-.2-.6-1-.6-1.3l-.2-1v-.5c-.6-2.8-.6-5.8-1-8.5v-.3c-.4 0-.5.3-.5.3v3l-.4.4-.4 3.8c0 .5-.3 1-.3 1.6v.6c0 .3-.3.7-.5 1l-.2 1c0 .3-1.2 1.3-1.4 1.5-.3 0-1.3.4-1.6.6-1.4.6-3 .8-4.4.8H86l-.8.2h-2.5c-.6-.2-1-1-1.2-1.5L81 168v-6.3c.5-1.5.5-3 .8-4.6 0 0 0-.5.3-.7l.7-.4v-.2l.4-.5s.8-.4.8-.6v-.6l-.8-.8-.3-.5-.5-.3-1.5-1.5h-.2c-.5 0-.4.3-.7.7-.2 0-1.2 1.2-1.5 1.5-.3.3-.8.4-1 .6-.3 0-1.3.7-1.5.7h-1.6c-.5.2-.7.5-1 .7h-3.4c-.7 0-1.3-.7-1.6-1.3l-.8-1.6c0-.3-.4-1-1-1h-.3v.7c0 .6 0 1 .4 1.3v3l-.3 1.3.3 1.2c0 1.3-.2 2.6-.7 3.6 0 .3-.4.8-.4 1-.3.6-.2 1.3-.6 2-.2 0-1.3 1.3-1.4 1.5l-.2.2-.2 1c-.5.7-1.6.8-2.2 1.5l-.6.6c-.3 0-1 1-1.2 1l-1 .2h-.2c-.8.6-1 1.2-1.8 1.4h-1l-1.3.4-.5.4h-.3l-1.2.4c-.2 0-.5.3-.5.5zM43 139l2.7-.8H47c.4-.3.4-.4.4-.6 0-.4-2.2-2-2.8-2-.6 0-2 .3-2.4.7-.7.4-.8.7-1.6.7-.2 0-.5-.2-.6-.5v-3.3s0-1-.3-1.2V131l.2-1v-2.8c0-.4 1-.5 1.3-.7l1.7-.8 1-.2c1 0 1.7-.4 2.6-.5l.4-.2h.4l.6.3v7l.3 1.3v13.5l.3 1.6v1.4l-.3.3h-1l-1.8 1-1.2.2c-1 .3-1.7.7-2.6.7-.6 0-1-1.2-1-1.8V140c0-1 1.8-1 2.3-1zm22-9.6l.3-.3c.2 0 .3 0 .3.3 0 .2-.3.5-.3.5-.3 0-.3-.3-.3-.4zm-22 7.4h.4c.3 0 .7 0 .7.2h-.8v-.2zm54.2 18V154.6zm-30.7-25.4h.4l-.3.3-.2-.2zm-15.8 45v.4c.2 0 .2-.3 0-.3zm21.6-54c.2 0 .3 0 .3.3l-.3-.3zm13-2.8v.3-.4zm-37 6.8h.3-.3zm2 50h.3-.2zM80 119v-.2.4-.2zM57.6 228c0 3.8 3 7 7 7s7-3.2 7-7c0-4-3-7-7-7s-7 3-7 7zm2 0c0-2.8 2.3-5 5-5s5 2.2 5 5c0 2.6-2.3 4.8-5 4.8s-5-2.2-5-5zM195 82v.5s.6 1 .8 1L197 85c.3.4.7 1.2 1 1.4.3.2.8.4 1.2.4.4 0 .8 0 .8-.5v-3l-.3-9.8v-6c-.3-.4-.3-1-.3-1.4v-1c0-.2 0-1 .6-1l.6.5.5.2c.2 0 1 .6 1.2.7l.2.3.4.6c.5 1 1.3 1.7 2 2.5l.7 1c.2 0 1.3 1.2 1.5 1.4l.5.7.5.4.2.5 1.6 1.7 1 1 .2.4c0 .2.5.8.5.8l.4.5 1.7 2 .4.6c.3.3 1.2 1.3 2 1.3 2.6 0 5.2-.8 7.8-1 .3-.2 1-.7 1-1-.3-.6-.4-1-1-1.2h-1l-.4-.3h-.6l-2.2-1s-.7-.5-1-.5l-2.2-1.3-.5-.6-.8-.6s-.7-.5-1-.5c0 0-1.5-1-1.8-1.4l-4-4-1-1.4-2.4-2.2-.3-.5c0-.3-.6-1-.6-1l-2.8-3c-.3-.2-.4-.4-.4-.7V59c1.2-1 2.3-.8 3.8-1h1l1.7-.2h.4c1.7-.3 3.4-.3 5-.6l.7-.2h4.6c.7 0 1.5-.5 2.3-.6h2c.3 0 .3-.3.3-.4 0-.8-2.3-2.2-2.6-2.6-.2 0-.6-1-.8-1l-.6-.5c-.5-.6-.6-1.2-1.4-1.2l-.6.3-1.5 1-1.4.8h-.5l-.5.6h-.8s-1 .6-1.4.6l-1.3.2-2 .5-1.3.2h-.5l-.6.2c-1 0-2 .4-3 .6-.8.2-1.8.2-2.5.3-.3 0-.5 0-.7-.2v-.6c0-1.4 0-3.2.3-4.5l.3-.5v-.5c-.3.2-.5 0-.5-.4 0-.8 1-1.3 1-2V47l-.6-.3-1-.7-1-.4-.8-.6s-1.4-.6-1.5-.8c-.2 0-1-.6-1-.6h-.4c-.3 0-.6 0-.6.3.8 1.4 1 2.4 1.5 4l.6 1.7v1.1l.3 1c.4 0 .6 0 .6.3 0 .5-.3.6-.3 1 0 .3 0 .4.3.7v3.1c-2-.3-4.2.5-6.3 1h-.7c-.8 0-1.6.6-2.3.6h-2l-1 .2h-1.2l-3 .5c-1 .3-2 .3-3 .8l.3.3 5.3 2.7c1 0 1.7-.4 2.6-.6.7 0 1.5-.2 2.3-.4 1-.3 2-.8 3.3-1h1l1.3-.2c.6 0 .7.6.7 1 0 .2-1 1.6-1 2l-3 4-.4.5c-.6.7-1.4 1-2 1.7-1.2 1.3-2.3 2.6-3.7 3.8l-4 3.3-.7.5-4.2 3.2-.6.3c-.2 0-.8.8-1 .8 0 0-1 .6-1.3.6l-.7.5-1.5.7c-.2.2-.8.4-.8.8h-.8l-.3.3c-.6.3-1.3.3-1.7.6l-.3.4c-.4 0-.7-.7-.7-1 0-.4.3-.7.8-.7.5-1 .7-2 1-3.2V79c0-.2.6-.8.6-1 .5-.7.3-1.6.6-2.3l.7-1.3c-.2 0 0-.3 0-.4v-.8l.6-.6 1-2.3c0-.2.6-.6.6-.7.2-.7.2-1.3.5-2l.4-.3.2-1 1-2.7c0-.6 0-1 .3-1.5l.7-.8s0-1.3.3-1.7v-.2l.2-.7.7-1.6.3-1.5.2-.6c.5-2 1.8-3.3 1.5-5.5.2 0 .2-.2.2-.4V49l-.2-.6h-.3s-.6 1-.7 1.5c-.8 1.5-1.3 3-1.8 4.6l-1.4 2.2-.2.5-.4.5c-.4.7-1 1.8-1.3 2.8l-.4.7c-.5 1-1.2 1.8-2 3l-1.6 3.7c0 .6-.5 1-1 1.6v.5l-.4 1-.5.7c-.5 1-.6 2.6-1.6 3.5l-1.7 1.7c-.5 0-.8-.5-1.2-.5-.2 0-.4.4-.4.5 0 2 1 3.4 2 5 .2 0 .8 1.4 1 1.6l.8 1.3.5.8h.3l.5.6h.2c.7-.3 1.3 0 2-.3 1.5-.5 2.5-1.2 3.7-2l1.6-.4.6-.4.2-.3 1-.3.4-.4.7-.4 1.7-.8 1.2-.6c.2 0 1-.8 1-.8 1.3-.7 2.5-1.3 3.6-2.2 0-.2 1.2-1 1.4-1.3l1.2-1 1-1 .3-.2 1.2-.7.8-.8.8-.7.4-.3 1-1.2.3-.3 4-4s.3-.8.6-.8l.2.6.3 2.7v2.5l-.3 1.8v7.2c-.5.8-1.4 1.3-1.4 2.2zm-15.5-31.8v.5h.3l1.3-.3c.3-.3 1.2-.5 1.3-.7l2-1.5.6-.3c0-.2 1.6-1 1.8-1.3l.6-.3s.5-.8.7-.8c.6-.6 1.2-.7 1.6-1 .2-.3.8-1 1-1l.7-.3v-.3l2.2-2.5v-.4l3-3.7c.6-.7 1.7-.8 1.7-1.7 0-.7-.5-1.2-1-1.4v-.3c-1-1-1.5-2-2-3.2.4-.3 1-1 1.3-1h3.3l.7.4c.4.2.3 1.3.3 1.6v1.7c0 .8.4 1.6.4 2.4V43l.3.6.2.5c.7 1 1.8 1.4 3 1.4l9.4-.3c2.6 0 5 .8 7.7.8l.4-.2.2-.2c0-.4-.2-1-.4-1.2 0-.3-.6-1-.6-1l-1.5-1.6c-.3-.5-.8-1.2-1.4-1.2h-.2c-.2.2-1.4.5-1.7.6l-1 .5-1.3.3H212l-1 .3h-3.3c-.5 0-1 .3-1.8.3-1 0-1.3-1.2-1.3-2V37v-3.3c0-1 1.2-1.2 1.2-2.2 0-.7-1-1.3-1-2.2V29c.7-.8 1-1 1.8-1.2l3-.4h1.7l.7-.3h.3c.2 0 .3 0 .4.4h1.5c.3 0 .6.2.6.5 0 .2-.4.2-.5.5-.4.8-.2 1.4-.3 2l-.4 1.8c-.2 1.3-.7 2.2-.7 3.4h.6l.7-.8.5-1 .3-.3s.7-1 .7-1.2l2-3v-.2c.3 0 1-.6 1-.6.8-.6 2.8-2.3 2.8-3 0-.4 0-.4-.3-.7 0-.2-1.2-1.2-1.5-1.6 0-.3-.3-.4-.3-.4l-.8-.4c-.8-.8-1.4-1.6-2.3-2h-.4l-3 3-.5.2h-1c-.3 0-.8.5-1 .5-1 .4-2 1-3 1.2-2.6.2-5.3.6-8 1l-1.6.5c-2 .4-4 .6-6 .8l-2.5.4H188l-.8.3-1.7-.2-.3-.7-.3-.6-.2-2c-.4-.7-1.4-1.6-1.7-2.6l-.2-1-.6-.5c-.5-.4-1-1-1.5-1 0 1 .4 1.7.6 2.6v2c0 .7.4 1 .4 1.8 0 2-.4 4.6-.8 6.7l-.3 1-.2.8-.8 1.7c-.7 1-2 .7-2 2v.5c1 1.6 1.6 3.3 2.2 5h.3c.8 0 .8-2 1-2.6.5-1 1-1.7 1.2-2.6 0-.3.4-.8.4-1L184 34v-2c.2 0 .6-.6 1-.6h1l2.7-.6h.8l1-.3h.4c.5 0 .6.3 1 .5.5 0 1 0 1 .7 0 .5-.4 1-.4 1.4v.6l-.2 1-.4 1c0 .4-.8 1.8-.8 2 0 0-.5.5-.5.7l-.5.6s-.5.5-.5.7l-.2.4c-.6 1.4-1.5 2.4-2.4 3.5l-.4.2-.7.7-2.8 2.7c-.6.6-.7.4-1.3 1.2h-.2c-.2 0-.7.6-1 .6 0 .2-1 1-1 1l-.7.5v.2zM164 57.3c0 .3 0 1.2.3 1.2 1 0 1-1.6 1-2.3l.4-1.4.8-2c.4-1.4 1-2.7 1.6-4 .5-1 1.7-2 1.7-2.6 0-1-.8-1-1.4-1.5-.3 0-.3-.6-.6-.8-.6-.4-1.4-.3-2.2-.4-.7-1-1.6-1-2.6-1.4-1.4-.2-3-.2-4.5-.5-.2 0-.6 0-.6.3 0 1.4 2.8 2 3.6 2.7l.4.5c.7.4 1.6.8 2 1.4.6.6.6 1.5 1 2.2v.2l-.4 1.2c0 .8-.3 1.4-.3 2.3v1.2c0 1.2-.4 2.5-.4 3.7zm4.5-19.2l.3.3c.7 0 1.5-2.6 1.8-3 .8-1 1.7-1.7 2.4-2.8l.4-.8c.3 0 1.2-1 1.3-1.2.2 0 .2-.3.2-.5h-.2s-.2-.6-.4-.6l-.7-.4c-.4-.2-1.2 0-1.4-.2l-.5-.6c-.7-.8-3-1.2-4-1.7-1-.4-1.8-1-2.7-1.2l-1-.3c-1-.3-1.3-.7-2-.7-.6 0-.7 0-.7.5 0 1.3 2 2.2 3 2.6l2 1.4 1.5 1.4c.7.8 1 1.2 1 2 0 1.7-.2 3-.3 4.5V38zm27 24.5s0-.3.4-.3l-.3.8v-.5zm-29-17.2c0 .3-.2.3-.3.3 0-.2 0-.3.3-.3zm2.3 21.3h.2v.4l-.2-.2v-.2zm29 14v.4c-.3 0-.3-.3 0-.3zm-2.4-51h.3c0 .3 0 .3-.3.3v-.3zm2 31.4c0 .2 0 .2 0 0s0-.2 0 0zm-30.3 11h.2v.2-.3zm49-45c0 .3 0 .3 0 0zm-10 29v.3-.2zm-44-31.4zm8.4 145.2c.7 1.2 1.7 2.6 2.6 3.6l.4.5.4.5h.3l.7.3h.2c.8 0 1.2-1.4 1.2-2l-.2-2c0-.2.2-.7.5-1h1.7l2-.5h.6c0-.3 1.7-1 1.8-1 1.7-.7 3.5-1 5-2 .8-.2 1-.8 2-1 .4-.3 2.6-1.6 3-2l.7-.4s.7-.8 1-.8l2.5-2h.4c.2 0 1 .7 1.2 1 .2 0 1.3.5 1.4.7 1 .6 1.7 1.3 2.6 2 .2.3 1.2 1 1.4 1l2 1.7 1 .5c.3.3.5.8.8 1 .6.5 1.2.7 1.8 1 1 1.2 2 2.3 3.4 3l1 .6s.5.8.7.8h.8c.5 0 .8 0 1-.3l5.4-1.4c.5-.3 3-.5 3.4-.5.5-.4.6-.4.6-.8 0-1-1.3-1-1.8-1H222c-.5-.3-.8-.7-1.4-.8l-1.7-.6-.6-.3-2.3-.8h-.2l-.4-.5-1.4-.4c-.6-.4-1-.8-1.7-1-.6-.4-1.2-.4-1.7-.7-1.2-.8-2-2-3.5-2.4l-.3-.2c-.5 0-2.2-1-2.4-1.2l-.7-.5h-.8l-.5-.6c-.2 0-.5-.3-.5-.3-.6-.3-2.5-1-2.5-1.8v-.2c.4-.3 1.4-2 1.7-2.2l1.3-1.3.3-.5c0-.2 1.8-1.8 2-2 0-.2.6-1 .6-1v-.2l1-.7 1-2 .6-.7c0-.4.7-1 .7-1.2.4-.6.3-1 1-1.4l2-3.3.4-.5c0-.2.7-1 .7-1 0-.2.2-1 .4-1l.2-.4.6-.8c.2-.2.8-1.7 1-1.8 0-.3.6-.7.6-.8 0-.4 0-.8.4-1l1.3-.3 1-.3c.3 0 1-.4 1-1l-.6-.6-.4-.8-1.2-1.8-.5-.7c-.3-.5-.3-1.7-1-2.2h-.2c-.3 0-.5 0-.8.2v1s-.4 1-.6 1H212.7c-.5 0-.8.6-1 .8-.7.7-2 1.6-3 2h-.8l-.5.4-.8.2-2.2.2c-.3 0-1.3.5-1.4.7-.2 0-.6.4-.6.6-.3-.4-.6-.4-1-.4H200c-.3 0-.7 0-.7-.5l.4-.6.4-1s1-1 1-1.2c.4-.8.4-1 1-1.8.6-.6 1.8-.2 1.8-1.4 0-.7-1.2-2.4-2-3-.3-.7-1.2-1-1.2-2v-.3c.4-1 1.3-1 2.3-1h3.3l2.5-.2 1.4-.3 2.5-.4h2l.4-.3h10s.5-.2.6-.4v-.2c-.6-1.2-1.5-2-2.4-3l-.3-.2-.6-.6-2-2H219s-.8 1-1 1c-.7.4-1.6 1-2.5 1.3h-1.3c-.8.3-1.7.8-2.5 1h-1l-.6.4h-1.6c-1.7.3-3.4.4-5 1h-.2l-2 .2h-1.6l-.5.2h-1c-.8 0-1.2.4-1.8.4-.3 0-.5 0-.5-.4 0-1 .3-1.7.5-2.5V112c.3-.8 1-1 1-1.7 0-1-1.2-1-2-1.3 0-.2-1.4-.8-1.6-1l-1.4-.7-1.2-.4-2-1h-.3c-.3 0-1.3 0-1.3.5v.2c1.4.7 2.8 1.5 3.3 3l.5 1.7v.7c.4 1 1 1.7 1 2.6v.7l.2 1.6v.2s0 .6-.3.7c-3.6.5-7.4.8-11 1.2h-1c-.7 0-1.5.3-2.3.4H176c-.2 0-.7.4-1 .4-.3 0-1-.3-1.4 0l-3.8.4H166l-1.2.5h-6.3c-.7 0-1 .3-1 1.2 0 1 3.3 1.7 4 1.8l1 .6c.7.5 1.5.7 2.4.7h.4l1-.5c.8-.3 2-.3 3-.4l1.6-.5h1c.8 0 1.6-.4 2.4-.5l5-1.2h.3c.6 0 1.2.4 1.4 1-.4.7-.6 1.3-.8 2-.3 1-.8 1.5-1.2 2-.4.6-.4 1-.7 1.5l-1.5 2c0 .3-1 1.2-1 1.2-.8 1-2 2.2-2.8 3.3l-.5.5-1.5 1.4-.3.4-.5.5c-1 1-2 1.8-2.8 2.8l-1 1-3.2 3.4-1 .8c-.2.3-3.2 3.2-3.7 3.5-.3.3-.7.5-1 1l-.5.8c0 .4 0 .8.5.8.6 0 2.6-1.7 3-2.2.3-.2 1.3-1 1.5-1l.5-.4 1-1c.6-.6 1.4-1 2.2-1.6l1-1 .7-.4c.4-.2.7-1 1.2-1.3l1.2-.8.6-.3c.3-.4.7-1.2 1.4-1.2.3 0 .6.4.6.8v2.7l.6 1.2v.2l-.2 1.5v.6l.2 1-.2.7v.3l.2 1.5c0 1.3-.2 2.3-.3 3.5l-.2 1.4v4.6l-.2.7v1.8l-.2 1.2v1.4l-.7 1.5s-.3.3-.3.5c0 0-.6.5-.6.7v1zm5.6-1v-6l-.2-1.7-.2-.5v-.2c0-.7.3-1.5.3-2.3l-.2-2.4v-1.8-5.7-2c0-1 0-2 .2-3l.2-.2c.5-.8 1-1.2 1-2.3v-.3l-1.8-1.7-.7-.4v-.3c0-.3.2-.5.4-1 1-1 2.6-1.7 3.6-2.6l1.7-1.4.8-.6.4-.5c.6-.8 1.5-1.2 2.3-2l2-2 .4-.3h1.4v-.4-.8l-1-1.8c0-.2-1-.6-1-.8v-.6c0-.5.2-1 .7-1l1.7-.2c2.2-.3 4.4-.6 6.6-.7h1l.4-.3c.8-.2 1.8-.3 2.6-.3 0 0 .3 0 .5.3v.2c-.2 1.3-.4 3.4-.8 4.8l-.3.7c-.3.7-.4 1.5-.8 2.3l-.2.6s-.5.6-.6 1l-.5.5v1c-.3 1-1 1.7-1.4 2.4 0 .2-.7 1.7-1 2 0 0-.5.4-.5.6l-1.6 3-.7.8c-.6 1-1 2.3-1.8 3.2l-3 3.4-.3.5c-.2 0-1.2 1.8-1.5 2h-.5s-1.2-.7-1.5-.7h-2c-1 .3-2.3 1-2.3 2v.5c.3 0 .8 0 1 .3l3.2.8 1 .2.5.3.7.2h.7s1.5.8 1.8.8h.6c.4.2 1.4.7 1.6 1l.8.4.2.2 1 .2c.7.3 1.2.8 2 1l.8.2c.2.2 0 .3 0 .5 0 1-1 1.4-1.7 2-1.6 1.5-3.3 2.8-5 4-1.5 1-3.2 1.5-4.7 2.3-.7.3-1.4 1-2 1.2-.3 0-2.3 1-2.4 1-.4.2-1 .8-1.3.8h-.2l-.5-.4zm18.5-13l-1.7-1.8s-.5 0-.6-.2l-1.7-.8-1.2-.3h-.2c-.2-.5-1.7-1.3-2-1.4h-.5c-.4-.3-.5-.6-.5-1v-.5l3.6-3.5c.4-.6 1-1 1.6-1.5l.2-.5 1.6-2c.3-.4.6-2 1.3-2l.4.2c.6 1 1.5 2 2 3.2l.2.8c0 .6.5 1.3 1 2l.2.4c0 .5 0 2 1 2 .3 0 1-.4 1.3-1v-.5c.4-.7 1.3-1.2 1.3-2v-.3c-.3-1-1.2-1.7-1.8-2.3l-.8-.8-3-3s-.5-.3-.5-.6v-.4c0-.8.5-1.2 1-2 0-.3.6-2.3 1.3-2 0 0 .4 0 .6.2 1 .5 1.7 1 2.8 1l2-.4 1.3-.3.5-.3 1.2-.3h1.2c.8-.2 1.6-.7 2.5-.7.3 0 .5.4.5.6 0 1-.6 2-1 2.7l-.6.5c-.5.5-.8 1.4-1 2l-2 3.3-.2.3-1 1.5-.6 1-1.6 2.2-.2.3v.6l-.7 1c-.3.6-1 1-1 1.6l.7.7c0 .2-.2.5-.5.5s-.3-.3-.5-.3c-.8 0-.8.4-1.3.8L198 154c0 .3-1 1.3-1 1.4-.2.3-.7.7-1 .7-.4 0-1 0-1.5-.3zm7.8-37c0-.4.5-.5 1-.5l-1 .5zM200 126c0-.2.3-.2.5-.2 0 .2 0 .5-.2.5l-.2-.2zm-3.5 31.5h.3v.2h-.2v-.3zm-9.4 67c0 2 1.8 4 4 4-1 3.7-4 5.7-5 6.3l.8 1c2-.6 8.5-4.3 8.7-11v-.4c0-2.3-2-4.2-4.2-4.2-2.3 0-4.2 2-4.2 4.2z"/>
</svg>
