<svg viewBox="0 0 256 256" xmlns="http://www.w3.org/2000/svg">
  <g fill="none" fill-rule="evenodd">
    <path d="M39.7 64h.2c.7 0 1-.8 1.2-1.4v-1-1.2h.7l1.5.3c.5 0 .5.4 1 .4.8 0 1.5 0 2-.3l4.2-.4 1-.3 1-.2c1.8 0 3.5 0 5.2-.4l3.5-.5c1-.3 2-.3 3-.3l2.6-.2h2c.8 0 1.3 0 2-.3l3.8-.3c.8-.2 1.7-.3 2.6-.3h4.8v-.5c-.3 0-.8-1-1-1.3-.3 0-.7-.2-1-.4l-.7-1c-.2 0-1-.8-1-1h-1.1c-1.4.7-2.6 1.3-4.2 1.4h-1.5l-3.3.6c-.8 0-1.7 0-2.3.5-2.5.3-4.8.8-7.2.8-.8 0-.8-.7-.8-1.4V55l.2-1.2V53h.6c2-.7 4.5-1 6.7-1l1.5-.2c2.4-.2 4.7-.5 7-.5h2.3v-.7L75 49.3 75 49c-.2 0-1-.7-1-1-.3-.2-.4-.2-.7-.2H73l-2.5.8-1.4.2-1 .3-.7.2h-1c-1.4.4-2.6.8-4 1-1 0-2.3 0-3.5.2h-.3c-.3 0-.5 0-.6-.2v-1c0-.4-.4-.7-.4-1 0-.4.2-.8.3-1 0-.2.3-.5.3-.5l.7.3h.5l1-.4 2.8-.3.8-.3H71c1-.4 1.3-.8 2.6-.8h.8l1 .4c.8.6.5 1.4 2 1.4.4 0 .7-1 .7-1.5 0-1-1-1.4-1.8-1.8-.4-.2-.2-.4-.5-.6h-.4l-.7-.4c-.5-.6-.4-1-1.2-1h-.7l-.7.3h-.3l-.4.3c-1 .4-2 .6-3.2.8-.3.3-1 .5-1.3.5h-1l-.3.3-2.7.4-.4.2h-.8c-1 0-2 .4-3 .4-.2 0-.5 0-.6-.3l-.2-2.2c0-.8.8-.8 1.2-.8.8 0 1.7 0 2.5-.5h2l.7-.3 1.6-.4h.3c1.8 0 3.8-.5 5.5-.8h.5l5.6-.5c.3 0 1 0 1-.4 0-.3-.4-.3-.5-.4l-.6-1-1.7-1.6c-.2-.2-.6-1-1-1-.5 0-.8.5-1.2.7l-1 .5-1.2.4-.5.3c-1 .2-2 .2-2.6.5l-.4.3h-.4l-1 .2-.3.2h-.8l-.5.3-1.2.4c-1.3.4-2.7.2-4 1H57c-.5 0-.6-1-.6-1.4 0-.4.3-.7.7-.8l1.6-1.6c0-.5-.3-1-.6-1.2L56.5 33l-.5-1h-.2c-.3-.4-1.2-.7-1.2-.7H54v.3l.3.5c.2.8.2 1 .2 1.7v.7l-.2.4-.3.7v2l-.4 1.8s-1.5.3-1.8.5l-.5.2H50l-.7.3-.2.2c-.5.3-1.3.3-2 .4h-1l-.8.2h-1.4l-.4.2h-.2L43 41c0-1 .4-1.4 1-2v-.3c0-.4 0-.5-.2-.8 0-.3-1-1.5-1.4-1.8-.3-.2-.5-.7-1-.8-.2 0-.5.4-.5.4l-.3 1-.2 1c0 .4-.5.5-.7 1l-.8 1.5-.5.7-.6.6c-.3 0-1.6 1.7-1.8 1.8l-.4.3c-2 2-4 4-6 5.6L27 51.6s-1 .5-1 .7c-.3 0-1.2 1-1.3 1.2-.6.4-1.7.8-2 1.2-.2.3-.2.7-.2 1 0 .4.3.4.5.4 1 0 1.3-1 2-1.5l1.2-.5h.7l.4-.5 1-1L31 51l.7-.4c0-.2 1-1 1-1h.5l.2-.3 1-.5c.8-.7 1.8-1.8 3-2 .2 0 .3.3.3.5.2.3.3 1.2.3 1.3v1c0 .6.3.8.3 1.3l-.2.4v3s.4.3.4.5v.3l-.3 1c-.3.7-1 .8-1 1.6 0 1 .6 2.3 1 3.2l1.7 2.7zm27 16c.4 0 .4.6.6 1l1.2 3 .3.3h2c.5-.4 1-3.3 1.2-4v-1c0-.4.8-2.7.8-3l.7-4v-1c0-.3.6-1.2.6-1.4v-1.7c0-.2.5-1 .6-1l1-1V66c.4 0 1.2-.3 1.2-.8v-.5c-.4-.3-1.3-1.5-1.5-1.8-.3-.4-.5-.8-1-1L72 59.7h-.7c-.5 0-.7.6-1 .8l-.8.6-1 .7c-.4 0-2 .8-2.3 1h-.4l-1 .2-.7.2h-.3l-1 .2c-1 .2-1.6.5-2.5.6-1.6 0-3.4.3-5 .6h-.6v.4c0 .7 3.2 2.2 4 2.2 1 0 1.8-.7 3-.8h1.3s.5-.5.7-.5l1-.2.8-.3h.6c1.4-.4 2.7-.7 4-.7.5 0 1 0 1 .6V69l-.5 1c-.2.3-.3.3-.4.3-.8-.8-1.8-1.5-2.7-2-.2 0-.3-.2-.3-.2l-.4.3-1 .5-1.4.2c-1 0-2 .5-2.8.7H59c-.2 0-1.7 0-2 .2-.5 0-.6 0-.6.5 0 .8 1.2 1 1.8 1.5l.6.4h.6c1.5 0 3.2 0 4.7-.4h3.2l.6-.3h.4c.5 0 1.2.2 1.4.6.2 0 .5.7.5 1 0 .3-.2.5-.4.8-.4 1.3 0 2.7-1 3.8v.2c-.8 0-1.5-1.6-2.3-1.6-.8 0-1.5.3-2.3.4l-1.7.2H62l-2.3.5h-1c-1 .3-2.2.3-3.4.5h-.5l-1.6.5-.7.3h-3c-.6.2-1.3 0-2 .4l-.7.3h-.2L46 79l-.4.2H43c-1 0-1.7.3-2.5.3-.5 0-.6-.3-.8-.5-.4-.2-.6 0-.6-.4v-1.5-1c0-.8 2-.8 2.3-1l.7-.3h1l.8-.2 1-.3c.3-.2 2-.4 2.2-.4h1.2l2-.5H52l1.2-.2v-.5l-.4-.7c-.3 0-1.3-1-1.5-1.4h-.6c-1.5 0-3 .8-4.6 1l-1 .3h-1l-.5.3h-1l-1.4.4-1.8.3c-1 0-.8-1.6-1-2.2V70c0-.3.3-.2.6-.3l1.4-.7.4-.3h.8c.2-.3 1.3-.8 1.4-1 1.2-.5 2.5-1 3.8-1.3 1-.3 2-1 3-1.2.7 0 1.2-.2 2-.5l.5-.3V64c0-.6-.5-.7-.7-1.3l-.5-.8-.2-.3-1-.7-.4-.2-.3.2s-.6.8-.6 1c-.5.5-1 .6-1.6 1-.2.3-1.6 1.3-2 1.6-.8 0-1 1-2 1.2-.2 0-1 0-1.2.4-.2 0-1 .7-1 .7l-1.3.4c-.6.5-1 1-1.7 1.2-1 0-1-1.3-1.7-1.6h-.5l-.7-.4-1.4-.7v.2c0 .3 1 1.8 1.2 2l.5.6.2.5.3 1c0 .2.4.7.4 1 0 .3 0 .6.2.8v2.7c0 .8.3 1.5.3 2.3l-.5.6v.5l-.8 1.5v.2c0 .7.6 1.2 1 1.6.7.8 1.2 1.6 2 2.4l.2.4c.3.2.4.2.7.2 1.4 0 .7-1.5 2-1.5.4 0 2.7-.3 3.2-.5l1-.2 3-.5h1l.7-.2c1.8-.2 3.8-.2 5.7-.3H58l.6-.4 2-.2h3.8l.7-.3h1.5zM44 35.3c.2.4.5 1 1 1.4h.2l.4.5c.2.3.2.7.7.7.4 0 .4-.4.7-.7l.4-.3.4-.3V33v-1c.3-.5.7-.6 1-.7l1-.5H51c.7-.2 1.5-.6 2.2-.7H54l.5-.3H56c.5 0 .7-.5 1-.7.3 0 1 0 1-.5v-.2l-.4-.4H57l-.5.2h-1.4l-.7.3h-1.4l-.8.5h-1.2l-2 .2h-.4c-.2 0-.6 0-.6-.2v-1c0-1 .2-1.4.3-2.3V25c-.7-.4-1.7-.5-2.5-1l-3-1.5h-1.3c-.3 0-.6 0-.6.3 0 .5.7.4 1 .5 0 0 .7.7.8 1 .2 0 .6.6.6.7v.6l.4.5c0 .3.7.8.7 1 .2.4.2 1 .2 1.6 0 1.3-2 1-2.8 1l-1 .3h-.4l-3.2.4H36l-.7.2h-3.5l-3.3.3h-2.2c-.6 0-1 .5-1.4.5 0 .8 0 1 .7 1.3l1.3.6s.6.7.8.7l.2.3c.6.4 1 1 1.6 1l.8-.2 2-.6 1.2-.3h.8l2-.4 1-.3.6-.3h1.7l.8-.2 1-.5H43l.5-.4c1 0 .7 1.2 1 1.7v.8c0 .4-.3.5-.5 1zm15 .4c0 .5.5 1 1 1l1.4-1.4c.4-.5 1.5-2.5 2-2.5h1l1-.2 1-.6h1.2l.5-.3.4-.2c.7-.2 1.5-.4 2.2-.4H72.3l4.7-.6.8-.2 3.6-.4V30c0-.3-1-1.5-1.4-1.8l-1.2-1-1-1h-.3c-.8 0-1 1-1.8 1.3l-2.5.8-.8.2-1.6.5h-1l-.3.2h-1l-1.2.4h-.7l-.5.3h-1c-.2 0-.2-.4-.2-.6 0-.5 1-2.2 1.3-2.6.3-.4.7-.8.7-1.4 0-.5-1-.8-1.3-1l-.6-.6-1-.6-.8-.2h-1.6c-.3 0-.5.3-.5.6v.2l.4.5c.2.4 0 1 .2 1.3l.3.7c0 .8-.2 1.3-.4 2l-.2 1v1c0 .3-.3.8-.5 1l-.3.5-.3 1-.2.5v.8c0 .8-1.2 1.5-1.2 1.8zM41 57v-2.7c0-.3 0-.5.3-.5 1 .2 2.2 1 3.2 1s1.8-.5 2.8-.6L49 54l1.5-.4c1-.3 2-.4 3-.5H54.8l.8.8c0 .5-.3 1-.5 1.5l.3 1v.2s-.3.3-.5.3l-1 .3-.7.3c-1 .5-2.3.4-3.4.5H49l-.5.2h-1.8s-.8.2-1 .4H44l-.5.5c-.4 0-.7-.4-1-.4-.6 0-1 .6-1.4.6V57zm-.4-5v-3.6s0-.3.3-.4h.6c1 0 2 .8 3 .8 1.7-.3 3.5-.2 5-.7l.5-.3c.6-.3 1.4-.3 2-.4l1-.2h.5l.5.4.7.2.5.4v2.2c0 .2-.7.8-1 .8-.4 0-.7-.3-1-.3h-.4l-.6.3H51l-1 .3h-.4l-.5.3-1.7.3h-2.1c-.8.4-2.2.5-3 .6-.6 0-1 0-1.5.2V52zm0-7.3s.3-.3.3-.5V43c0-.3.3-.3.4-.3h.2l.5.3h1.2c.2 0 .7.5.8.5h.2c.5 0 1.2-.4 1.8-.4h1c.8 0 1.5-.4 2.2-.4h2c1-.2 2-.6 2.8-.6.3 0 .7 0 .8.2.2 0 .4.4.4.5l-.2.7v.3l.2 1c0 .3-.2.3-.6.6-.3.3-.6.6-1 .6h-.8c-.6 0-1-.3-1.8-.3l-1.4.3c-1.7.3-3.5.6-5 .7H43l-1 .2h-.7l-.4-.4c-.3 0-.4-.3-.4-.3v-1.6zm19.8 6l.3.3c-.2.3-.5.4-.7.4 0-.3 0-.8.4-.7zm-1-5c.3 0 .3.3 0 .3v-.3zM48 64.3h.2v.3l-.3-.2zm13-38.7c0-.2-.2-.2-.2 0zm-2 20h.2v.3H59v-.3zm6.8 108.5v.5l1.7 1 .8.3.4.2 1 1 1.8 1.2 2 2 1 1.2c.3.3.7.5 1.2.5h.2l.5-.6c.4-.6.5-.7.5-1.5l-.3-.6c0-.2.2-.4.3-.4.3 0 .4.3.4.6.7-.3.6-2 1-2.5v-.2c.2-.4.2-1.2.2-1.8 0-.7 0-1-.2-1.8V149v-1.5-2c0-.5-.4-1.4-.4-1.7v-10.6-1c0-1.2 0-2.2-.2-3.3V128v-1-3.7l-.2-1.4v-.4-1.7l-.2-1.4v-4l-.2-.6v-.4l.2-.6v-1.2l.2-.3v-.4l-.2-1v-2.8c1-1.2 1.8-1.6 1.8-3.3 0-1-1-1.8-1.8-2.3l-.7-.6v-.3c-.4-.4-.8-.5-1.2-.7h-.2s-.7 0-.8.3l-.2.7-.2.3c-.2.4-.6.7-1 1l-2.2 1c-.7.2-1.6 0-2.2.3l-1.7.8c-1 0-1.8.2-2.5.5H63l-1.2.4c-1 .3-2.3.7-3.5.8H58 58l-2-3.2c-.5-.7-1.3-1.5-2-2 0-.2-.3-.2-.6-.2 0 0-.4 0-.4.3v.4c1 .7 1 .7 1.4 1.6l.6 1.2.2.8.2.7.4.7v.5l.2 1v2.8l.4 4 .2 1.2v.3c0 .2-.2 1-.4 1.3l-.2.2-.3.6c-.3.7-.3 1-.3 1.6v.6c0 .3 1 1.4 1 1.7 0 0 .3.4.5.4l.5.3.5.4 1.2 1 .3-2.3s.3 0 .4-.3c.3-.3.7-.3 1.2-.3 0 0 .4.3.7.3 1 0 1-1.2 1.6-1.5l.3.2h.3l.4-.4h1.2l.5-.2h2c.4 0 .6-.6 1-.6h.4l1.2-.2h.6l.4-.2h.2l.8.3.5.2h1l.4.3c0 1 0 3 .4 3.7v1.2l-.2 2.2v.2l.2 1.7.2 6.3v5.3l.2 2.2V156c0 .2-.6.6-.7.6h-.7l-2.8-.7c-.7 0-1.4-.7-2-.8l-1.4-.4-1-.4h-.8zm-9.4 2c0 1.2.8 2 1.3 2.7 0 .2.6 1.6.8 1.7 0 .3.5.6.8.6h.2l.7-.3c.7-.3.7-.6.8-1.3v-1c0-1.4 0-2.8-.5-4.2v-6.7-1c0-.4 0-.8.4-1h4c.8 0 1.8-.8 2.7-.8h.6c.7 0 1.4 0 2-.2.3 0 1 0 1-.4l-2-1.6c-.2-.2-.7-1-1-1v-.4H68c-.7 0-2.4 1-3 1.3l-.7.6H63l-2 .4-.3-.3-.3-.4v-1.2l-.2-.7V138l-.4-1.5.2-1.7.3-.8v-.4V130l.4-.2.5-.2c0-.7-1.2-1.6-1.2-2h.2c0-.3.8-.6.8-.6.5 0 1 .2 1.5 0h2.2l.5-.2h2.3l1.2-.2v-.4c-.5-.2-1.5-1.3-1.5-1.3l-.4-.2h-.2l-.3-.7c-.5-.3-1.2-.8-1.8-.8-.5 0-1 .5-1.3.7-.6.2-1.3.2-1.7.8h-1.2l-.6.4h-1.2l-1.4.3-.5.3-.5.2-1.2.3H54l-1 .4-.6.3h-1.1l-1.5.3c-.7 0-1 .4-1.8.5l-1.8.2-7 1c-.6-.2-.7 0-1.3.2-1 0-2 0-2.7.3 0 .5.4.7.7.8l1.2.6.4.2.7.2.4.4c1 0 1.7-.4 2.4-.4h.4c.5.8.8 1.6 1 2.6l.2.8c0 .7.4 1 .6 1.8v3.1l-.2.8v1c0 .5 0 1.2.3 1.7V146c0 .4 0 2.5-.6 2.7H42l-2 .7c-.8 0-3.2.2-3.6.8.7 1 2.3 1.5 3.5 1.5h.7l1.8-.6 2.2-.6h.5l.7-.2.8-.3 1.2-.2.7-.3h.4l1.6-.4.6-.2 3-1h.6v-.7l.2-.6h.2l.5.7h2l.4.5v3.3L58 152v2.6c-.3.8-1.4.6-1.4 1.5zm-28.6 1.2c0 1.4 1 1.7 1.5 2.7v.3c.5.4.8 1.2 1.3 1.5h1.1l1-.4c.4-.3.4-1 .4-1l.2-1.2v-4.4l-.4-2-.2-.5v-6.8l.2-1-.2-.7V134l-.2-.3v-4-.8-3.8L32 124l.4-.2.7.2c1 .4 1.7.7 2.7.7h.4c0-.2 2-.3 2.3-.7l.3-.2 1.3-.4c1.8-1 3.7-1.8 5.8-2.4h.8c.4-.3.3-.6.7-.6h.7c.4 0 .8-.6 1.2-.7l1-.2.4-.2c1-.3 2-1 2.8-1.5v-.4c0-.4 0-.4-.5-.4h-1.3c-1 .6-1.8 1-3 1-.3 0-.5 0-.6-.3v-2.9c0-1 .2-2 .4-3v-.8-3.6c.3-.4.4-1.2.8-1.2s.4.3.7.3c.5 0 1-.4 1-1v-.2l-2.3-3c-.3-.3-.5-.6-.6-1l-.2-.7c0-.3-.2-.2-.4-.2-1.5 0-1.5 1.3-2.2 2.3-.4.7-1.7 1.2-2.5 1.5h-.2l-1 1c-.6.5-1.4.4-2 .6l-.7.3c-1.7.7-3.5 1-5.4 1.6h-.2v.3h-1.9l-4.6-4.6c0-.2-.6-.5-.8-.5-.2 0-.2 0-.2.2 0 1.2 1.3 2.6 2 3.7v.7l.6 1v1c.5 1.5 1 3 1 4.7l.4 4v3.9c.2.2.2.4.2.7l-.2 1.2V125l.2.4v2l-.2 4.3.2 1.6v2.5l-.2.7v1.7l-.2 1v4.2l-.2.7.2.7v2.3c0 3 .2 6-.4 8.8-.5.6-1.4.6-1.4 1.4zm18-13.2v-.6c.4-.7 1-.4 1.8-.7l1.6-.8h1.6c.8-.3 1.6-.8 2.4-1h1.3s.5-.5.7-.5c.4-.2 1 0 1-.5 0-.7-.6-1.2-1-1.6l-1-.8h-.3c-.8 0-2 1-2.4 1.2l-.8.3-.6.4h-.4l-.6.4c-.8.4-1.6 1-2.6 1h-.4l-.6-.7c-.2-.2 0-.6-.2-1s-.5-.7-.5-1.4v-.7l1-.3h1l2.8-1h.3l1-.4.5-.5h.5l.4.2.4-.2H54.2c.2 0 1-.8 1.2-.8h1.5c.3-.3.3-.4.3-.5 0-.2 0-.3-.2-.3h-.5c-1-.4-1.8-1.7-3-1.7-1 0-1.2.5-2 1-1.7.6-4 2-6 2l-.4-1v-1.3c0-.4-.3-.7-.3-1v-.2c0-.2.5-.5.7-.7 0-.2.7-.3.8-.3h.3l.4-.2h.6l.5-.2 2-.3.5-.2h1.8l.6-.4c.4 0 .8 0 1.2-.2.4-.2.8-.5 1.3-.5l.7.2.5.2c1 .5 0 4.4 1 5.2v2.2l-.2 1 .2 1.6V144l-.2.2c-.7.4-1 .6-2 .8H55l-.7.3h-.8c-.4.2-1 .7-1.2.7H51l-1 .2c-1 .5-2.2.6-3.2.7l-.3.3h-.2l-.2-.4c-.2-1-.2-2-.2-3zm12.8-24.7l.3-.3v-.4l-.4-.3v-1c0-.4-.3-.8-.3-1.3s.3-1 1-1h.9c.2 0 .5-.3.8-.3l1.2-.2h2.1l1-.5 1.5-.2h.3c.2 0 .5-.5.6-.5h2l.2-.2h1c.4 0 1-.6 1.4-.6h1l-.2-.4-.6-.5-.5-.4c-.7-.3-1-1.2-1.6-1.6h-.8l-.5.3h-.6c-.4 0-.5 0-.8.3l-.5.5v.4h-.5l-.4.4h-1.4s-.4.6-.6.6c-.5.4-1.8.3-2.5.6l-.8.4-1.5.3h-.4l-.2-.2c-.4-.8-.4-2-.4-3 0-.3 0-1 .3-1.2l1-.6.5-.5c.3 0 .7.5 1.2.5s.6-.6 1-.6h1c.8 0 1-.6 2-.6.5 0 1 0 1.2.2l.8-.7c.3.2.7.2 1 .2 1 0 2-.6 3-1h.7c.4 0 1-.4 1.8-.4h.3c.4.3.3.8.3 1v.6l.2.6v3.2c0 .4.5.7.5 1v.4l-.2.5-.2 3.2c0 .6 0 1-.5 1.6-.7 0-1.6-1-2-1h-1l-.7.5-1.4.3c-.8 0-1.7.5-2.4.7h-1.2l-.7.4h-.4l-.8.2c-.2 0-.7.4-1 .4H62c-.6 0-1 .3-1.4.5l-1 .2-.4.2c-.4 0-.4-.3-.4-.7zm-26.5 0c0-.7.4-1.6 1-2l.8-.2 1.5-.3 2.2-.7h.7l.4-.2h.8l.8-.6h1.6c1-.7 2.3-.5 3.4-1.2 0-.3-.4-.6-.5-.7l-.8-.4c-.3 0-.7-.7-.8-.7-.3 0-1-.8-1.2-.8l-.4.3-1.4.4-.5.2-.4.5c-.6 0-1.4.3-2 .6-.2 0-.8.2-1 .4-.3.3-.3.4-.8.5-.2.2-1.5.6-1.6.6h-.4l-.8.3h-.3c-.5 0-.8-1.2-.8-1.6v-3c0-.7.8-.3 1.2-.4l2.7-1 .5-.3 1.4-.2.4-.2h.7l.5-.3h.2l.8-.2c.2 0 .6-.5.7-.5 0 0 .8-.7 1-.7l.5.2c.5 0 1.7-1 2.3-1l.4.2c.3 0 .7 0 1 .3v1.2l-.3.4v1l-.2 1v2.9l-.2.8c0 2 .2 3-.5 4.7-.2.7-2 .8-2.7 1-.7.3-1.4 1-2.2 1-.7 0-1.3.4-2 .7-.7 0-1.3 0-2 .4-.5.3-.6.8-1.4.8h-1c-.2 0-.4.3-.7.3h-.2c-.6-1-.7-2.2-.7-3.4zm31.2 5.3c0-.2 0-.6.4-.6 0 0 .3 0 .3.2l-.4 1c-.4 0-.4-.3-.4-.6zm11.6 32.6h.4c.3 0 .6 0 .7.3l-.2.3c-.6 0-.8 0-1-.6zm1-50.7c0 .4 0 1-.7 1 0-.6.3-1 1-1zM74.5 157v.2c0 .2 0 .5-.5.5 0-.3 0-.7.4-.7zm-28.8-28.3h.5v.4s-.4 0-.4-.3zm-7.3-6.2h.2c.2 0 .2.2.2.3 0 0-.4 0-.4-.3zm37.7-20h.2v.3c0 .2 0 .2-.2.2v-.5zm-.2 56.7v-.2c.2 0 .2.3.2.4 0 0-.2 0-.2-.2zm0-47.4l.2-.2.2.2-.2.2v-.2zM45 144v.2c0 .2 0 .2-.3.2 0-.2 0-.3.2-.3zm2.8-38.2h.2v.2h-.2v-.2zm21 2v.3zm7.3 13.6v.2-.2zm-28 87c0-2.4 2-4.3 4.5-4.3s4.4 2 4.4 4.5-2 4.4-4.5 4.4-4.5-2-4.5-4.5zm-2 0c0 3.7 3 6.5 6.5 6.5s6.3-3 6.3-6.5-2.8-6.3-6.3-6.3c-3.6 0-6.4 2.8-6.4 6.3z" fill="#F1F1F1"/>
    <path d="M180.8 75.8c0 .6.7 1.4 1.3 1.7l1.2.6.8.8 2.3 2.3c1 1.2 2 3.4 4 3.4.3 0 .6 0 1-.4.6-1 1-1.8 1-3 0-.6-.4-1.3-.4-2v-5.5V72l-.3-.5v-2.7-4.3l-.2-.4s.4-1 .7-1c0 0 .3.4.5.4l1.2 1.3 1.2.8c.8.7 1.2 1.5 2 2.2.4 0 .7.5 1 .8 1 1.2 1.8 2.4 3 3.5h.2c.3 0 .4-.2.4-.4V69 67c0-.7-1.6-1-2.3-1.5-1.2-.7-2.4-1.7-3.8-2l-.6-.2-.4-.3c0-.2-1-.6-1.4-.7h-.3l-.6-.5-.8-.2V60.2v-1c.6-1.3 3.7-1 4.7-1.3h1.4l.5-.2 2.3-.3h.8l.7-.3h2.5l1.3-.4v-.2c0-.2 0-.4-.4-.6 0-.2-1-1.2-1-1.3l-.4-.4-.2-.2-.7-.6c-.2-.2-.5-1-1-1-.4 0-.3.5-.4.8-.2.2-.6.2-1 .4l-.8.3c-.2 0-.7.5-.8.5h-.4c-.7.3-1.4.3-2 .5h-1l-.8.5c-1 .5-2 .5-3 .5-.5-.2-.5-1.2-.5-1.4l.2-.7v-.2l-.2-.7.3-2v-1.4l1-1h.5c2 0 4-.7 6-.8h1.4l1-.4 2.4-.3h1.3c.3 0 .4-.2.4-.5 0-.5-.4-.8-.8-1.2-.5-.4-2.4-2-2.7-2h-.4l-.6.5c-.4.2-1 .2-1.4.6-.2 0-.7.5-1 .5h-1.4l-.5.2-.7-.2v-.3c0-.8.7-1.7 1-2.6l.4-1.3.4-.8c.3-.3 1-1.7 1.2-2l1-.5V37c0-.2-.6-1-.7-1.5l-.2-.3v-.3c0-1 6-.6 6-1.2 0-.5-.4-.7-.7-1l-.6-.6c-.3-.5-1.6-1.7-1.7-1.8-.2-.2-1-.4-1-.6h-.2c-.4 0-.4.6-.8 1-1 .6-1.8.7-2.8 1l-1 .5H195l-1.3.3-.5.2h-.2c-.5 0-.3-.2-.3-.6l-.2-1v-.4l.2-.6v-1l.2-2.3c0-.5 1.3-.3 1.3-1.2h-.2c-1-.8-1.7-1.4-2.8-2-.3 0-1.5-.8-1.7-1l-.5-.3-.3-.2h-2.4c0 1 .7 1.3 1.3 2 .4.4.7 1 1 1.7v2.3l.3 1V31c.2.7.5 1.3.5 2v.5h-1.8c-.4.6-1 .5-1.6.6l-1 .4c-.7 0-1.4 0-2.2.3h-1.3l-.4.2-.5.2h-.8l-1 .2H176c-.6.4-1.7.2-2.6.2h-1-.5c0 1.3 3 2 4 2.4h.2l.5.4h2c.8 0 1.4-.3 2.2-.3l1.5 1.5c0 .7.3.8.7 1.4l1.6 2.7.4.5.3.3.6 1c.2.5.5 1 .5 1.5l-.4.5c-.2.3-.2.2-.6.2-1.4 0-3 .3-4.3.7h-1.8l-.7.3c-1 .4-2.3.2-3.2.6h-.3c-1 .6-2 .6-3 .7h-.3c.7 1 2.2 1.4 3.2 2l.7.5h1.2l.8-.4h1.1l.6-.3c1-.3 2.2-.6 3.3-.7l1.4-.3 1-.4h2.2c.4.8 1 2 1 3v1.5l.3.6v.3c0 .3-.5.4-.7.5-.3.2-1.5.4-1.7.4h-.5l-1 .5-.8.3c-1 .3-2 .3-2.8.6h-.8c-1.3 0-2.7.6-4 .8l-.4.2h-1l-.7.2-.5.2h-1.4l-1 .3c-.2 0-.8.3-.8.7 0 1.4 1.8 1.2 2.6 1.4l1.6.2h.4l1.3-.2.7-.3h1l1.3-.4h.5l.7-.2h1.1c.3-.3 1-.4 1-.4h.7l.5-.3h.8c1 0 2.2-.5 3.4-.5 0 .2.3.2.3.5v5.8l-.2.5v.4l.2 1.8V71l.2 1v5.5c0 .3-.3.7-.5.7-1 0-1.6-.7-2.4-.8h-.8c-.6 0-1-.7-1.4-.7h-.7c-.7-.2-1.5-.7-2-1h-.2zm37.2 3.7c0 1 1.3 2 1.8 2.7l1 2 .3.2h.4c1 0 2-1 2-2v-6.6-.8c-.3-2.3 0-4.6 0-7l-.4-8.6V59v-1-1-1.7V53c0-1 .7-1.3.7-2.2 0-.2-.4-.4-.4-.8s0-.6.5-.6c1 0 2.3 0 3.5-.2l.7-.3c1.4-.3 2.7.4 2.7-1.5v-.3l-.5-.5V46s-1-1-1-1.4c-.3 0-.7-.6-1-.6-.4 0-.4 1-.7 1l-2 1c-1 .3-1.7.7-2.8.8l-2 .3h-.6l-.3-.5-1-.5-.7-.4v-.2l-.6-.8h-.2c0 1.3.7 1.7.7 2.8v.4l-.4.2h-1l-.2.2h-1l-.6.2h-1.4c-.2 0-.8 0-.8-.4v-3.4-6.8c-.2-.5-.2-1.2-.2-1.7 0-1 2-1.2 2.6-1.5l1-.4h.7c1.2-.3 2-1 3.2-1l.6-.2 1.4-.7 3-1c.3 0 1.7-.3 2-.5.4 0 1 0 1-.5 0-.4-.6-.7-1-1-1.2-1.5-2.5-3-4-4.3h-.3c-.4 1-.4 1.8-1 2.7-.3.2-1.6 1.5-2 1.7l-1 .8-1 1h-.5l-.3.2c-.8.5-1.3 1-2 1.3-1 .6-1.6 1.4-2.6 1.4-.2 0-.4 0-.5-.2-.8-.7-1.5-1.8-2-2.5l-1-.6-1.8-1.8c-.6-.2-1-.5-1.2-1h-.2v.8l.2.3v.7c0 .6.8 1 1 1.6l1 2.5.6 1.4c.3.6 0 1.4.4 2 0 .3.4 1 .4 1V40l.2 1.2v8.7l-.2.4v1.2l-.2.5c-.2 1.5-.2 3-.6 4.4v.6l-.2 1.4-.4.7-.3 1.7c-.5 1.6-.7 3.3-1.3 5l-.3 1c0 .6-.3 1-.4 1.6l-.3 1.2c0 .2-.6 1-.6 1v.6l-.2.5-.3.4-.3.7c-.3.7-.3 1.2-1 1.8l-1.6 3.3-.3.4v.5l-.3.6-.5.5-1.6 1.5-.2.5c0 .2-.5.6-.5.7-.2.3-.6.3-1 .6v.4c-.6.4-1.3.4-1.3 1 1.4 0 2.2-1 3-1.8v-.2c.8-.5 1.7-.8 2.2-1.7l2.5-2.6c.3-.6.5-.8 1-1.3.4-.5.7-1.4 1.2-2l.4-.4.6-.8c.4-.4.4-1 .6-1.7 1.5-3.3 2.4-7 3.2-10.6l.7-3.3 1-3.3c0-.7.2-2.3.7-3h.5c1.6-.5 3.3-1 5-1h1.5v4l.4 1.6v5.4l.2.6v.7c0 2-.3 3.7-.3 5.5v3.8c-.2 1.6 0 3.5-.6 5.2-.3.7-1.4 1.5-1.4 2zM186.3 41c0-.5-.6-.7-1-1v-.5l-.6-.5-.3-.7v-.5s0-.3.3-.3c1-.6 2.2-.7 3.3-1l1.2-.4h1.2l1-.2c1-.3 1.7-.4 2.7-.4h.8l.5.5v2.7c0 1-.4 1.8-.5 2.7v1c-.3 1.8-.4 3.6-2.6 4h-1.4c-.6 0-1 .4-1.4.4-.7 0-1-.8-1-1.4l-.2-1-.2-1.3-.5-1c-.2 0-1-1-1.2-1zm-12.7 34.7c0 .5.2.8.3 1.3l.8 2c.2.7 1 1 1.7 1.3h.2l.4-.6.2-1 .4-.5.3-.4.2-.6.6-.8v-.6c.8-1.7 1.7-3.8 2-5.7v-1.6l.4-1.4v-.4c0-.7 0-1-.4-1.8-.4-.7-.8-1.4-1.5-1.8h-.5V66l-.3 2.2-.3.7v.6c-.3.3-.8.5-.8.8v.6l-.5.7c-.3.4-.3.8-.8 1.2l-.6.6c-1 .7-2 .7-2 2zM192.4 57l.5-.4v1c-.3 0-.6-.2-.6-.4zm.7-10.5h.8s-.2.5-.6.5v-.5zm-17.6 30l.3-.2c.2 0 .3 0 .3.2s0 .3-.3.3c0 0-.3 0-.3-.3zm11.2-29.3c.2 0 .3.2.4.3v.2c-.2 0-.4-.3-.4-.5zm3 13.7v-.2h.2v.3h-.3zm-7.3-25c.2 0 .2.2 0 .2V36zm11.5-2.3h-.2.2zM183.6 36zM214 154v.5l1.7 1 .8.4h.4l1 1 1.7 1.2 2 2 1 1.2c.3.3.7.6 1 .6h.4l.7-.6c.4-.5.5-.7.5-1.5l-.3-.5c0-.3 0-.5.2-.5.3 0 .4.4.4.6.7-.2.6-2 1-2.5.2-.6.2-1.4.2-2 0-.7 0-1-.2-1.7V149v-1.5-2l-.4-1.6V133v-1c0-1.2 0-2.2-.2-3.2V128v-1-3.7l-.2-1.4v-.4-1.7l-.2-1.3v-4l-.2-.7v-.4l.2-.6v-1.2l.2-.3v-.4l-.2-1v-2.7c1-1.3 1.8-1.7 1.8-3.4 0-1-1-1.8-1.8-2.3l-.7-.5-.2-.5c-.3-.4-.7-.5-1-.7h-.3s-.7 0-.8.3l-.2.7-.2.3-1 1-2.3 1c-.7.2-1.6 0-2.2.3l-1.7 1c-.7-.3-1.6 0-2.3.3h-1.2l-.4.2-1 .2c-1 .3-2.3.7-3.5.8h-.5l-2-3c-.5-.8-1.4-1.7-2-2.2h-.6s-.4 0-.4.2v.2c1 .7 1 .7 1.4 1.7l.6 1.2.2.8v.7c0 .2.6.5.6.7v.5l.2 1v2.8l.4 4 .2 1.3v.3c0 .2-.2 1-.4 1.3l-.2.3-.3.4c-.4.7-.4 1.2-.4 1.7v.6l1.2 1.7s.2.4.4.4l.4.3.5.4 1 1 .5-2.2.4-.5c.2-.2.6-.2 1-.2l1 .2c.8 0 .8-1.2 1.5-1.5l.3.2h.3l.6-.3h1.2l.5-.2h1.9c.4 0 .6-.5 1-.5h.4l1.2-.3h2l.5.3h1l.3.3c0 1 0 2.8.4 3.6v1.2l-.2 2.2v.3l.2 1.5V140l.4 2.2V156c0 .3-.6.6-.7.6h-.7c-1-.2-2-.3-3-.7-.5 0-1.2-.7-2-.8l-1.2-.3-1-.5h-.8zm-9.4 2.2c0 1 .8 1.8 1.3 2.6 0 0 .5 1.5.7 1.6 0 .3.5.6.8.6h.2l.7-.3c.7-.3.7-.5.8-1.2v-1c0-1.5 0-3-.5-4.3v-6.7-1c0-.4 0-.7.4-1h4.2c.8 0 1.8-.8 2.7-.8h2.5c.3-.3 1 0 1-.6l-2-1.5v-.2c-.2 0-.7-.8-1-1v-.2h-.3c-.7 0-2.4 1-3 1.3l-.7.6h-.8l-.6.2-1.7.2-.4-.2c0-.2-.4-.6-.4-.6v-1.2l-.2-.7V138l-.4-1.5.2-1.6.3-1v-.3-3.9h.4l.4-.3v-.2c0-.5-1.2-1.5-1.2-2h.2c0-.2.8-.4.8-.4.5-.3 1 0 1.5-.3h4.9l1.2-.3-.2-.4c-.4-.2-1.4-1.2-1.4-1.2l-.4-.3h-.2l-.3-.7c-.5-.2-1.2-.8-1.8-.8-.5 0-1 .6-1.3.7-.6.2-1.3.2-1.7.8h-1.2l-.6.4h-1.3l-1.4.3-.6.3-.5.2-1.2.4h-.7l-1.2.2-.4.3h-.7l-.5.2H198c-.7 0-1 .4-1.8.6h-1.8l-7 1c-.6 0-.8.2-1.3.4-1 0-1.7 0-2.5.3 0 .5.4.7.7 1l1.2.3.4.3h.7l.4.4c1 0 1.5-.4 2.2-.4h.4c.5.8.8 1.6 1 2.7l.2.8c0 .7.4 1 .5 1.8v.8l.2.4v.4l-.2.5v2.8c0 .5 0 1.2.2 1.7v3.3c0 .5-.2 2.6-.6 2.7h-1l-2 .7c-.7 0-3 .2-3.5.8.7 1 2.4 1.5 3.5 1.5h.9l1.6-.5 2.3-.7.4-.2h.7l1-.3 1.2-.2.7-.3h.3l1.5-.4.5-.2 3-1h.7v-.6l.2-.7.7.7h2l.3.3v3.3l-.3 1.2v2.8c-.3.7-1.4.4-1.4 1.4zm-28.6 1c0 1.5 1 1.7 1.5 2.7v.3c.4.4.8 1.3 1.3 1.5.2.2.4.2.7.2h.4l1-.6c.2-.3.2-.8.2-1l.2-1.2v-2l-.2-.6v-1.8l-.2-2-.2-.5v-6.8l.2-1-.2-.6V134l-.3-.4.2-1.2v-2.8l-.2-.8.2-1.2v-.2l-.2-.6v-1.8l-.2-1 .2-.4h.2l.5.3c1 .4 1.7.8 2.7.8h.3c0-.3 1.8-.4 2.2-.7l.3-.2 1.2-.4c2-.8 4-1.8 6-2.4h.8c.4-.2.3-.6.7-.6h.7c.4 0 .8-.6 1.2-.7h1l.4-.3c1-.4 2-1 2.8-1.5v-.5c0-.5 0-.5-.5-.5-.3 0-.7 0-1 .2-1 .4-2 1-3 1-.4 0-.6 0-.7-.5v-2.9c0-1 0-2 .3-3v-.8-3.6c.3-.3.4-1.2.8-1.2s.4.4.7.4c.6 0 1.2-.5 1.2-1v-.3l-2.3-3c-.4-.3-.6-.6-.7-1l-.3-.7c0-.3-.2 0-.4 0-1.5 0-1.5 1-2.2 2-.4.8-1.7 1.3-2.5 1.6h-.4l-1 1c-.5.5-1.3.4-2 .7h-.6c-1.8.7-3.5 1-5.4 1.6l-.2.2-.2.2h-1.7l-4.6-4.6c-.2-.2-.7-.5-1-.5v.2c0 1.3 1.3 2.7 2 3.7v.8c.3.4.4.5.5 1l.2 1c.4 1.5.8 3 1 4.6l.2 4.2v3.7c.2.3.2.4.2.7 0 .4-.3.8-.3 1.3v.8l.2.5v1.8c0 1.5-.3 3-.3 4.4l.2 1.6v2.6l-.3.5v1.7l-.2 1v4.2l-.2.7.2.7v2.3c0 3 0 6-.4 9-.5.4-1.4.4-1.4 1.3zm18-13.2v-.6c.4-.7 1-.4 1.8-.7l1.6-.8h1.6c.8-.2 1.6-.7 2.4-1h1.2l.7-.4c.5-.2 1.2 0 1.2-.6 0-.7-.7-1-1.2-1.5l-1-.8h-.2c-.6 0-1.7 1-2.2 1.2l-.8.2-.6.2h-.5l-.6.5c-.8.3-1.6.7-2.6.7h-.4l-.6-.6c-.2 0 0-.6-.2-.8-.2-.6-.5-1-.5-1.5v-.2l.2-.5 1-.3h1l2.7-1h.3l1-.4.4-.4h1.3l.3-.3.5.2h.2l.3-.3 1-.7h1.6c.2-.2.2-.3.2-.5s0-.3-.2-.3h-.5c-1.2-.4-2-1.6-3-1.6s-1.2.4-2 .8c-1.7.7-4.2 2-6 2l-.4-.7v-1.4-1.2l.6-.7.8-.3h.2l.5-.2h1.3c.6-.3 1.3-.3 1.8-.5l.6-.2h2l.5-.4c.6 0 1 0 1.4-.2.4 0 .8-.5 1.3-.5l.7.3h.5c1 .7 0 4.5 1 5.4v2.2l-.3.7v.3l.2 1.5v5.6h-.3c-.7.5-1 .8-2 1h-.7l-.7.2h-1c-.3.3-.8.7-1 .7H199l-.7.3c-1.2.4-2.3.5-3.3.7h-.4c-.2 0-.3-.2-.3-.3-.4-1-.4-2-.4-3zm12.8-24.6l.3-.4v-.3l-.2-.4v-1l-.3-1.2c0-.5.3-1 1-1h.9c.2 0 .5-.3.8-.3h1.2l.6-.3h1.5l1-.4h1.5l.3-.3.5-.3h2l.2-.2.5-.3h.5c.4 0 1-.5 1.4-.5h1l-.2-.4-.6-.5-.5-.4c-.5-.3-1-1-1.4-1.5h-.8l-.5.2-.7.2c-.4 0-.5-.3-.8 0l-.5.6-.2.3h-.3l-.4.4h-1.5s-.4.7-.6.7c-.5.5-1.8.3-2.5.7l-.8.3c-.5.2-1.2.4-1.7.4h-.3l-.2-.2c-.4-1-.4-2-.4-3.2 0-.3 0-1 .3-1.2l1-.6.5-.4c.3 0 .7.4 1.2.4s.6-.6 1-.6l1 .2c.8 0 1-.7 2-.7.5 0 1 0 1.2.3l.8-.7h1c1 0 2-.5 3-.7l.7-.3c.6 0 1.3-.4 2-.4h.3c.3.3.2.8.2 1v.6l.2.6v3.2c0 .5.4.7.4 1.2v.8l-.2 3.2c0 .7 0 1.2-.5 1.6-.8 0-1.7-1-2-1-.5 0-.8 0-1 .2l-.8.4H217c-.6.3-1.5.7-2.2.8l-1.2.2-.7.2c-.3 0-.5.2-.5.2h-.8c-.2 0-.7.4-1 .4h-.7c-.6 0-1 .4-1.4.6h-1l-.4.3c-.4 0-.4-.3-.4-.6zm-26.5 0c0-.7.2-1.7.8-2l1-.2 1.5-.4c.7-.3 1.5-.6 2.2-.7h.7l.4-.2h.8l.8-.5h1.5c1-.7 2.3-.6 3.4-1.3 0-.3-.4-.5-.5-.6-.3 0-.8-.5-1-.5 0 0-.5-.7-.7-.7-.2 0-1-.8-1-.8h-.2l-.2.3c-.4.3-1 .3-1.4.4l-.5.3-.5.4-2 .6c-.3 0-.8.3-1 .4-.3.3-.3.4-.8.6l-1.6.5h-.2l-.8.4h-.3c-.5 0-.8-1.2-.8-1.7v-3c0-.7.7-.3 1-.4 1-.2 2-.6 3-1l.4-.3 1.4-.2.4-.2h.7l.3-.3h.3l.8-.2.7-.5c.2 0 1-.7 1-.7l.6.3h.2c.4 0 1.6-1 2.2-1l.4.2c.3 0 .7 0 1 .4v1.2l-.3.3v4.9l-.2 1c0 1.7 0 3-.6 4.6-.2.7-2 .8-2.7 1-.7.2-1.4.8-2.2 1-.8 0-1.4.3-2.2.6-.5 0-1 0-1.7.4-.6.3-.7.8-1.5.8h-1c-.2 0-.4.3-.7.3-.6-1-.7-2.2-.7-3.3zm31 5.2c0-.2.2-.5.5-.5 0 0 .3 0 .3.3l-.2 1c-.4 0-.4-.4-.4-.7zm11.7 32.7h.4c.3 0 .6 0 .7.3v.2h-.2c-.4 0-.7 0-.8-.5zm1-50.7c0 .3-.2.8-.7.8 0-.5.2-.8.8-.8zm-1.4 50.4v.3s0 .4-.5.4c0-.3 0-.7.6-.7zm-28.8-28.2c0-.2.3-.2.5-.2v.5c-.2 0-.5 0-.5-.2zm-7.3-6.2v-.2h.3v.5s-.3 0-.3-.4zm37.7-20h.2v.2c0 .3 0 .3-.2.3v-.4zm-.2 56.6v-.2c.2 0 .2.4.2.5 0 0-.2 0-.2-.3zm0-47.4l.2-.2.2.2v.2h-.2v-.2zM193 144v.3h-.3s0-.2.2-.2zm2.8-38h.2-.2zm21 2zm7.3 13.5h.2zM197 206c0 2 1.4 3.7 3.4 3.8-1 3.3-3.7 5-4.5 5.6l.5 1c2-.6 7.8-4 8-10v-.4c0-2-1.7-3.8-3.8-3.8-2 0-3.8 1.7-3.8 3.8z" fill="#000"/>
  </g>
</svg>
