<svg viewBox="0 0 200 200" xmlns="http://www.w3.org/2000/svg">
  <g fill="none" fill-rule="evenodd">
    <path d="M99.77 21.786L25.497 47.924l11.736 97.307 62.614 34.415 62.936-34.88 11.733-97.304L99.77 21.787z" fill="#B3B3B3"/>
    <path d="M167.108 53.085L99.596 30.062v141.36l56.58-31.312 10.932-87.025z" fill="#A6120D"/>
    <path d="M33.832 53.5l10.057 87.026 55.705 30.897V30.06L33.832 53.5z" fill="#DD1B16"/>
    <path d="M118.18 105.315l-18.584 8.69H80.01l-9.21 23.03-17.125.317 45.92-102.157 18.585 70.12zm-1.797-4.375L99.72 67.95l-13.67 32.422h13.545l16.788.568z" fill="#F2F2F2"/>
    <path d="M99.595 35.195l.123 32.755 15.51 32.448H99.63l-.035 13.587 21.568.02 10.08 23.35 16.388.305L99.596 35.195z" fill="#B3B3B3"/>
  </g>
</svg>
