<svg viewBox="0 0 200 200" xmlns="http://www.w3.org/2000/svg">
  <path d="M107.594 29.78C118.752 15.07 134.264 15 134.264 15s2.308 13.827-8.777 27.147c-11.836 14.223-25.29 11.895-25.29 11.895s-2.526-11.185 7.397-24.263zM101.412 63.9c5.74 0 16.394-7.89 30.262-7.89 23.87 0 33.26 16.984 33.26 16.984s-18.366 9.39-18.366 32.176c0 25.704 22.88 34.562 22.88 34.562s-15.994 45.017-37.597 45.017c-9.92 0-17.635-6.686-28.09-6.686-10.653 0-21.225 6.936-28.11 6.936C55.92 185 31 142.298 31 107.972 31 74.2 52.095 56.484 71.88 56.484c12.863 0 22.845 7.418 29.532 7.418z" fill="#999" fill-rule="evenodd"/>
</svg>
