<svg viewBox="0 0 200 200" xmlns="http://www.w3.org/2000/svg">
  <defs>
    <radialGradient cx="54.701%" cy="52.771%" fx="54.701%" fy="52.771%" r="42.947%" id="a">
      <stop stop-color="#FFF" offset="0%"/>
      <stop stop-color="#FCE800" offset="19.02%"/>
      <stop stop-color="#EC8F27" offset="100%"/>
    </radialGradient>
    <linearGradient x1="50.033%" y1="40.182%" x2="50.033%" y2="-6.53%" id="b">
      <stop stop-color="#F68B1F" offset="0%"/>
      <stop stop-color="#FFF" offset="100%"/>
    </linearGradient>
    <linearGradient x1="23.113%" y1="2.836%" x2="49.169%" y2="48.674%" id="c">
      <stop stop-color="#FFF" offset="0%"/>
      <stop stop-color="#FEF6ED" offset="4.821%"/>
      <stop stop-color="#FBD0A5" offset="25.69%"/>
      <stop stop-color="#F9B26B" offset="44.42%"/>
      <stop stop-color="#F79D42" offset="60.34%"/>
      <stop stop-color="#F69028" offset="72.82%"/>
      <stop stop-color="#F68B1F" offset="80.33%"/>
    </linearGradient>
    <linearGradient x1="35.712%" y1="-87.453%" x2="58.427%" y2="187.144%" id="d">
      <stop stop-color="#FFF" offset="0%"/>
      <stop stop-color="#FEF6ED" offset="4.821%"/>
      <stop stop-color="#FBD0A5" offset="25.69%"/>
      <stop stop-color="#F9B26B" offset="44.42%"/>
      <stop stop-color="#F79D42" offset="60.34%"/>
      <stop stop-color="#F69028" offset="72.82%"/>
      <stop stop-color="#F68B1F" offset="80.33%"/>
    </linearGradient>
    <linearGradient x1="56.719%" y1="-4.377%" x2="51.04%" y2="67.743%" id="e">
      <stop stop-color="#FFF" offset="0%"/>
      <stop stop-color="#FEF6ED" offset="4.821%"/>
      <stop stop-color="#FBD0A5" offset="25.69%"/>
      <stop stop-color="#F9B26B" offset="44.42%"/>
      <stop stop-color="#F79D42" offset="60.34%"/>
      <stop stop-color="#F69028" offset="72.82%"/>
      <stop stop-color="#F68B1F" offset="80.33%"/>
    </linearGradient>
    <linearGradient x1="49.993%" y1=".354%" x2="49.993%" y2="99.773%" id="f">
      <stop stop-color="#F68B1F" offset="0%"/>
      <stop stop-color="#CB672F" offset="53.08%"/>
      <stop stop-color="#A1453F" offset="100%"/>
    </linearGradient>
    <radialGradient cx="50.374%" cy="60.571%" fx="50.374%" fy="60.571%" r="51.634%" id="g">
      <stop stop-color="#FFF" offset="0%"/>
      <stop stop-color="#FCE800" offset="13.34%"/>
      <stop stop-color="#EC8F27" offset="85.93%"/>
    </radialGradient>
  </defs>
  <g transform="translate(15 61)" fill="none" fill-rule="evenodd">
    <path d="M132.148 22.512L136 9.164l.53.066.4 14.012 7.172-11.887.664.332-3.387 13.48 10.16-9.628.53.464-6.84 12.22 12.352-6.576.398.465-9.828 10.094 13.68-3.12.266.53-12.086 7.106 14.01.53v.6l-13.545 3.717 13.48 3.985v.597l-14.012.2 11.887 7.437-.332.597L147.953 51l9.563 10.094-.332.597-12.086-6.97 6.44 12.284-.597.465-9.96-9.763 3.32 13.48-.663.4L136.53 59.5l-.198 13.88-.73.198-3.852-13.414-3.984 13.414-.73-.2V59.5l-.4-.133-7.702 11.62 3.32-13.48-10.16 9.563-.598-.465 6.973-12.085-12.486 6.44-.398-.464 9.828-9.894-13.68 2.988-.2-.53 12.153-7.107-13.878-.53-.267-.6 13.48-3.784-13.28-3.92.066-.663 13.944-.2-11.82-7.17.066-.665 13.68 3.453-9.696-10.227.532-.53 12.218 6.706-6.64-12.152.398-.465 10.227 9.828-3.322-13.68-.132-.2 8.1 12.087.134-14.078h.797l3.85 13.348z" fill="url(#a)"/>
    <path d="M170 67.668c0-13.348-10.824-24.238-24.238-24.238-5.38 0-10.36 1.793-14.41 4.78.53-2.523.796-5.18.796-7.835C132.148 18.062 114.086 0 91.773 0c-17.73 0-32.804 11.488-38.25 27.36-3.054-2.258-6.773-3.653-10.89-3.653-10.028 0-18.13 8.102-18.13 18.13 0 1.526.2 3.054.532 4.515C11.155 46.816 0 58.238 0 72.25c0 1.66.133 3.254.465 4.78H168.14c1.196-2.92 1.86-6.042 1.86-9.362z" fill="#F68B1F"/>
    <path d="M127.367 40.375c0 19.656-16.004 32.074-35.66 32.074-19.656 0-35.527-12.42-35.527-32.075C56.18 20.72 72.117 4.78 91.773 4.78c19.657 0 35.594 15.94 35.594 35.595" fill="url(#b)"/>
    <path d="M121.922 40.574c0 12.02-13.613 21.78-30.348 21.78-16.8 0-30.347-9.76-30.347-21.78 0-12.02 13.613-21.78 30.347-21.78 16.8.065 30.348 9.76 30.348 21.78zm-68.266-3.72c2.258 3.92-.597 9.896-6.375 13.216-5.776 3.32-12.35 2.856-14.608-1.062-2.258-3.918.598-9.895 6.375-13.215 5.844-3.387 12.35-2.855 14.61 1.062z" fill="#F68B1F"/>
    <circle fill="url(#c)" cx="42.766" cy="41.969" r="13.48"/>
    <path d="M47.016 72.184C47.016 60.496 37.52 51 25.832 51 14.145 51 4.648 60.496 4.648 72.184v.132h42.368v-.132z" fill="url(#d)"/>
    <path d="M165.285 67.47c0-10.693-8.633-19.325-19.324-19.325-10.69 0-19.323 8.632-19.323 19.324 0 1.526.2 2.987.53 4.382h37.653c.332-1.46.465-2.922.465-4.383z" fill="url(#e)"/>
    <path d="M166.148 72.516l-.73-1.46-.797-1.33L163.493 68l-1.13-1.46-1.327-1.66-1.394-1.462-1.593-1.527-1.46-1.26-1.728-1.196-1.66-.996-1.86-1.063-1.528-.797-1.593-.664-1.462-.398-1.46-.266-1.396-.266-1.726-.132-109.504.2-1.727.065-1.793.133-1.925.2-1.594.33-2.06.466-1.393.465-1.528.6-1.527.53-1.926.996-1.395.664-1.86 1.195-1.66 1.328-1.793 1.395-1.527 1.527-1.195 1.46-1.262 1.66-.93 1.662-.73 1.46-.4 1.33-.264 1.128h162.43l-.466-1.13z" fill="url(#f)"/>
    <path d="M134.54 45.023l14.675 19.192-.53.398-17.134-15.406L65.743 61.16l-.066-.597 61.16-14.08-33.668-11.42.398-.532 40.973 10.493z" fill="url(#g)"/>
  </g>
</svg>
