<svg viewBox="0 0 200 200" xmlns="http://www.w3.org/2000/svg">
  <path d="M57.264 102.345c-.213 1.635-.658 2.88-1.354 3.807-.97 1.227-2.442 1.994-4.493 1.994H50.22c-2.04 0-3.513-.705-4.136-1.87-.422-.873-.534-2.108-.315-3.75l.477-3.658c.258-1.966.885-3.408 1.913-4.406.996-.976 2.425-1.443 4.145-1.443h1.115c1.184 0 2.745.195 3.62 1.352.728.96.955 2.373.705 4.313l-.48 3.66zM53.686 89h-1.093c-7.776.083-11.838 3.315-12.697 9.506l-.513 4.015c-.328 2.767.166 4.84 1.504 6.345 1.655 1.855 4.55 3.197 8.948 3.243h1.09c7.61-.077 11.665-3.217 12.624-8.974h.01l.054-.413.51-4.008c.342-2.875-.16-5.018-1.537-6.562-1.66-1.863-4.543-3.106-8.9-3.15zm62.65 0h-1.095c-7.782.083-11.842 3.315-12.698 9.506l-.515 4.015c-.327 2.767.167 4.84 1.505 6.345 1.655 1.855 4.55 3.197 8.947 3.243h1.094c7.606-.077 11.66-3.217 12.62-8.974h.01l.053-.413.51-4.008c.34-2.875-.162-5.018-1.536-6.562-1.66-1.863-4.54-3.106-8.895-3.15zm3.576 13.345c-.217 1.635-.664 2.88-1.36 3.807-.966 1.227-2.443 1.994-4.49 1.994h-1.194c-2.045 0-3.513-.705-4.14-1.87-.42-.873-.53-2.108-.316-3.75l.48-3.658c.257-1.966.885-3.408 1.912-4.406.997-.976 2.424-1.443 4.148-1.443h1.112c1.183 0 2.75.195 3.62 1.352.727.96.956 2.373.706 4.313l-.478 3.66zm63.446-10.195c-1.657-1.863-4.542-3.106-8.897-3.15h-1.093c-7.78.083-11.842 3.315-12.696 9.506l-.512 4.015c-.33 2.767.162 4.84 1.503 6.345 1.656 1.855 4.545 3.197 8.95 3.243h1.088c7.607-.077 11.665-3.217 12.623-8.974h.01l.055-.413.512-4.008c.34-2.875-.162-5.018-1.54-6.562zm-5.32 10.195c-.215 1.635-.66 2.88-1.358 3.807-.967 1.227-2.442 1.994-4.492 1.994h-1.193c-2.04 0-3.513-.705-4.138-1.87-.426-.873-.53-2.108-.32-3.75l.483-3.658c.257-1.966.884-3.408 1.91-4.406.998-.976 2.43-1.443 4.15-1.443h1.113c1.18 0 2.744.195 3.62 1.352.725.96.956 2.373.706 4.313l-.48 3.66zm-42.09-6.53c.224 0 .427.02.617.055.74.134 1.215.497 1.5.813.543.603.798 1.473.694 2.387l-.818 6.718v.007l-.217 1.726-.014.118h.04l-.008.005h3.715c.233 0 .554-.017.935-.058 1.668-.178 4.408-.86 5.197-3.026.022-.06.04-.12.062-.18.174-.584.318-1.197.396-1.85l.317-2.347v-.004l.152-1.1c.117-.887.14-1.727.05-2.49-.257-2.164-2.83-2.848-4.455-3.03-.367-.04-.687-.054-.92-.054h-3.708v.004h-2.91l-.006-.013c-.878-.062-1.455-.208-1.785-.45-.79-.575-1.193-1.51-1.228-2.867l-.02-.68h.718l8.106.002.115.002h.953c4.92.044 8.18 1.038 9.97 3.042 1.344 1.512 1.844 3.548 1.524 6.225l-.184 1.417-.257 2.194c-.037.292-.086.816-.137 1.092-.233 1.42-.642 2.645-1.223 3.65-.653 1.127-1.515 2.02-2.624 2.734-.354.225-.746.424-1.157.61-.86.397-1.84.713-2.932.93-.33.063-.87.122-1.53.173-.77.06-1.7.09-2.653.104l-6.703.002h-.9c-1.658-.045-2.635-.33-3.168-.93-.098-.113-.18-.238-.245-.37-.178-.35-.244-.774-.185-1.29l.816-6.204.87-7.068h3.24zM35.442 107.637h-8.864l-.002.01c-1.204-.01-2.16-.11-2.902-.32-.747-.205-1.31-.533-1.678-.976-.28-.33-.47-.737-.575-1.215-.01-.044-.018-.092-.023-.137-.038-.21-.07-.424-.083-.66-.035-.564-.017-1.2.08-1.926l.444-3.388c.052-.398.13-.765.214-1.12.025-.096.06-.214.098-.366.005-.023.012-.05.02-.072.08-.283.17-.558.276-.812.025-.063.05-.125.078-.187.098-.216.214-.407.328-.6.11-.17.23-.334.362-.486.493-.582 1.195-1.037 2.09-1.36.884-.314 2.02-.47 3.47-.472h4.904l.01-.016c.898-.06 1.514-.208 1.908-.453.47-.29.864-.675 1.187-1.16.053-.074.09-.166.136-.245.247-.427.46-.907.616-1.475l.202-.695h-9.295l-.607.002c-1.098.01-2.11.096-3.058.237-5.516.823-8.483 3.833-9.187 8.928l-.496 3.873c-.316 2.667.16 4.666 1.45 6.116 1.498 1.68 4.06 2.852 7.867 3.038l6.702-.014c.902-.06 1.79-.104 2.18-.35.59-.36 1.048-.88 1.405-1.543.088-.16.17-.323.248-.503 0 0 .34-.793.496-1.654zm39.82.508l-.032.275c-.12.92-.587 1.786-1.282 2.388-.453.397-1.23.87-2.33.87h-3.308l.306-2.527.123-1.004 2.277-18.654h2.707c1.727 0 2.894.45 3.466 1.335l6.005 9.592 8.54-9.687c.742-.825 1.967-1.24 3.64-1.24h2.823l-2.317 18.653-.032.27c-.123.92-.587 1.785-1.282 2.39-.454.395-1.23.866-2.33.866l-3.188-.002 1.603-12.94-6.717 8.474c-.198.23-.82.922-1.575.93h-.053c-.71-.008-1.246-.714-1.443-1.03l-4.432-8.413-1.166 9.456z" fill="#D12138" fill-rule="evenodd"/>
</svg>
