<svg viewBox="0 0 200 200" xmlns="http://www.w3.org/2000/svg">
  <path d="M185 114.34V15H15v170h170v-8.68c-7.416-.065-13.266-1.81-17.55-5.24-4.368-3.494-6.552-8.297-6.552-14.41h11.674c.37 2.684 1.1 4.69 2.184 6.02 1.986 2.418 5.388 3.627 10.206 3.627H185V150.93l-4.605-1.037c-6.09-1.382-10.298-2.884-12.627-4.505-3.945-2.71-5.917-6.95-5.917-12.717 0-5.26 1.907-9.633 5.72-13.114 3.81-3.482 9.41-5.223 16.796-5.223.212 0 .424.002.634.006zm0 10.245v14.69l-1.428-.345c-3.892-.93-6.433-1.74-7.624-2.432-1.853-1.036-2.78-2.604-2.78-4.704 0-2.285.94-4.066 2.82-5.342 1.88-1.275 4.394-1.913 7.544-1.913.504 0 .993.014 1.468.045zm-128.577-2.398c4.765-4.837 10.827-7.256 18.187-7.256 9.848 0 17.048 3.244 21.602 9.728 2.514 3.64 3.865 7.296 4.05 10.963h-12.23c-.795-2.816-1.814-4.942-3.058-6.377-2.224-2.552-5.52-3.827-9.888-3.827-4.447 0-7.955 1.8-10.523 5.4-2.568 3.603-3.85 8.7-3.85 15.29s1.355 11.527 4.07 14.81c2.712 3.282 6.16 4.923 10.343 4.923 4.29 0 7.558-1.41 9.808-4.227 1.244-1.515 2.277-3.787 3.097-6.817h12.113c-1.06 6.405-3.766 11.614-8.12 15.627-4.356 4.013-9.935 6.02-16.738 6.02-8.42 0-15.037-2.71-19.855-8.133-4.818-5.448-7.227-12.916-7.227-22.404 0-10.258 2.74-18.165 8.22-23.72zm61.907 34.483c.37 2.684 1.098 4.69 2.184 6.02 1.985 2.418 5.387 3.627 10.205 3.627 2.884 0 5.227-.32 7.027-.957 3.415-1.222 5.123-3.494 5.123-6.816 0-1.94-.847-3.442-2.542-4.505-1.694-1.038-4.354-1.955-7.98-2.752l-6.196-1.395c-6.088-1.382-10.298-2.884-12.627-4.505-3.945-2.71-5.917-6.95-5.917-12.717 0-5.26 1.906-9.633 5.718-13.114 3.812-3.482 9.41-5.223 16.797-5.223 6.168 0 11.43 1.64 15.785 4.924 4.354 3.282 6.638 8.046 6.85 14.29h-11.754c-.212-3.533-1.748-6.045-4.607-7.533-1.906-.984-4.275-1.475-7.108-1.475-3.15 0-5.666.637-7.545 1.912-1.88 1.276-2.82 3.057-2.82 5.342 0 2.1.927 3.668 2.78 4.704 1.19.69 3.732 1.502 7.624 2.432l10.085 2.432c4.42 1.063 7.757 2.485 10.007 4.265 3.494 2.764 5.24 6.764 5.24 12 0 5.368-2.044 9.826-6.134 13.374-4.09 3.55-9.867 5.323-17.333 5.323-7.624 0-13.62-1.747-17.988-5.242-4.368-3.494-6.552-8.297-6.552-14.41h11.675z" fill="#2062AF" fill-rule="evenodd"/>
</svg>
