<svg viewBox="0 0 200 200" xmlns="http://www.w3.org/2000/svg">
  <defs>
    <radialGradient cx="17.997%" cy="25.996%" fx="17.997%" fy="25.996%" r="65.368%" id="a">
      <stop stop-color="#5FB0E2" offset="0%"/>
      <stop stop-color="#45A1D7" offset="9.123%"/>
      <stop stop-color="#2C93CD" offset="20.8%"/>
      <stop stop-color="#1888C4" offset="33.83%"/>
      <stop stop-color="#0B80BE" offset="48.76%"/>
      <stop stop-color="#027BBB" offset="67.24%"/>
      <stop stop-color="#007ABA" offset="100%"/>
    </radialGradient>
  </defs>
  <g fill="none" fill-rule="evenodd">
    <path d="M25.503 135.183c30.26-19.492 64.617-5.43 81.795 3.916-23.764-9.435-58.476-11.57-81.795-3.917zm87.492-16.2s15.22 7.745 29.46 6.5c14.33-1.247 18.603-6.32 18.603-6.32s-5.252 9.7-18.96 10.235c-13.705.534-29.103-10.058-29.103-10.414zm-11.66-49.13h12.817V82.67h-12.817V69.853zm15.398-11.748h17v17h-17v-17zm18.69 18.335h9.525v9.523h-9.524V76.44zm6.32 18.69h9.524v9.524h-9.524V95.13z" fill="#5FB0E2"/>
    <path d="M63.728 0c14.597 0 27.057 8.545 32.665 20.916H85c-4.984-6.23-12.728-10.146-21.45-10.146-8.545 0-16.11 3.827-21.184 9.88.268-.18.535-.446.802-.624 11.926-8.455 27.77.89 27.77.89s-15.043-4.36-25.278 2.76c-10.236 7.12-8.545 21.45-8.545 21.45s-.09-.178-.178-.534c0 .178.09.356.09.534-2.404-1.78-5.43-2.938-8.634-3.294-.356-2.047-.623-4.183-.623-6.408C27.86 15.844 43.88 0 63.728 0M17.89 80.906V77.88c9.435-7.032 26.88-16.11 47.885-9.524 31.864 9.97 52.068 23.586 76.722 17.445 24.566-6.14 26.79-19.58 26.79-19.58s-4.36 18.958-28.57 23.14c-24.21 4.185-46.55-.533-75.03-11.124-19.226-7.12-37.74-1.602-47.797 2.67m0-6.142c1.78-1.157 3.56-2.314 5.162-3.204-.8-.534-1.513-1.068-2.225-1.78-1.246-1.246-2.225-2.67-2.937-4.094v6.586l.178.178c.356.267.623.534.98.8-.446-.177-.802-.355-1.158-.622v2.136m0-30.706V32.843c2.314-.8 4.806-1.246 7.298-1.424-.09 1.245-.178 2.58-.178 3.915 0 2.225.178 4.36.535 6.497-2.76.178-5.34.98-7.655 2.226m0-11.215v11.215c-4.984 2.848-8.366 8.188-8.366 14.33 0 6.14 3.382 11.48 8.366 14.33v2.046c-2.047 1.335-4.005 2.85-5.607 4.095C5.073 74.23.356 66.31.356 57.23c0-11.303 7.298-20.916 17.534-24.387m0 32.932c-3.204-6.14-2.136-13.173-2.136-13.173s-5.34 12.372 2.136 19.76v-6.587m0 12.016c-4.895 3.65-7.654 6.676-7.654 6.676 0 .09 2.848-1.602 7.654-3.65v-3.025" fill="url(#a)" transform="translate(15 46)"/>
    <path d="M152.068 105.188h9.88v9.88h-9.88v-9.88zm14.152-17.623h17v17h-17v-17zm-44.503 8.545h9.524v9.524h-9.523V96.11zm33.377-19.314h9.524v9.523h-9.524v-9.524z" fill="#0088CF"/>
  </g>
</svg>
