<svg viewBox="0 0 200 200" xmlns="http://www.w3.org/2000/svg">
  <g fill="none" fill-rule="evenodd">
    <path d="M113.29 82.816h15.02v15.43h7.614c3.497 0 7.2-.616 10.492-1.85 1.647-.618 3.498-1.236 5.144-2.264-2.058-2.88-3.29-6.38-3.497-9.67-.413-4.733.617-10.906 3.702-14.61l1.646-1.85 1.853 1.44c4.73 3.91 8.847 9.258 9.465 15.226 5.76-1.646 12.55-1.235 17.488 1.645l2.058 1.235-1.028 2.057c-4.32 8.436-13.17 10.905-22.016 10.494-13.167 32.508-41.56 47.94-76.127 47.94-17.9 0-34.154-6.585-43.618-22.428l-.206-.206-1.44-2.675c-3.088-6.993-4.116-14.607-3.5-22.22l.206-2.262h12.962V82.816h15.02v-15.02H94.77V52.572h18.517v30.246z" fill="#3B4F56"/>
    <path d="M162.26 88.578c1.027-7.82-4.94-13.99-8.436-17.078-4.115 4.938-4.938 17.695 1.646 23.044-3.704 3.292-11.523 6.172-19.34 6.172H39.222c-.823 8.23.618 16.05 4.115 22.426l1.03 2.058c.616 1.235 1.44 2.264 2.262 3.498 3.908.206 7.612.412 11.11.206 6.583-.206 11.933-1.03 16.048-2.264.617-.205 1.235.207 1.44.618.206.617-.205 1.234-.617 1.44-.617.206-1.027.412-1.645.617-3.29.824-6.584 1.44-11.11 1.852h-.619c-1.645 0-3.703.206-5.555.206-2.057 0-4.116 0-6.584-.206 8.024 9.054 20.78 14.61 36.417 14.61 33.537 0 61.93-14.815 74.48-48.146 8.848.824 17.49-1.44 21.4-9.052-6.585-3.5-14.608-2.264-19.135 0" fill="#06A7D8"/>
    <path d="M162.26 88.578c1.027-7.82-4.94-13.99-8.436-17.078-4.115 4.938-4.938 17.695 1.646 23.044-3.704 3.292-11.523 6.172-19.34 6.172H44.778c-.412 12.757 4.32 22.426 12.756 28.188 6.584-.206 11.933-1.03 16.05-2.264.616-.205 1.234.207 1.44.618.204.617-.206 1.234-.62 1.44-.616.206-1.027.412-1.645.617-3.292.824-6.996 1.646-11.316 1.852l-.206-.205c11.316 5.76 27.982 5.76 46.91-1.44 21.193-8.23 40.944-23.66 54.73-41.56-.207.41-.412.41-.618.616" fill="#34B7EA"/>
    <path d="M39.222 110.798c.618 4.527 1.852 8.642 3.91 12.346l1.028 2.057c.617 1.236 1.44 2.264 2.262 3.5 3.91.205 7.613.41 11.11.205 6.585-.206 11.934-1.03 16.05-2.264.617-.204 1.235.207 1.44.62.205.616-.205 1.233-.823 1.44-.618.205-1.03.41-1.647.616-3.29.824-6.995 1.646-11.316 1.852h-.617c-1.646 0-3.703.206-5.556.206-2.057 0-4.32 0-6.583-.206 8.025 9.053 20.78 14.61 36.623 14.61 28.6 0 53.495-10.906 68.103-34.978H39.222v-.002z" fill="#118BBA"/>
    <path d="M45.806 110.798c1.646 7.82 5.76 13.99 11.728 18.106 6.584-.206 11.933-1.03 16.05-2.263.616-.205 1.234.207 1.44.618.204.617-.206 1.234-.824 1.44-.617.206-1.028.412-1.646.617-3.29.824-6.995 1.646-11.522 1.852 11.316 5.76 27.776 5.76 46.704-1.44 11.523-4.32 22.427-10.904 32.304-18.93H45.806z" fill="#0199C4"/>
    <path d="M79.754 119.645c2.06 0 3.704 1.647 3.704 3.704 0 2.056-1.645 3.703-3.704 3.703-2.057 0-3.702-1.647-3.702-3.704.205-2.058 1.645-3.705 3.702-3.705" fill="#D4EDF0"/>
    <path d="M79.754 120.674c.413 0 .618 0 1.03.205-.413.205-.618.617-.618.823 0 .617.412 1.027 1.028 1.027.412 0 .823-.205 1.028-.617.206.206.206.617.206 1.028 0 1.442-1.235 2.676-2.675 2.676-1.44 0-2.675-1.234-2.675-2.675.208-1.23 1.236-2.466 2.676-2.466M15.15 112.24h168.095c-3.703-1.03-11.522-2.265-10.288-6.996-6.583 7.613-22.632 5.35-26.746 1.645-4.527 6.584-30.863 4.115-32.508-1.03-5.556 6.585-23.25 6.585-28.806 0-1.85 5.145-28.187 7.614-32.507 1.03-4.115 3.703-20.163 6.172-26.747-1.646 1.028 4.73-6.79 5.965-10.493 6.995" fill="#3B4F56"/>
    <path d="M89.425 145.775c-9.053-4.32-13.786-10.08-16.666-16.253-3.293 1.027-7.408 1.644-11.934 1.85-1.852 0-3.5.207-5.556.207-2.263 0-4.527 0-6.995-.207 8.23 8.23 18.312 14.61 37.034 14.61 1.44-.208 2.674-.208 4.115-.208" fill="#C1DCDF"/>
    <path d="M76.052 135.283c-1.235-1.647-2.47-3.704-3.293-5.76-3.292 1.026-7.407 1.643-11.933 1.85 3.29 1.646 7.817 3.086 15.225 3.91" fill="#D4EDF0"/>
    <path d="M52.184 85.08h13.17v13.167h-13.17V85.08zm1.03 1.028h1.028v10.905h-1.03V86.108zm2.057 0h1.03v10.905h-1.03V86.108zm1.853 0h1.03v10.905h-1.03V86.108zm2.057 0h1.028v10.905H59.18V86.108zm2.057 0h1.03v10.905h-1.03V86.108zm1.852 0h1.028v10.905h-1.03V86.108zM67.204 70.06h13.168v13.167H67.204V70.06zm1.235 1.028h1.027v10.905H68.44V71.088zm1.85 0h1.028v10.905H70.29V71.088zm2.058 0h1.028v10.905h-1.028V71.088zm1.852 0h1.028v10.905H74.2V71.088zm2.057 0h1.028v10.905h-1.028V71.088zm2.057 0h1.03v10.905h-1.03V71.088z" fill="#01AAD0"/>
    <path d="M67.204 85.08h13.168v13.167H67.204V85.08zm1.235 1.028h1.027v10.905H68.44V86.108zm1.85 0h1.028v10.905H70.29V86.108zm2.058 0h1.028v10.905h-1.028V86.108zm1.852 0h1.028v10.905H74.2V86.108zm2.057 0h1.028v10.905h-1.028V86.108zm2.057 0h1.03v10.905h-1.03V86.108z" fill="#27C3ED"/>
    <path d="M82.43 85.08h13.168v13.167H82.43V85.08zm1.028 1.028h1.03v10.905h-1.03V86.108zm2.057 0h1.03v10.905h-1.03V86.108zm1.852 0h1.235v10.905h-1.028V86.108h-.207zm2.058 0h1.028v10.905h-1.028V86.108zm2.058 0h1.028v10.905h-1.027V86.108zm1.85 0h1.03v10.905h-1.03V86.108z" fill="#01AAD0"/>
    <path d="M82.43 70.06h13.168v13.167H82.43V70.06zm1.028 1.028h1.03v10.905h-1.03V71.088zm2.057 0h1.03v10.905h-1.03V71.088zm1.852 0h1.235v10.905h-1.028V71.088h-.207zm2.058 0h1.028v10.905h-1.028V71.088zm2.058 0h1.028v10.905h-1.027V71.088zm1.85 0h1.03v10.905h-1.03V71.088zM97.45 85.08h13.167v13.167H97.45V85.08zm1.234 1.028h1.03v10.905h-1.03V86.108zm1.85 0h1.03v10.905h-1.03V86.108zm2.06 0h1.028v10.905h-1.03V86.108zm1.85 0h1.03v10.905h-1.03V86.108zm2.058 0h1.028v10.905h-1.028V86.108zm2.058 0h1.028v10.905h-1.028V86.108z" fill="#27C3ED"/>
    <path d="M97.45 70.06h13.167v13.167H97.45V70.06zm1.234 1.028h1.03v10.905h-1.03V71.088zm1.85 0h1.03v10.905h-1.03V71.088zm2.06 0h1.028v10.905h-1.03V71.088zm1.85 0h1.03v10.905h-1.03V71.088zm2.058 0h1.028v10.905h-1.028V71.088zm2.058 0h1.028v10.905h-1.028V71.088z" fill="#01AAD0"/>
    <path d="M97.45 54.835h13.167v13.167H97.45V54.835zm1.234 1.028h1.03v11.11h-1.03v-11.11zm1.85 0h1.03v11.11h-1.03v-11.11zm2.06 0h1.028v11.11h-1.03v-11.11zm1.85 0h1.03v11.11h-1.03v-11.11zm2.058 0h1.028v11.11h-1.028v-11.11zm2.058 0h1.028v11.11h-1.028v-11.11z" fill="#27C3ED"/>
    <path d="M112.675 85.08h12.962v13.167H112.47V85.08h.205zm1.03 1.028h1.027v10.905h-1.028V86.108zm2.056 0h1.03v10.905h-1.03V86.108zm1.853 0h1.027v10.905h-1.027V86.108zm2.057 0h1.03v10.905h-1.03V86.108zm1.85 0h1.03v10.905h-1.03V86.108zm2.06 0h1.028v10.905h-1.03V86.108z" fill="#01AAD0"/>
  </g>
</svg>
