<svg viewBox="0 0 200 200" xmlns="http://www.w3.org/2000/svg">
  <path d="M26.542 46c-1.347 0-2.616.233-3.818.71l24.058 24.768L71.107 96.69l.443.534.71.71.71.71 1.42 1.51 20.863 21.392c.347.216 1.355 1.148 2.142 1.543 1.014.504 2.11.973 3.24 1.013 1.223.042 2.47-.307 3.57-.84.823-.402 1.19-.975 2.144-1.714l24.145-24.945 24.413-25.124 23.524-24.233c-1.51-.818-3.18-1.244-4.97-1.244H26.54V46zm-7.37 3.017C16.61 51.447 15 55.102 15 59.227v81.315c0 3.338 1.07 6.372 2.84 8.698l3.373-3.196 25.123-24.413 22.283-21.57-.445-.532-24.413-25.124-24.413-25.21-.177-.177zm162.456.8l-23.79 24.59L133.51 99.53l-.443.444 23.168 22.458 25.123 24.414 1.51 1.42c1.352-2.17 2.13-4.844 2.13-7.724V59.226c0-3.676-1.273-7.01-3.372-9.408zm-110.17 53.174l-22.19 21.573-25.212 24.413-3.196 3.108c1.685 1.085 3.602 1.775 5.682 1.775h146.92c2.5 0 4.766-.96 6.658-2.486l-1.597-1.597-25.21-24.413-23.17-22.37-20.862 21.48c-1.127.75-1.883 1.58-2.985 2.09-1.775.82-3.718 1.513-5.673 1.484-1.96-.03-3.883-.798-5.642-1.66-.883-.436-1.355-.868-2.39-1.734L71.46 102.99z" fill="#4884E1" fill-rule="evenodd"/>
</svg>
