<svg viewBox="0 0 200 200" xmlns="http://www.w3.org/2000/svg">
  <path d="M168.498 144.967c7.265 3.736 11.832 7.784 13.7 12.143 1.868 4.36 2.802 8.614 2.802 12.765 0 5.19-3.217 8.718-9.652 10.587-2.49.83-5.5 1.453-9.03 1.868-3.528.415-7.68.622-12.454.622H42.088c-8.095 0-14.634-.83-19.615-2.49-4.982-1.66-7.473-5.19-7.473-10.587 0-4.15.934-8.406 2.802-12.765 1.868-4.36 6.435-8.407 13.7-12.143l18.68-9.34c-4.773-4.36-8.77-9.756-11.986-16.19-3.217-6.436-5.812-12.922-7.784-19.46-1.972-6.54-3.373-12.714-4.203-18.526-.83-5.81-1.247-10.274-1.247-13.388v-2.49c0-6.435.26-12.87.78-19.305.518-6.434 2.334-12.04 5.447-16.813 1.87-2.906 4.826-5.137 8.874-6.694 4.048-1.557 8.407-2.802 13.077-3.736 4.67-.934 9.238-1.505 13.7-1.713 4.463-.206 8.148-.31 11.054-.31h42.033c2.49 0 6.07.104 10.74.31 4.672.21 9.498.728 14.48 1.558 4.98.83 9.703 2.076 14.166 3.736 4.463 1.66 7.628 3.944 9.497 6.85 3.113 4.774 4.93 10.38 5.448 16.813.52 6.435.78 12.87.78 19.304v2.492c0 3.114-.417 7.577-1.247 13.39-.83 5.81-2.23 11.986-4.202 18.524-1.972 6.54-4.567 13.025-7.784 19.46-3.217 6.435-7.213 11.83-11.987 16.19l18.68 9.34zm-136.062 1.868c-6.435 3.32-10.638 6.85-12.61 10.586-1.972 3.738-2.958 7.89-2.958 12.455 0 2.284 2.595 3.685 7.784 4.204 5.19.518 10.794.777 16.813.777h38.608c-.622-.623-.934-1.453-.934-2.49 0-1.04.414-1.87 1.245-2.492-.208-.415-.416-.674-.623-.778-.208-.104-.415-.26-.623-.467-1.04-1.453-1.04-3.217 0-5.293l4.047-5.916c.83-1.66 2.18-2.49 4.047-2.49h25.843c1.868 0 3.113.83 3.736 2.49l4.048 5.917c.83 1.66.83 3.425 0 5.293l-1.245 1.245c.83.623 1.246 1.453 1.246 2.49 0 1.04-.31 1.87-.933 2.492h35.183c8.925 0 15.67-.31 20.238-.934 5.19-1.038 7.784-2.387 7.784-4.048 0-4.566-.986-8.717-2.958-12.454-1.972-3.735-6.175-7.264-12.61-10.585l-19.927-9.963c-.415-.415-.622-.727-.622-.934 0-.415.103-.623.31-.623 4.775-4.15 8.823-9.393 12.144-15.723 3.32-6.33 5.966-12.87 7.938-19.616 1.972-6.746 3.373-13.025 4.204-18.837.83-5.813 1.245-10.172 1.245-13.078v-2.49c.208-6.228.052-12.507-.467-18.838-.52-6.33-2.23-11.78-5.137-16.346-1.453-2.075-3.84-3.84-7.16-5.293-3.323-1.453-7.163-2.646-11.522-3.58-4.358-.934-9.028-1.61-14.01-2.024-4.98-.414-9.86-.622-14.633-.622H77.894c-2.076 0-5.293.104-9.652.31-4.36.21-8.874.676-13.544 1.403s-9.03 1.87-13.077 3.425c-4.047 1.557-7.005 3.685-8.873 6.383-2.906 4.567-4.618 10.016-5.137 16.346-.52 6.33-.675 12.61-.467 18.837v2.492c0 2.906.415 7.265 1.245 13.077.83 5.81 2.232 12.09 4.204 18.836 1.972 6.746 4.618 13.285 7.94 19.616 3.32 6.33 7.368 11.572 12.142 15.723.208 0 .31.208.31.623 0 .207-.206.52-.62.934l-19.928 9.963zm124.542-28.956c0 .622-.31.933-.934.933H43.956c-.623 0-.934-.31-.934-.934V35.992c0-.623.31-.934.934-.934h112.088c.623 0 .934.31.934.933v81.886zM44.89 36.926v80.018h110.22V36.927H44.89zm50.128 90.915c0-3.32 1.66-4.98 4.982-4.98 3.32 0 4.982 1.66 4.982 4.98 0 3.322-1.66 4.982-4.982 4.982-3.32 0-4.982-1.66-4.982-4.982zm8.096 0c0-1.868-1.038-2.802-3.114-2.802-2.076 0-3.114.934-3.114 2.802 0 2.076 1.038 3.114 3.114 3.114 2.076 0 3.114-1.038 3.114-3.114zm-70.99 25.22c-.415 0-.83-.31-1.245-.934 0-.623.207-.934.622-.934l18.058-9.963.312-.31h100.256c.208 0 .312.103.312.31l18.058 9.964c.415 0 .623.31.623.934-.207.623-.622.934-1.245.934H32.125zm132.015-2.18l-14.323-7.783H50.183l-14.322 7.783h128.28zm-83.444 16.503c1.038 1.037 2.18 1.556 3.425 1.556h31.76c.414 0 .985-.154 1.712-.466.726-.31 1.297-.674 1.712-1.09.623-1.037.52-1.97-.31-2.802l-3.738-6.227c-.622-1.038-1.35-1.556-2.18-1.556H87.235c-.622 0-1.453.517-2.49 1.555l-4.048 6.227c-.415 1.038-.415 1.972 0 2.803zm35.183 7.472c.83 0 1.556-.31 2.18-.934.62-.623.933-1.142.933-1.557 0-.207-.208-.52-.623-.934-.415-.415-1.245-.622-2.49-.622H84.12c-1.245 0-2.075.207-2.49.622-.415.415-.623.727-.623.934 0 .415.312.934.934 1.557.624.623 1.35.934 2.18.934h31.76zm58.845 3.736c3.53-1.037 5.916-2.594 7.16-4.67-.83.415-1.71.727-2.645.934-.934.208-2.128.52-3.58.934-4.152.83-11.002 1.247-20.55 1.247H41.465c-5.604 0-10.378-.208-14.322-.623-3.944-.415-6.954-1.142-9.03-2.18 2.076 4.567 10.068 6.85 23.975 6.85h111.776c8.926 0 15.88-.83 20.86-2.49z" fill="#000" fill-rule="evenodd"/>
</svg>
