<svg viewBox="0 0 200 200" xmlns="http://www.w3.org/2000/svg">
  <g fill="none" fill-rule="evenodd">
    <path d="M66.81 79.464l32.163-18.57c.805-.464 1.797-.464 2.6 0l32.164 18.57c.804.465 1.3 1.323 1.3 2.253v37.137c0 .93-.496 1.788-1.3 2.254l-32.163 18.568c-.804.465-1.796.465-2.6 0L66.81 121.108c-.804-.465-1.3-1.324-1.3-2.254V81.717c0-.93.497-1.788 1.3-2.253" fill="#8080F2"/>
    <path d="M183.895 96.38l-38.427-66.854c-1.396-2.417-3.975-4.2-6.766-4.2H61.846c-2.79 0-5.37 1.783-6.767 4.2L16.65 96.23c-1.396 2.42-1.396 5.47 0 7.888l38.427 66.305c1.395 2.417 3.975 3.653 6.766 3.653h76.856c2.79 0 5.37-1.2 6.765-3.616l38.427-66.413c1.398-2.417 1.398-5.25 0-7.668zm-31.82 32.146c0 .983-.592 1.892-1.444 2.384l-48.947 28.24c-.85.492-1.917.492-2.77 0L49.93 130.91c-.85-.492-1.447-1.4-1.447-2.384V72.044c0-.983.588-1.892 1.44-2.384l48.946-28.24c.852-.492 1.917-.492 2.768 0l48.99 28.24c.85.492 1.45 1.4 1.45 2.384v56.482z" fill="#4B32C3"/>
  </g>
</svg>
