<svg viewBox="0 0 200 200" xmlns="http://www.w3.org/2000/svg">
  <path d="M16.106 113.392v-18.92h23.622v-1.106H16.106v-17.26h25.116V75H15v39.5h26.443v-1.108H16.106zm46.636-27.328l-9.792 12.89-9.57-12.89h-1.44l10.346 13.72-11.34 14.715h1.327l10.677-13.887L63.682 114.5h1.383L53.67 99.783l10.4-13.72H62.74zm5.642 38.17v-17.7h.11c.665 2.58 1.974 4.655 3.93 6.222 1.953 1.568 4.443 2.35 7.467 2.35 1.956 0 3.69-.395 5.2-1.188 1.513-.793 2.776-1.872 3.79-3.236 1.015-1.365 1.79-2.95 2.324-4.758.535-1.807.802-3.706.802-5.698 0-2.14-.276-4.112-.83-5.92-.553-1.806-1.355-3.374-2.406-4.7-1.05-1.33-2.324-2.362-3.817-3.1-1.494-.737-3.18-1.106-5.062-1.106-1.437 0-2.774.212-4.01.636-1.235.425-2.332 1.024-3.29 1.798-.96.775-1.79 1.688-2.49 2.74-.7 1.05-1.236 2.202-1.605 3.456h-.11v-7.966h-1.107v38.17h1.106zm11.507-10.178c-3.466 0-6.25-1.19-8.352-3.568-2.103-2.38-3.154-5.8-3.154-10.262 0-1.844.258-3.596.775-5.255.515-1.66 1.262-3.116 2.24-4.37.977-1.254 2.184-2.25 3.623-2.987 1.438-.738 3.06-1.106 4.868-1.106 1.845 0 3.46.368 4.842 1.106 1.383.738 2.526 1.743 3.43 3.015.903 1.272 1.585 2.73 2.046 4.37.46 1.642.692 3.384.692 5.228 0 1.66-.212 3.31-.636 4.95-.425 1.643-1.08 3.118-1.964 4.427-.885 1.31-2.02 2.38-3.403 3.21-1.383.828-3.05 1.243-5.006 1.243zm18.2.443V98.4c0-1.548.223-3.06.665-4.536.443-1.475 1.125-2.775 2.047-3.9.922-1.125 2.093-2.01 3.513-2.655 1.42-.647 3.107-.914 5.062-.803V85.4c-1.697-.037-3.18.148-4.453.553-1.273.406-2.37.96-3.292 1.66-.922.7-1.66 1.52-2.213 2.462-.554.94-.96 1.945-1.218 3.015h-.11v-7.026h-1.107V114.5h1.106zm12.67-13.997h23.788c.073-1.955-.12-3.836-.58-5.643-.462-1.807-1.2-3.41-2.214-4.813-1.014-1.4-2.323-2.526-3.928-3.374-1.604-.85-3.513-1.273-5.725-1.273-1.585 0-3.134.332-4.646.996-1.512.664-2.84 1.632-3.983 2.904-1.143 1.273-2.065 2.83-2.765 4.675-.7 1.844-1.052 3.946-1.052 6.306 0 2.104.24 4.068.72 5.893.48 1.826 1.217 3.412 2.212 4.758.996 1.347 2.278 2.39 3.845 3.126 1.568.738 3.458 1.088 5.67 1.05 3.246 0 5.975-.91 8.188-2.737 2.213-1.827 3.522-4.4 3.928-7.718h-1.107c-.48 3.135-1.706 5.486-3.68 7.053-1.973 1.568-4.453 2.35-7.44 2.35-2.03 0-3.743-.35-5.145-1.05-1.4-.7-2.545-1.66-3.43-2.876-.885-1.22-1.54-2.648-1.964-4.29-.423-1.64-.653-3.42-.69-5.337zm22.68-1.107h-22.68c.11-1.99.48-3.78 1.106-5.366.627-1.586 1.448-2.94 2.462-4.066 1.014-1.125 2.194-1.982 3.54-2.572 1.347-.59 2.794-.885 4.343-.885 1.845 0 3.468.34 4.87 1.023 1.4.682 2.572 1.614 3.512 2.794s1.65 2.554 2.13 4.12c.48 1.57.72 3.22.72 4.952zm24.066-4.923h1.106c0-3.172-.922-5.477-2.766-6.915-1.844-1.44-4.352-2.158-7.524-2.158-1.77 0-3.263.222-4.48.664-1.218.443-2.213 1.014-2.988 1.715-.774.7-1.327 1.474-1.66 2.323-.33.848-.497 1.66-.497 2.434 0 1.55.276 2.784.83 3.706.553.922 1.42 1.64 2.6 2.158.81.37 1.733.7 2.766.996 1.032.295 2.23.61 3.595.94 1.218.296 2.416.59 3.596.886 1.18.295 2.222.69 3.126 1.19.903.497 1.64 1.133 2.213 1.908.57.774.857 1.79.857 3.043 0 1.217-.286 2.25-.857 3.097-.572.85-1.3 1.54-2.185 2.075-.886.535-1.872.922-2.96 1.162-1.088.24-2.148.36-3.18.36-3.357 0-5.93-.748-7.718-2.24-1.79-1.495-2.683-3.846-2.683-7.055h-1.107c0 3.578.968 6.196 2.905 7.856 1.936 1.66 4.803 2.49 8.602 2.49 1.217 0 2.443-.14 3.68-.416 1.234-.276 2.34-.728 3.318-1.355.977-.627 1.77-1.438 2.38-2.434.607-.996.912-2.213.912-3.65 0-1.366-.268-2.472-.803-3.32-.534-.85-1.235-1.55-2.102-2.103-.866-.553-1.844-.986-2.932-1.3-1.088-.313-2.185-.617-3.29-.912-1.55-.406-2.906-.756-4.067-1.05-1.162-.296-2.24-.647-3.237-1.053-.958-.405-1.724-.986-2.295-1.742-.57-.756-.857-1.835-.857-3.236 0-.26.074-.72.22-1.383.15-.664.5-1.337 1.052-2.02.554-.682 1.402-1.29 2.545-1.825 1.144-.536 2.71-.803 4.702-.803 1.365 0 2.61.147 3.735.442 1.124.294 2.093.764 2.904 1.41.812.645 1.44 1.466 1.882 2.462.442.995.664 2.212.664 3.65zm25.613 0h1.106c0-3.172-.922-5.477-2.767-6.915-1.845-1.44-4.352-2.158-7.524-2.158-1.77 0-3.264.222-4.48.664-1.218.443-2.214 1.014-2.988 1.715-.775.7-1.328 1.474-1.66 2.323-.332.848-.498 1.66-.498 2.434 0 1.55.277 2.784.83 3.706.553.922 1.42 1.64 2.6 2.158.81.37 1.733.7 2.766.996 1.033.295 2.23.61 3.596.94 1.217.296 2.416.59 3.596.886 1.18.295 2.222.69 3.125 1.19.904.497 1.64 1.133 2.213 1.908.572.774.858 1.79.858 3.043 0 1.217-.286 2.25-.858 3.097-.572.85-1.3 1.54-2.185 2.075-.884.535-1.87.922-2.96 1.162-1.087.24-2.147.36-3.18.36-3.356 0-5.928-.748-7.717-2.24-1.79-1.495-2.683-3.846-2.683-7.055h-1.106c0 3.578.968 6.196 2.904 7.856 1.936 1.66 4.804 2.49 8.602 2.49 1.217 0 2.444-.14 3.68-.416 1.235-.276 2.34-.728 3.318-1.355.978-.627 1.77-1.438 2.38-2.434.608-.996.912-2.213.912-3.65 0-1.366-.267-2.472-.802-3.32-.535-.85-1.236-1.55-2.102-2.103-.867-.553-1.844-.986-2.932-1.3-1.088-.313-2.185-.617-3.292-.912-1.55-.406-2.904-.756-4.066-1.05-1.162-.296-2.24-.647-3.236-1.053-.96-.405-1.724-.986-2.296-1.742-.572-.756-.857-1.835-.857-3.236 0-.26.073-.72.22-1.383.148-.664.5-1.337 1.052-2.02.552-.682 1.4-1.29 2.544-1.825 1.143-.536 2.71-.803 4.702-.803 1.364 0 2.61.147 3.734.442 1.125.294 2.093.764 2.904 1.41.812.645 1.44 1.466 1.88 2.462.444.995.665 2.212.665 3.65z" fill="#222" fill-rule="evenodd"/>
</svg>
