<svg viewBox="0 0 200 200" xmlns="http://www.w3.org/2000/svg">
  <path d="M15 99.975C15 88.47 19.12 78.6 27.36 70.36 35.6 62.12 45.47 58 56.974 58c11.505 0 21.377 4.12 29.616 12.36l13.527 12.825 13.525-13.06C121.726 62.043 131.52 58 143.025 58c11.35 0 21.182 4.12 29.5 12.36C180.84 78.6 185 88.47 185 99.974c0 11.505-4.16 21.377-12.476 29.616-8.317 8.24-18.15 12.36-29.5 12.36-11.504 0-21.376-4.12-29.615-12.36l-13.293-12.825-13.76 13.06c-8.083 8.084-17.877 12.126-29.382 12.126-11.504 0-21.376-4.12-29.616-12.36C19.12 121.353 15 111.48 15 99.976zm41.975-17.723c-4.82 0-8.978 1.75-12.476 5.247-3.5 3.497-5.248 7.656-5.248 12.475 0 4.975 1.71 9.173 5.13 12.593s7.618 5.13 12.593 5.13 9.173-1.71 12.593-5.13l12.826-12.593-12.826-12.36c-3.576-3.575-7.773-5.363-12.593-5.363zm98.642 30.316c3.42-3.42 5.13-7.618 5.13-12.593s-1.71-9.172-5.13-12.592-7.58-5.13-12.476-5.13c-4.896 0-9.054 1.71-12.475 5.13l-13.06 12.592 12.827 12.36c3.42 3.42 7.618 5.17 12.593 5.247 4.975.077 9.172-1.594 12.592-5.014z" fill="#000" fill-rule="evenodd"/>
</svg>
