<svg viewBox="0 0 200 200" xmlns="http://www.w3.org/2000/svg" xmlns:xlink="http://www.w3.org/1999/xlink">
  <defs>
    <path id="a" d="M6.707 35.727c1.063 4.98 3.652 7.902 6.242 9.628H40.24c3.32-2.257 6.707-6.507 6.707-14.476V10.292s.398-5.113 5.112-6.773c0 0 2.723-1.926-.2-2.99 0 0-12.948-1.06-12.948 9.564v15.672s.53 5.777-2.523 8.168v-19.39s.2-6.177 3.387-8.5c0 0 2.125-3.786-2.523-2.79 0 0-8.9 1.262-9.297 11.687l-.2 19.923h-2.124l-.2-19.922c-.398-10.358-9.296-11.686-9.296-11.686-4.65-1.063-2.524 2.79-2.524 2.79C16.8 8.366 17 14.543 17 14.543v19.59c-3.055-2.193-2.523-8.368-2.523-8.368V10.094C14.477-.53 1.527.53 1.527.53c-2.988 1.064-.2 2.99-.2 2.99 4.65 1.726 5.114 6.773 5.114 6.773v14.41l.267 11.024z"/>
  </defs>
  <g fill="none" fill-rule="evenodd">
    <path d="M148.41 146.68c0 9.23-21.383 16.668-47.746 16.668-26.363 0-47.746-7.504-47.746-16.668 0-9.23 21.383-16.668 47.746-16.668 26.363 0 47.746 7.437 47.746 16.668zM46.145 97.605l-1.395 4.782s-.332 1.726 1.262 2.058c1.726-.066 1.593-1.66 1.46-2.125l-1.327-4.715z" fill="#9EDCF2"/>
    <g transform="translate(73.438 140.836)">
      <mask id="b" fill="#fff">
        <use xlink:href="#a"/>
      </mask>
      <path d="M74.973 5.844c0 9.23-21.383 16.668-47.746 16.668-26.364 0-47.747-7.504-47.747-16.668 0-9.23 21.383-16.668 47.747-16.668 26.363 0 47.746 7.437 47.746 16.668z" fill="#7DBCE7" mask="url(#b)"/>
    </g>
    <path d="M184.867 77.484l.133-.597c-14.012-2.79-28.355-2.856-37.055-2.457 1.395-5.114 1.86-11.09 1.86-17.664 0-9.496-3.586-17.067-9.297-22.778.996-3.254 2.324-10.492-1.328-19.722 0 0-6.508-2.06-21.317 7.836-5.777-1.46-11.953-2.192-18.13-2.192-6.772 0-13.612.863-20.053 2.59-15.274-10.426-21.98-8.3-21.98-8.3-4.384 10.956-1.66 19.124-.864 21.116-5.18 5.58-8.3 12.684-8.3 21.383 0 6.573.73 12.484 2.59 17.597-8.767-.332-22.58-.2-36.126 2.523l.133.598c13.547-2.723 27.492-2.79 36.19-2.457.4 1.063.864 2.126 1.33 3.122-8.633.266-23.31 1.395-37.387 5.38l.2.597c14.21-3.986 29.018-5.048 37.585-5.314 5.18 9.563 15.274 15.805 33.337 17.73-2.59 1.727-5.18 4.65-6.242 9.63-3.52 1.66-14.543 5.777-21.184-5.645 0 0-3.718-6.772-10.823-7.304 0 0-6.907-.133-.465 4.317 0 0 4.582 2.19 7.77 10.36 0 0 4.183 13.944 24.17 9.43v14.276s-.397 5.112-5.112 6.773c0 0-2.79 1.925.2 2.988 0 0 12.948 1.063 12.948-9.562v-15.672s-.53-6.242 2.524-8.367v25.765s-.2 6.176-3.387 8.5c0 0-2.125 3.785 2.524 2.79 0 0 8.897-1.263 9.295-11.69l.2-26.096h2.125l.2 26.096c.397 10.36 9.296 11.688 9.296 11.688 4.648 1.062 2.523-2.79 2.523-2.79-3.188-2.323-3.388-8.5-3.388-8.5V107.9c3.055 2.39 2.524 8.168 2.524 8.168v15.672c0 10.625 12.95 9.563 12.95 9.563 2.987-1.062.198-2.988.198-2.988-4.648-1.726-5.113-6.773-5.113-6.773v-20.587c0-8.035-3.386-12.285-6.706-14.476 19.258-1.926 28.488-8.102 32.738-17.797 8.434.2 23.64 1.26 38.118 5.38l.2-.6c-14.41-4.05-29.486-5.112-38.052-5.378.398-.996.73-1.992 1.062-3.055 8.9-.332 23.31-.332 37.387 2.457z" fill="#010101"/>
    <path d="M130.945 56.3c4.118 3.786 6.575 8.302 6.575 13.15 0 22.843-17 23.44-37.985 23.44-20.984 0-37.984-3.187-37.984-23.44 0-4.848 2.39-9.364 6.51-13.083 6.838-6.242 18.393-2.922 31.475-2.922s24.57-3.386 31.41 2.856z" fill="#F5CCB3"/>
    <path d="M86.918 70.645c0 6.308-3.52 11.355-7.902 11.355-4.383 0-7.903-5.113-7.903-11.355 0-6.31 3.52-11.356 7.903-11.356 4.382-.067 7.902 5.046 7.902 11.355zm42.434 0c0 6.308-3.52 11.355-7.903 11.355-4.384 0-7.903-5.113-7.903-11.355 0-6.31 3.52-11.356 7.902-11.356 4.316-.067 7.902 5.046 7.902 11.355z" fill="#FFF"/>
    <path d="M84.395 70.777c0 4.184-2.39 7.57-5.247 7.57-2.92 0-5.246-3.386-5.246-7.57 0-4.183 2.39-7.57 5.246-7.57 2.856 0 5.247 3.387 5.247 7.57zm42.367 0c0 4.184-2.39 7.57-5.246 7.57-2.922 0-5.246-3.386-5.246-7.57 0-4.183 2.39-7.57 5.246-7.57 2.92 0 5.246 3.387 5.246 7.57zm-25.102 9.96c0 1.064-.863 1.993-1.992 1.993-1.063 0-1.992-.863-1.992-1.992 0-1.13.863-1.992 1.992-1.992 1.062 0 1.992.863 1.992 1.992zm-6.574 4.982c-.133-.333.066-.665.398-.798s.664.066.797.398c.532 1.46 1.86 2.39 3.388 2.39 1.527 0 2.855-.995 3.387-2.39.132-.332.465-.53.797-.398.332.133.53.465.398.797-.664 1.925-2.523 3.253-4.582 3.253-2.06 0-3.918-1.328-4.582-3.254z" fill="#AF5C51"/>
    <path d="M51.19 94.75c0 .53-.596.93-1.393.93-.73 0-1.395-.4-1.395-.93s.598-.93 1.395-.93 1.394.4 1.394.93zm3.853 2.125c0 .53-.598.93-1.395.93-.73 0-1.394-.4-1.394-.93s.598-.93 1.394-.93c.797 0 1.395.4 1.395.93zm2.324 2.79c0 .53-.597.93-1.394.93-.73 0-1.395-.4-1.395-.93 0-.532.598-.93 1.395-.93.797-.067 1.394.398 1.394.93zm2.125 3.187c0 .53-.597.93-1.394.93-.73 0-1.395-.4-1.395-.93 0-.532.598-.93 1.395-.93.797-.067 1.394.398 1.394.93zm2.324 2.92c0 .533-.597.93-1.394.93-.73 0-1.395-.397-1.395-.93 0-.53.598-.928 1.395-.928s1.394.398 1.394.93zm3.188 2.59c0 .533-.598.93-1.395.93-.73 0-1.395-.397-1.395-.93 0-.53.597-.928 1.394-.928.796-.067 1.394.398 1.394.93zm4.45 1.66c0 .533-.6.93-1.395.93-.732 0-1.396-.397-1.396-.93 0-.53.598-.928 1.395-.928.795 0 1.393.398 1.393.93zm4.448 0c0 .533-.597.93-1.394.93-.73 0-1.395-.397-1.395-.93 0-.53.598-.928 1.395-.928s1.394.398 1.394.93zm4.516-.73c0 .532-.598.93-1.395.93-.73 0-1.394-.398-1.394-.93 0-.53.597-.93 1.393-.93.73 0 1.395.4 1.395.93z" fill="#C4E5D9"/>
  </g>
</svg>
