<svg viewBox="0 0 200 200" xmlns="http://www.w3.org/2000/svg">
  <g fill="none" fill-rule="evenodd">
    <path d="M53.752 141.978l-4.772-4.254-.42.476.056.07c.182.238.266.448.266.616 0 .14-.042.25-.126.322-.028.07-.238.195-.63.377l-8.38 4.142 3.343-8.563c.125-.336.25-.56.377-.686.084-.126.21-.182.364-.182.155 0 .323.056.533.182l.098.042.42-.462-4.575-4.085-.42.475.07.098c.196.266.294.532.294.798 0 .294-.113.728-.323 1.33l-4.687 12.48-.448 1.008c-.154.154-.308.238-.462.238-.154 0-.336-.056-.53-.182l-.127-.056-.308.378-.084.098 4.212 3.778.378-.378.056-.07-.056-.098c-.182-.28-.28-.518-.28-.714 0-.126.042-.238.126-.322.07-.084.35-.238.84-.448l9.067-4.547-3.47 9.29c-.21.616-.364.965-.448 1.035-.126.154-.266.225-.42.225-.182 0-.378-.07-.6-.225l-.1-.056-.405.49 4.295 3.833.42-.49-.07-.07c-.21-.25-.308-.46-.308-.643.014-.126.056-.238.14-.336.126-.14.462-.35 1.022-.63l11.88-6.06c.628-.306 1.048-.474 1.258-.488l.084-.014c.21 0 .46.084.77.238l.083.028.42-.462-4.52-4.03-.42.462.07.098c.196.252.294.476.294.658l-.1.308c-.152.153-.432.32-.81.503l-8.018 4.184 3.26-8.634c.126-.336.224-.546.308-.644.126-.126.252-.196.406-.196.154 0 .35.056.602.182l.07.056.336-.392.098-.084zm16.273 9.906l-5.597-2.742-.28.56.056.07c.238.21.35.42.35.615l-.07.28c-.14.238-.364.462-.672.7l-11.264 8.913c-.42.336-.727.532-.91.574l-.307.056-.447-.07-.112-.014-.293.56 5.26 2.56.295-.56-.097-.07c-.28-.238-.42-.447-.42-.657l.04-.225c.113-.182.28-.364.52-.546l2.056-1.638 6.662 3.345v2.56c0 .392-.03.643-.084.74-.112.21-.294.323-.532.337l-.406-.07-.07-.028-.294.56 5.807 2.87.28-.59-.098-.07c-.252-.18-.42-.39-.504-.657-.097-.267-.153-.7-.153-1.274l-.056-14.496-.083-.014h.084c0-.35.043-.616.127-.784.098-.18.294-.266.574-.28l.267.028.336-.42.042-.126zm-5.15 8.9l-4.59-2.253 4.772-3.86-.182 6.114zm24.92-2.31c-.46-.49-1.063-.895-1.804-1.216-.713-.294-1.692-.574-2.965-.854l-10.453-2.17-.126.52c.336.265.532.447.574.53l.042.267v.24l-2.924 13.977c-.07.238-.155.392-.253.462-.153.083-.35.125-.587.125l-.196.503-.028.126 5.387 1.133.127-.517-.546-.518c-.04-.07-.07-.168-.07-.294l.016-.195 1.133-5.36 4.267.896 2.224 5.47c.24.545.35.91.35 1.077v.028c-.04.126-.195.182-.49.196h-.097l-.21.49-.028.126 6.227 1.288.14-.63-.126-.028c-.35-.097-.616-.28-.798-.53-.21-.267-.517-.87-.91-1.778l-2.182-5.038h.336c2.854.015 4.548-1.273 5.065-3.89.084-.405.126-.825.126-1.245 0-.377-.028-.755-.098-1.133-.182-.798-.545-1.483-1.12-2.057zm-3.23 1.75c.362.294.544.727.544 1.274l-.057.573c-.18.827-.587 1.316-1.217 1.498l-.742.112h-.196l-1.735-.294-5.43-1.133.84-4.072 5.444 1.134c.784.155 1.357.295 1.707.42.308.126.588.28.84.49zm16.58-2.616l-10.537.42-.112.517c.378.182.602.322.672.392.098.098.154.266.154.49l.56 14.3c0 .21-.043.364-.126.448-.084.11-.266.21-.532.293l-.098.532 5.415-.07.1-.546c-.35-.154-.56-.28-.645-.364-.112-.11-.168-.28-.182-.49l-.21-5.456 4.366-.168 3.497 4.77c.406.533.602.855.602.966v.015c0 .154-.17.265-.52.335l-.083.518 6.213-.097.126-.547c-.518-.14-.868-.293-1.05-.447-.322-.267-.755-.757-1.315-1.498l-3.33-4.366c2.883-.6 4.31-2.197 4.296-4.813v-.28c-.028-.798-.21-1.553-.545-2.295-.377-.77-.894-1.343-1.58-1.735-.574-.378-1.274-.616-2.07-.728l-2.002-.126-1.063.028zm2.406 3.316c.59.294.896.853.925 1.68l.014.125c-.015.754-.28 1.3-.8 1.622-.265.154-.572.252-.894.32l-1.763.14-5.54.24-.183-4.31 6.66-.112.658.042c.307.028.616.112.923.252zm6.62-3.05l3.092 13.95.014.238-.056.28c-.07.14-.238.265-.49.377l.014.545.056.126 5.387-1.19-.126-.516-.698-.266c-.126-.07-.21-.224-.252-.448l-3.093-13.95-.014-.238.056-.266c.097-.14.252-.265.475-.378l-.014-.53-.027-.127-5.387 1.176.098.518c.378.098.616.196.728.266.126.098.21.237.237.433zm13.922-6.045c-3.652 1.594-5.71 3.972-6.17 7.15-.085.432-.127.88-.127 1.314 0 1.19.252 2.365.742 3.512.448 1.064 1.077 2 1.903 2.827.91.923 1.96 1.595 3.176 2.014.91.322 1.86.49 2.868.49 1.414 0 2.94-.336 4.576-1.02 3.61-1.554 5.667-3.933 6.17-7.166l.113-1.426c0-1.133-.224-2.238-.686-3.33-1.05-2.448-2.756-4.1-5.135-4.925-.882-.323-1.82-.49-2.84-.49-1.456 0-2.98.35-4.59 1.05zm5.443 2.587c1.54.518 2.672 1.623 3.414 3.345.293.657.46 1.385.475 2.196v.07c0 .882-.168 1.68-.518 2.365-.574 1.273-1.61 2.21-3.078 2.84-.87.364-1.695.546-2.478.546-.6 0-1.16-.1-1.707-.28-1.595-.546-2.73-1.638-3.4-3.247-.35-.84-.532-1.637-.532-2.406 0-.798.182-1.568.532-2.323.588-1.246 1.61-2.197 3.064-2.827.88-.35 1.734-.532 2.532-.532.56 0 1.12.085 1.693.252zm4.225-5.667c.154.042.295.14.434.322l8.704 11.306c.126.154.196.294.196.448v.014c-.014.168-.112.35-.28.56l-.056.07.377.503 4.38-3.358-.378-.518-.098.042-.504.11h-.084c-.154-.04-.308-.138-.434-.293l-3.33-4.31 3.456-2.686 5.64 1.876c.656.196.992.35 1.034.462l.056.098c0 .112-.098.266-.28.448l-.07.083.322.406.056.098 5.05-3.875-.39-.503-.126.042c-.238.182-.518.28-.84.28h-.098c-.294-.015-.937-.17-1.903-.462l-5.26-1.637c1.132-1.218 1.692-2.435 1.692-3.653 0-.993-.378-1.986-1.133-2.966-.504-.657-1.105-1.175-1.805-1.567-.603-.337-1.275-.505-1.988-.505h-.294c-.686.042-1.385.252-2.085.616-.657.323-1.525.883-2.575 1.708l-8.45 6.507.363.49.1-.043c.195-.083.363-.126.517-.126l.083.014zm10.37-5.233c.237-.154.53-.252.88-.308l.266-.028c.546 0 1.05.28 1.483.853.32.434.49.853.49 1.246 0 .196-.043.406-.14.63-.127.294-.31.56-.532.784l-1.344 1.147-4.408 3.373-2.518-3.288 4.38-3.386c.615-.463 1.09-.813 1.44-1.023zm4.826-6.366c.084 1.386.7 2.533 1.86 3.47.7.546 1.442.896 2.226 1.022l.713.056c.63 0 1.218-.126 1.763-.39.546-.24 1.036-.533 1.484-.897l1.987-1.86 1.356-1.357c.84-.854 1.483-1.414 1.93-1.68.24-.14.463-.21.7-.21.21 0 .42.085.658.267.266.238.434.53.532.88l.07.59-.084.67c-.182.798-.602 1.638-1.288 2.49-.63.757-1.427 1.456-2.392 2.1-.937.644-1.763 1.02-2.463 1.133l-.31.028c-.292 0-.544-.083-.726-.237l-.126-.098-.616.21 2.17 4.268.503-.21.14-.615.727-.393c2.21-1.02 4.03-2.406 5.457-4.17.783-.965 1.4-1.972 1.86-3.02.448-1.05.672-2.002.672-2.87 0-.35-.028-.643-.098-.91-.224-1.202-.81-2.182-1.777-2.952-.602-.49-1.273-.81-2-.965l-1.008-.126-1.12.154c-.686.21-1.33.517-1.932.937-.587.378-1.315.994-2.183 1.847l-1.37 1.4c-.882.91-1.512 1.483-1.876 1.72-.323.21-.616.322-.896.322-.238 0-.462-.084-.672-.238-.294-.265-.448-.573-.49-.923l-.042-.35c0-.32.056-.642.182-.978.28-.686.686-1.344 1.204-1.96 1.203-1.496 2.658-2.49 4.38-3.008l.643-.11c.153 0 .28.027.377.096l.14.14.517-.14.112-.055-1.903-4.296-.503.195c-.07.392-.14.63-.21.7-.014.042-.252.195-.714.46-1.357.743-2.42 1.386-3.162 1.96-.728.56-1.455 1.287-2.183 2.17-1.496 1.86-2.252 3.623-2.252 5.302l.028.434zM98.975 18.23c-9.165 0-17.938 1.763-26.306 5.303-8.09 3.428-15.253 8.256-21.48 14.482-6.24 6.24-11.067 13.405-14.48 21.48-3.54 8.366-5.318 17.14-5.318 26.304 0 9.164 1.777 17.937 5.317 26.304 3.413 8.088 8.24 15.252 14.48 21.48 6.227 6.225 13.39 11.053 21.48 14.48 8.367 3.54 17.14 5.304 26.305 5.304s17.938-1.764 26.29-5.303c8.09-3.428 15.253-8.256 21.48-14.482 6.24-6.227 11.068-13.39 14.482-21.48 3.54-8.366 5.303-17.14 5.303-26.304 0-9.166-1.763-17.94-5.303-26.306-3.414-8.074-8.242-15.238-14.482-21.48-6.227-6.225-13.39-11.053-21.48-14.48-8.352-3.54-17.125-5.304-26.29-5.304M34.54 36.672c-.335.294-.672.615-1.02.965-.407.42-.757.84-1.05 1.246-.518.7-.91 1.427-1.162 2.182-.238.756-.336 1.47-.294 2.14.042.673.238 1.33.588 1.96.35.602.853 1.134 1.51 1.623.617.462 1.274.784 1.988.938.685.14 1.37.126 2.03-.042.684-.168 1.328-.476 1.944-.938.63-.475 1.203-1.077 1.72-1.79l.798-1.162.7-1.287c.182-.406.336-.868.475-1.413.113-.476.182-.98.196-1.512l-.25-.196c-.085.056-.17.098-.267.14-.07.042-.168.028-.266-.042l-1.763-1.287-.196-.28c0-.098.057-.252.17-.46l-.28-.21-2.855 3.888-.308.28c-.098.042-.252 0-.434-.112l-.196.28 1.987 1.47.196-.294c-.182-.155-.28-.295-.294-.42-.014-.1.042-.24.154-.407l1.455-1.987 1.343.966-.573 1.44c-.266.574-.602 1.148-1.022 1.722-.294.378-.615.713-.993 1.007-.392.31-.812.52-1.26.645l-1.413.07c-.49-.098-.993-.322-1.51-.7-.52-.378-.896-.783-1.12-1.23-.224-.435-.35-.897-.364-1.372-.014-.462.07-.924.238-1.386.17-.46.393-.88.672-1.245l.784-.965c.294-.322.588-.588.895-.812.337-.252.63-.42.87-.49l.63.014.152.153.322-.238-1.385-2.42c-.07.042-.155.084-.24.112l-.013.238-.098.266-.378.322-.812.63zm17.1-10.508c-.59-.658-1.247-1.092-1.974-1.316-.728-.21-1.456-.266-2.183-.18-.742.096-1.44.306-2.127.628-.686.35-1.287.756-1.805 1.232-.517.46-.978 1.02-1.384 1.692-.406.644-.686 1.33-.84 2.057-.154.742-.168 1.47-.014 2.183.154.742.518 1.44 1.12 2.1.6.657 1.26 1.09 1.987 1.314.726.21 1.454.28 2.182.182.755-.098 1.455-.308 2.098-.657.658-.35 1.26-.757 1.79-1.247.547-.49 1.01-1.05 1.4-1.68.406-.614.7-1.286.868-2.028.154-.713.168-1.44.014-2.196-.168-.743-.546-1.443-1.133-2.086zm-.84 4.183c-.1.49-.28.952-.547 1.372-.237.432-.545.824-.91 1.16-.377.336-.796.602-1.244.812-.463.223-.94.363-1.43.405-.474.056-.95 0-1.412-.154-.462-.14-.867-.405-1.245-.81-.378-.407-.602-.855-.7-1.316-.112-.462-.126-.952-.028-1.44.098-.49.266-.953.518-1.387.238-.406.56-.797.938-1.16.378-.337.798-.603 1.246-.813.462-.21.924-.35 1.413-.392.49-.056.964-.014 1.426.14.448.154.868.434 1.26.826.35.42.587.854.685 1.316.113.462.127.95.03 1.44zm1.902-10.2l4.618 7.43c.126.21.014.406-.308.6l.18.31 7.795-4.842c.182-.112.336-.182.434-.21.113-.056.225 0 .323.168l.294-.168-1.4-2.253-.293.168c.084.154.098.294.042.42-.042.14-.154.266-.322.364l-5.443 3.372-4.057-6.52c-.098-.182-.014-.378.28-.588l-.168-.28-2.84 1.735.196.308.672-.013zm18.904-10.075c-.658.042-1.302.182-1.945.434l-5.946 2.365.14.323c.28-.112.462-.056.532.154l3.232 8.143c.098.21 0 .378-.28.476l.126.336 5.947-2.365c.658-.266 1.232-.616 1.722-1.02.49-.407.867-.897 1.133-1.457s.406-1.175.406-1.86c0-.672-.153-1.414-.475-2.24-.336-.825-.727-1.47-1.19-1.93-.447-.49-.964-.854-1.552-1.092-.574-.224-1.19-.308-1.847-.266zm1.735 2.645c.323.378.588.853.812 1.455.252.63.392 1.162.42 1.623.014.49-.07.896-.252 1.218-.168.363-.448.67-.825.937-.35.252-.826.49-1.413.728l-2.785 1.105-2.505-6.352 2.77-1.105c.59-.224 1.092-.364 1.526-.434l1.245.1c.364.125.7.377 1.008.727zM87.978 5.51c-.084.113-.266.197-.532.253l-8.633 1.68.084.335.25.042c.072.042.127.125.14.238l1.68 8.577c.015.112 0 .21-.055.28-.07.084-.14.126-.223.14l.07.336 8.815-1.72.476-.042c.125 0 .196.097.238.28l.35-.07-.504-2.59-.35.07c.028.155-.014.294-.112.392-.098.126-.252.196-.434.21l-6.325 1.246-.502-2.603 3.708-.74.616.012c.153.07.25.238.32.518l.337-.056-.59-2.952-.32.056c.042.31.013.505-.112.575-.126.097-.308.18-.56.237l-3.708.728-.476-2.35 6.143-1.204.574-.014c.113.056.182.154.224.294l.336-.07-.49-2.505-.335.07c.028.155 0 .267-.098.35zm14.566 6.325L97.016 6.1c-.266-.28-.392-.463-.392-.56 0-.127.056-.183.154-.183V5.02h-3.302l.014.337c.238 0 .364.112.364.35v8.745c0 .238-.126.35-.378.35v.35h2.854v-.35c-.293 0-.433-.112-.433-.35V8.058l5.876 6.128c.21.21.308.35.308.448 0 .112-.083.168-.237.168v.35h3.12v-.35c-.238 0-.363-.112-.363-.35V5.707c0-.238.125-.35.363-.35V5.02h-2.924v.337c.335 0 .503.112.503.35v6.128zM123 8.505c-.49-.238-1.05-.447-1.68-.63-.74-.21-1.427-.293-2.07-.28-.63.015-1.176.113-1.61.295-.46.195-.84.447-1.105.77-.28.293-.476.657-.587 1.063-.155.573-.168 1.063-.057 1.47.113.39.323.74.617 1.062.294.308.658.574 1.092.784.39.195.838.377 1.328.56l1.37.474c.435.14.827.294 1.162.462.336.154.588.336.77.532.182.18.238.42.154.713-.07.28-.252.477-.546.603l-.937.168-1.05-.083-.824-.182-.952-.364-.95-.558-.77-.616c-.21-.21-.337-.406-.392-.574-.014-.112-.014-.224.013-.336l-.153-.14-1.652 1.96.21.237c.112-.084.21-.112.294-.098.126.042.28.126.434.28l.672.532 1.105.63c.434.195 1.007.405 1.735.615l1.68.322c.63.098 1.216.084 1.776-.014.56-.084 1.077-.294 1.553-.616.447-.294.755-.77.937-1.427.153-.546.182-1.02.056-1.44-.126-.42-.336-.785-.63-1.078-.294-.295-.658-.56-1.078-.77-.377-.197-.825-.393-1.33-.59l-1.356-.474c-.435-.154-.826-.308-1.176-.49-.322-.154-.574-.35-.742-.574-.182-.21-.224-.462-.14-.74.042-.24.168-.393.378-.477.182-.098.406-.154.672-.182l.84.042.867.14c.348.112.698.252 1.048.42.336.153.644.35.924.56.266.153.503.35.713.587.182.21.308.406.378.574.042.154.042.307.014.46l.168.127 1.93-1.96-.18-.195c-.1.043-.24.043-.407 0-.154-.042-.336-.14-.56-.32l-.81-.56-1.15-.673zm15.587 6.297l-7.752-3.652-.252-.238c-.07-.098-.055-.224.015-.406l-.322-.154-1.148 2.45.308.14c.07-.155.182-.24.308-.253l.336.055 2.882 1.37-3.274 6.94-.224.183-.266-.028-.126.308 2.673 1.287.154-.32c-.24-.127-.323-.295-.24-.505l3.29-6.926 2.88 1.357.253.24c.07.097.07.223 0 .39l.308.155 1.163-2.435-.322-.154c-.07.154-.167.252-.293.266l-.35-.07zm-3.107 9.08l-.475-.013-.182.293 2.253 1.525.196-.28c-.196-.14-.252-.266-.168-.392.042-.098.21-.21.476-.363l1.33-.742 3.903 2.618-.196 1.595c-.028.237-.084.405-.154.503l-.182.084-.195-.07-.196.294 2.812 1.903.182-.294-.196-.364c-.042-.126-.056-.266-.042-.42l1.12-9.18c.027-.125.07-.223.125-.293.07-.126.17-.182.267-.168l.294.07.182-.295-2.7-1.82-.182.295.168.252c.042.098.042.196-.028.308l-.308.238-7.598 4.463-.504.253zm8.228-2.798l-.67 3.876-2.856-1.917 3.526-1.96zM151.754 23l-1.833 1.988.267.224c.126-.126.238-.182.363-.154.112.028.21.084.308.154l2.337 2.17-5.19 5.638c-.085.084-.17.126-.267.112-.07 0-.154-.028-.238-.098l-.224.266 2.183 2 .237-.25c-.21-.183-.238-.365-.084-.547l5.205-5.64 2.337 2.156c.098.097.154.195.196.307.03.098-.013.224-.14.378l.266.237 1.82-1.986-.252-.238c-.126.126-.252.182-.378.154-.126-.015-.224-.07-.308-.154l-6.31-5.807-.168-.293c-.042-.126 0-.252.126-.392l-.252-.224zm9.696 11.11l-6.926 5.346c-.098.056-.182.084-.266.07l-.223-.14-.266.21 5.47 7.122.266.392c.056.112 0 .224-.155.35l.225.28 2.1-1.623-.24-.266c-.11.1-.237.113-.376.07-.155-.04-.295-.14-.407-.293l-3.932-5.093 2.114-1.623 2.31 2.995c.153.21.237.392.265.546.013.17-.1.336-.337.518l.224.266 2.364-1.833-.195-.28c-.237.183-.42.253-.56.183l-.46-.42-2.31-2.994 1.903-1.456 3.806 4.953c.182.21.266.392.28.518 0 .126-.056.224-.168.322l.21.28 2.028-1.553-.223-.28c-.097.098-.223.11-.35.07-.14-.028-.293-.154-.46-.378l-5.36-6.954-.28.21c.056.098.084.18.07.252l-.14.237z" fill="#255E9C"/>
    <path d="M98.933 21.49c-8.424 0-16.483 1.637-24.193 4.898-7.444 3.134-14.034 7.57-19.757 13.32-5.737 5.723-10.173 12.313-13.32 19.757-3.26 7.696-4.898 15.756-4.898 24.193 0 8.437 1.637 16.497 4.897 24.193 3.148 7.445 7.584 14.035 13.32 19.772 5.724 5.737 12.314 10.172 19.758 13.32 7.71 3.26 15.77 4.884 24.193 4.884 8.577 0 16.763-1.68 24.57-5.05 7.542-3.247 14.188-7.823 19.953-13.728.322-.18.728-.616 1.218-1.3 5.205-5.64 9.22-12.006 12.06-19.1 2.926-7.347 4.38-15.014 4.38-22.99 0-8.437-1.622-16.497-4.883-24.193-3.147-7.444-7.583-14.034-13.32-19.757-5.75-5.75-12.34-10.186-19.77-13.32-7.71-3.26-15.77-4.898-24.207-4.898zm22.68 8.48c6.97 2.952 13.14 7.108 18.527 12.495 5.373 5.36 9.53 11.53 12.48 18.51 3.05 7.208 4.577 14.764 4.577 22.67 0 9.388-2.14 18.245-6.437 26.598-17.672-3.945-34.77-11.78-51.296-23.507-10.87-7.71-20.666-16.455-29.397-26.207l-.224-7.613-1.82-.812-1.692 1.456.07 2.7-.95-1.174-.043-4.296h-2.49l-.057 1.483-1.51.378-.14 8.23c-3.303 7.568-7.053 14.383-11.236 20.455-2.87 4.184-5.765 7.752-8.662 10.732-.405-2.812-.615-5.61-.615-8.423 0-7.905 1.525-15.46 4.575-22.668 2.953-6.982 7.108-13.152 12.48-18.51 5.374-5.388 11.545-9.544 18.513-12.496 7.206-3.05 14.762-4.576 22.668-4.576 7.906 0 15.46 1.525 22.68 4.576zM105.3 92.78l6.604 20.668-3.61.154-7.71-24.403 4.715 3.58zm-6.52-5.008l8.226 25.886-3.932.21-9.752-30.588c1.777 1.526 3.596 3.023 5.457 4.492zm13.18 9.766l4.98 15.742-3.75.112-6.072-19.282 4.814 3.345.182.125-.154-.042zM42.026 96.04l2.043-2.923-1.414 5.555-.63-2.63zm6.954-10.367l-3.666 20.75c-.63-1.497-1.23-3.09-1.777-4.8l2.575-11.53 2.868-4.42zm28.433-17.03l14.636 45.91-3.584.28-16.063-51.31 5.01 5.12zm-7.04-7.26l16.834 53.548-3.946.323-12.718-40.928-.46-13.25.292.307zM66.416 57.1c.6 25.09 1.19 44.972 1.777 59.664l-1.316.154c-.67-16.455-1.147-36.744-1.413-60.867l.952 1.05zm-5.303 6.24l-9.585 54.137c-.91-1.26-1.707-2.462-2.393-3.595l7.276-40.984c1.777-3.344 3.344-6.52 4.702-9.557zM54.55 76.3l-6.298 36.044c-.797-1.385-1.497-2.756-2.098-4.085l4.45-25.214c1.357-2.21 2.672-4.464 3.945-6.745zm5.988 16.036l-4.603 25.94-3.387.477 8.48-47.81c-.126 7.12-.224 14.27-.308 21.436l-.182-.042zm10.2-12.874l11.25 35.905-3.302.308-7.416-23.578-.532-12.635zm14.09-3.694l12.202 38.45-3.708.253-13.755-43.713c1.778 1.75 3.526 3.414 5.262 5.01zM72.6 116.274c-.335-4.87-.698-11.236-1.09-19.1l5.918 18.624-4.827.476zm-15.376 1.833l3.414-19.31c-.07 6.787-.112 13.07-.112 18.876l-3.302.434zm3.386 9.375l-2.07-1.875 2.042-.084.028 1.96zm7.108 5.33c-.154-2.252-.308-4.756-.448-7.485l1.3-.042c.155 3.26.31 6.06.477 8.368l-1.33-.84zm5.54-7.64c28.125-.628 49.814-.153 65.065 1.4-5.288 4.856-11.25 8.592-17.895 11.237-6.87 2.727-14.034 4.098-21.492 4.098-8.592 0-16.763-1.805-24.53-5.415-.377-2.896-.768-6.674-1.146-11.32zm59.02-15.992c3.625 1.693 6.927 3.036 9.92 4.002l-8.688-.112-1.23-3.89zm8.648 14.846c-13.53-1.077-32.882-1.385-58.068-.924 18.37-.825 38.17-.993 59.397-.503l-1.33 1.426zm-10.173-15.573l1.47 4.617h-3.82l-2.182-6.94 4.533 2.323zm-7.317 4.687l-3.218-10.41c1.385.84 2.868 1.693 4.45 2.546l2.434 7.808-3.667.056zm-1.287.014l-3.932.098-4.66-14.706c1.722 1.134 3.4 2.21 5.066 3.218l3.526 11.39zm-23.843.98L86.717 77.5l4.898 4.323 10.186 32.1-3.497.208z" fill="#F7BF53"/>
  </g>
</svg>
