<svg viewBox="0 0 200 200" xmlns="http://www.w3.org/2000/svg">
  <g fill="#DA4648" fill-rule="evenodd">
    <path d="M99.193 149.21c-9.942 0-17.624-1.492-21.32-2.382-2.525-.61-4.553-1.238-6.094-1.885l4.926 8.417 1.927 26.3c0 2.95 9.367 5.34 20.92 5.34 11.555 0 20.922-2.39 20.922-5.34L122 153.075l4.663-8.156c-1.548.656-3.595 1.294-6.152 1.91-3.694.89-11.376 2.383-21.317 2.383zm27.63-85.583c-7.297 1.02-16.98 1.58-27.27 1.58-10.287 0-19.97-.56-27.268-1.58-3.614-.505-6.474-1.1-8.5-1.77-.483-.16-1.3-.432-2.09-.866l4.522 41.608c.21-.716.444-1.432.703-2.145.53-1.46 1.145-2.89 1.84-4.285.7-1.396 1.457-2.715 2.278-3.957.82-1.24 1.693-2.385 2.62-3.43.924-1.045 1.874-1.943 2.85-2.696.974-.752 1.958-1.34 2.95-1.765.994-.424 1.978-.636 2.953-.636 1.123 0 2.21.306 3.258.92 1.05.614 2.03 1.608 2.943 2.982.21.307.344.617.4.93.055.316.082.61.082.89 0 .656-.157 1.176-.472 1.555-.314.38-.688.57-1.12.57-.395 0-.762-.207-1.1-.623-.34-.417-.72-1.012-1.14-1.787-.394-.702-.83-1.21-1.304-1.523-.475-.314-.99-.472-1.545-.472-.863 0-1.785.358-2.766 1.075-.98.715-1.953 1.662-2.915 2.838-.963 1.177-1.886 2.52-2.768 4.034-.882 1.512-1.663 3.06-2.34 4.647-.68 1.585-1.22 3.15-1.62 4.69-.402 1.542-.602 2.926-.602 4.154 0 .41.028.83.083 1.26.056.432.16.823.315 1.174.154.35.364.64.63.865.265.227.6.34 1.008.34.456 0 .974-.154 1.555-.46.58-.307 1.182-.71 1.805-1.206.623-.497 1.25-1.06 1.878-1.688.63-.63 1.216-1.265 1.76-1.908.54-.643 1.023-1.26 1.442-1.852.42-.592.734-1.107.944-1.546l1.72-5.152c.21-.554.484-.95.824-1.183.34-.235.688-.352 1.046-.352.172 0 .345.03.518.088.173.058.327.15.463.274.136.124.244.285.324.482.08.197.12.428.12.69 0 .702-.06 1.36-.184 1.974-.124.614-.28 1.212-.473 1.797-.19.584-.404 1.173-.638 1.765-.235.592-.464 1.21-.686 1.852-.05.074-.138.303-.268.69-.13.388-.286.874-.472 1.458-.185.585-.386 1.24-.602 1.962-.216.724-.437 1.462-.665 2.214-.23.753-.448 1.49-.658 2.215-.21.722-.4 1.376-.565 1.96-.167.585-.305 1.074-.417 1.47-.11.394-.18.627-.203.7-.062.234-.16.494-.296.778-.137.285-.297.556-.483.812-.185.255-.388.468-.61.635-.222.168-.45.253-.685.253-.395 0-.682-.132-.86-.395-.18-.263-.27-.745-.27-1.446v-.307c0-.103.007-.213.02-.33.01-.233.104-.672.277-1.315.172-.643.38-1.37.62-2.18.24-.812.5-1.652.777-2.522.277-.87.527-1.647.75-2.334-.656.73-1.364 1.456-2.13 2.18-.765.723-1.548 1.374-2.35 1.95-.802.578-1.61 1.05-2.424 1.415-.814.365-1.598.548-2.35.548-.864 0-1.608-.19-2.23-.57-.114-.07-.22-.146-.325-.223l2.515 26.376c.655 1.64 12.984 5.674 29.24 5.674 16.263 0 28.597-4.037 29.24-5.677l3.614-31.36-.87.804c-1.035.964-2.014 1.793-2.933 2.487-.918.694-1.816 1.232-2.692 1.61-.877.382-1.815.572-2.814.572-.937 0-1.663-.205-2.175-.614-.51-.41-.768-.97-.768-1.688v-.164c0-.05.007-.114.02-.187.048-.438.24-.943.573-1.512.333-.57.734-1.16 1.202-1.775.47-.613.97-1.235 1.5-1.863.53-.628 1.02-1.224 1.472-1.787.45-.562.823-1.077 1.12-1.545.295-.468.443-.847.443-1.14 0-.175-.062-.314-.185-.417-.123-.1-.327-.153-.61-.153-.494 0-1.003.128-1.527.383-.525.256-1.044.6-1.555 1.03-.512.432-1.012.926-1.5 1.48-.486.556-.943 1.133-1.37 1.732-.425.6-.813 1.203-1.165 1.81-.352.606-.65 1.165-.898 1.675-.074.162-.178.388-.315.68-.135.292-.283.622-.443.987-.16.365-.33.742-.51 1.128-.178.388-.342.754-.49 1.097l-.397.92c-.118.27-.2.457-.25.56-.062.13-.164.38-.306.744-.142.366-.305.794-.49 1.283l-.584 1.545-.573 1.534c-.18.48-.336.905-.472 1.27-.135.365-.223.614-.26.746-.122.38-.268.737-.434 1.074-.166.336-.356.632-.573.888-.215.256-.462.46-.74.613-.278.156-.59.232-.934.232-.445 0-.81-.107-1.102-.318-.288-.212-.434-.618-.434-1.217 0-.292.037-.592.11-.898.075-.308.168-.612.28-.91.11-.3.225-.593.342-.878.117-.285.225-.56.323-.822.668-1.46 1.347-2.926 2.037-4.395.69-1.47 1.354-2.923 1.99-4.362.132-.3.254-.595.383-.893-.04.037-.077.077-.115.114-.802.775-1.6 1.458-2.397 2.05-.796.592-1.586 1.063-2.368 1.414-.784.35-1.546.526-2.287.526-.505 0-.928-.08-1.267-.24-.34-.162-.61-.382-.814-.66-.204-.276-.35-.605-.436-.985-.03-.13-.047-.267-.066-.402-.216.17-.435.333-.655.49-.765.54-1.518.974-2.258 1.302-.74.33-1.407.494-1.998.494-.594 0-1.075-.198-1.446-.592-.37-.394-.554-1.067-.554-2.016 0-.673.098-1.455.295-2.346-.32.57-.72 1.147-1.202 1.73-.482.586-1.03 1.12-1.647 1.602-.618.482-1.31.873-2.073 1.173-.766.3-1.6.45-2.5.45-.406 0-.798-.052-1.174-.155-.378-.102-.708-.277-.99-.526-.285-.248-.513-.58-.686-.997-.173-.416-.26-.94-.26-1.567 0-.015.026-.238.075-.67.048-.43.205-1.11.47-2.038.266-.928.677-2.13 1.23-3.606.557-1.476 1.34-3.266 2.352-5.37.26-.556.558-.954.897-1.195.34-.24.706-.36 1.1-.36.173 0 .352.025.537.076.186.05.358.13.52.24.16.11.29.25.388.418.097.167.148.36.148.58 0 .146-.02.286-.056.416-.062.25-.195.574-.397.976-.204.402-.442.863-.714 1.38-.27.52-.558 1.08-.86 1.68-.303.597-.583 1.218-.842 1.862-.26.643-.482 1.297-.667 1.962-.184.665-.29 1.312-.314 1.94 0 .263.06.504.185.723.123.22.327.33.61.33.802 0 1.567-.265 2.296-.79.727-.526 1.4-1.18 2.017-1.962.618-.78 1.176-1.622 1.676-2.52.5-.9.916-1.72 1.25-2.466.234-.497.44-1.03.62-1.6.178-.57.372-1.096.582-1.58.21-.482.45-.883.722-1.205.27-.322.61-.483 1.017-.483.445 0 .796.168 1.056.504.26.338.388.74.388 1.207 0 .263-.082.625-.25 1.085-.166.46-.375.987-.628 1.58-.253.59-.528 1.223-.823 1.894-.297.673-.572 1.356-.824 2.05-.254.695-.463 1.374-.63 2.04-.167.664-.25 1.282-.25 1.85 0 .527.27.79.814.79.383 0 .857-.13 1.425-.394.568-.264 1.163-.632 1.786-1.108.157-.118.313-.242.47-.372.173-.717.377-1.38.614-1.983.432-1.142.87-2.274 1.314-3.4.444-1.124.85-2.155 1.222-3.09l5.607-14.14c.222-.57.522-.97.897-1.205.377-.234.757-.35 1.14-.35.38 0 .73.123 1.044.372.315.25.473.65.473 1.206 0 .262-.052.54-.157.832-.104.293-.237.607-.398.943-.308.687-.675 1.527-1.1 2.52-.427.995-.883 2.076-1.37 3.245-.488 1.17-.988 2.386-1.5 3.65-.51 1.264-1.01 2.495-1.5 3.694-.486 1.2-.943 2.334-1.37 3.41-.424 1.073-.79 2.005-1.1 2.793-.135.337-.268.728-.397 1.174-.13.445-.194.844-.194 1.195 0 .217.037.392.11.524.075.132.217.198.426.198.26 0 .583-.09.972-.275.388-.182.808-.424 1.258-.723.45-.3.92-.643 1.406-1.03.488-.387.972-.79 1.453-1.206.48-.417.94-.833 1.378-1.25.438-.416.83-.8 1.176-1.15.08-.085.178-.144.285-.19.207-.62.397-1.23.565-1.827.1-.262.235-.634.407-1.117.173-.483.37-.957.592-1.425.222-.467.473-.873.75-1.216.277-.344.577-.516.898-.516.493 0 .85.114 1.073.34.222.227.333.56.333.998 0 .087-.012.226-.037.416-.024.19-.054.39-.09.603-.038.212-.078.413-.122.603-.043.19-.083.33-.12.416.456-.497.95-.99 1.48-1.48s1.08-.932 1.648-1.325c.568-.395 1.147-.716 1.74-.966.592-.246 1.184-.37 1.776-.37.407 0 .812.058 1.212.175.4.116.76.288 1.074.515.315.227.57.51.768.855.197.343.296.74.296 1.194 0 .6-.15 1.238-.453 1.918-.304.68-.683 1.362-1.14 2.05-.456.686-.95 1.354-1.48 2.005-.53.65-1.027 1.242-1.49 1.775-.463.534-.85.986-1.166 1.36-.314.373-.48.624-.49.756 0 .175.055.318.166.428.11.11.296.164.555.164.21 0 .52-.117.926-.35.408-.235.98-.64 1.713-1.217.733-.58 1.666-1.353 2.794-2.325.775-.666 1.68-1.46 2.702-2.364l4.894-45.33c-.788.435-1.608.708-2.092.868-2.025.668-4.884 1.264-8.5 1.77zM99.525 52.87c-21.16 0-38.316 2.367-38.316 5.286 0 2.92 17.154 5.285 38.315 5.285 21.16 0 38.316-2.365 38.316-5.284 0-2.92-17.154-5.285-38.315-5.285zm15.3 6.83c0 .686-2.04 1.24-4.555 1.24-2.515 0-4.553-.554-4.553-1.24 0-.685 2.038-1.24 4.553-1.24s4.554.555 4.554 1.24z"/>
    <path d="M106.64 59.152c-.024.036-.036.073-.036.11 0 .444 1.642.803 3.666.803 2.025 0 3.666-.36 3.666-.802l4.787-19.413 19.04-20.103.02-.02c.402-.455-.416-1.865-1.773-3.075-1.357-1.21-2.822-1.62-3.277-1.16l-.01.012-20.316 21.377-5.768 22.272z"/>
  </g>
</svg>
