<svg viewBox="0 0 200 200" xmlns="http://www.w3.org/2000/svg">
  <path d="M15 15h170v170H15V15zm14.61 161.402v-40.735h8.395v15.53H53.86v-15.53h8.425v40.735H53.86v-18.185H38.006v18.185H29.61zm70.25-40.735v7.213H87.72v33.522h-8.533V142.88H66.992v-7.213H99.86zm31.85 0h12.195v40.735h-7.9V148.85c0-.793.008-1.903.027-3.33.018-1.43.027-2.53.027-3.304l-7.68 34.186h-8.232l-7.625-34.186c0 .774.01 1.875.028 3.303.02 1.427.028 2.537.028 3.33V176.4h-7.9v-40.735h12.332l7.378 32.03 7.322-32.03zm20.068 0h8.478v33.41h20.096v7.325h-28.574v-40.735z" fill="#E44D26" fill-rule="evenodd"/>
</svg>
