<svg viewBox="0 0 200 200" xmlns="http://www.w3.org/2000/svg">
  <g fill="none" fill-rule="evenodd">
    <path d="M15 88h7.877v23.29H15V88zm10.313 0h6.12l6.064 8.953L43.56 88h6.177v23.29h-7.48v-8.387l-4.76 6.97-4.76-6.97v8.387h-7.424V88zm26.804 0h6.176l6.007 8.953L70.363 88h6.177v23.29h-7.48v-8.387l-4.76 7.027-4.76-6.97v8.387h-7.423V88zm35.756 23.913c-1.473 0-2.776-.17-3.966-.566-1.19-.397-2.21-.907-3.06-1.7-.85-.737-1.474-1.7-1.927-2.834-.453-1.133-.68-2.493-.68-4.023V88h7.423v14.507c0 .793.17 1.416.51 1.87.34.453.907.623 1.7.623.794 0 1.36-.227 1.7-.623.34-.454.51-1.077.51-1.87V88h7.48v14.79c0 1.53-.226 2.89-.68 4.023-.453 1.134-1.133 2.097-1.983 2.834-.85.736-1.87 1.303-3.06 1.7-1.19.34-2.493.566-3.967.566zM103.06 94.12h-4.307V88h16.264v6.12h-4.307v17.17h-7.707V94.12h.057zM120.627 88h5.61l8.84 23.29h-7.31l-.794-2.097h-7.083l-.793 2.097h-7.31l8.84-23.29zm4.363 16.093l-1.587-4.08-1.586 4.08h3.173zM135.643 88h9.124c1.19 0 2.21.113 3.173.397.963.283 1.813.68 2.493 1.19.68.51 1.247 1.19 1.587 1.983.397.793.567 1.7.567 2.72 0 .737-.114 1.36-.284 1.927-.17.51-.396.963-.566 1.303-.284.397-.567.793-.85 1.02.51.34.963.737 1.416 1.247.34.453.68 1.02.964 1.7.283.68.453 1.53.453 2.493 0 1.133-.17 2.153-.567 3.06-.396.907-.963 1.7-1.7 2.323-.736.624-1.643 1.134-2.663 1.474-1.077.34-2.267.51-3.57.51h-9.52V88h-.057zm9.804 7.083c0-1.076-.567-1.586-1.757-1.586h-.85v3.23h.85c1.19 0 1.757-.567 1.757-1.644zm-1.757 10.71c1.757 0 2.663-.68 2.663-2.04 0-1.36-.906-2.04-2.663-2.04h-.85v4.08h.85zM155.703 88h7.764v17.17h6.403v6.12h-14.167V88zm15.3 0h13.714v6.12h-6.29v2.607h6.176v5.78h-6.176v2.663H185v6.12h-13.997V88z" fill="#FC4349"/>
    <path d="M15 88h7.877v23.29H15V88zm4.42 20.513V90.777h-.907v17.736h.907zM25.313 88h6.12l6.064 8.953L43.56 88h6.177v23.29h-7.48v-8.387l-4.76 6.97-4.76-6.97v8.387h-7.424V88zm4.364 20.513V92.477l7.82 11.39 7.82-11.39v16.036h.906V90.777h-.906l-7.82 11.503-7.82-11.503h-.907v17.736h.907zM52.117 88h6.176l6.007 8.953L70.363 88h6.177v23.29h-7.48v-8.387l-4.76 7.027-4.76-6.97v8.387h-7.423V88zm4.363 20.513V92.477l7.82 11.39 7.763-11.39v16.036h.907V90.777h-.907L64.3 102.28l-7.82-11.503h-.907v17.736h.907zm31.393 3.4c-1.473 0-2.776-.17-3.966-.566-1.19-.397-2.21-.907-3.06-1.7-.85-.737-1.474-1.7-1.927-2.834-.453-1.133-.68-2.493-.68-4.023V88h7.423v14.507c0 .793.17 1.416.51 1.87.34.453.907.623 1.7.623.794 0 1.36-.227 1.7-.623.34-.454.51-1.077.51-1.87V88h7.48v14.79c0 1.53-.226 2.89-.68 4.023-.453 1.134-1.133 2.097-1.983 2.834-.85.736-1.87 1.303-3.06 1.7-1.19.34-2.493.566-3.967.566zm0-4.193c-3.513 0-5.213-1.7-5.213-5.157V90.777h-.907v11.786c0 1.984.51 3.457 1.587 4.477 1.077 1.02 2.607 1.53 4.533 1.53 1.984 0 3.514-.51 4.59-1.53 1.077-1.02 1.587-2.55 1.587-4.477V90.777h-.963v11.786c0 3.4-1.7 5.157-5.214 5.157zm15.187-13.6h-4.307V88h16.264v6.12h-4.307v17.17h-7.707V94.12h.057zm4.307 14.393V91.627h4.986v-.85h-10.88v.85h4.987v16.886h.907zM120.627 88h5.61l8.84 23.29h-7.31l-.794-2.097h-7.083l-.793 2.097h-7.31l8.84-23.29zM117 108.513l.68-1.756h11.503l.68 1.756h.964l-6.744-17.736h-1.303l-6.743 17.736H117zm6.403-16.886l5.44 14.28h-10.88l5.44-14.28zm1.587 12.466l-1.587-4.08-1.586 4.08h3.173zM135.643 88h9.124c1.19 0 2.21.113 3.173.397.963.283 1.813.68 2.493 1.19.68.51 1.247 1.19 1.587 1.983.397.793.567 1.7.567 2.72 0 .737-.114 1.36-.284 1.927-.17.51-.396.963-.566 1.303-.284.397-.567.793-.85 1.02.51.34.963.737 1.416 1.247.34.453.68 1.02.964 1.7.283.68.453 1.53.453 2.493 0 1.133-.17 2.153-.567 3.06-.396.907-.963 1.7-1.7 2.323-.736.624-1.643 1.134-2.663 1.474-1.077.34-2.267.51-3.57.51h-9.52V88h-.057zm8.557 20.513c2.04 0 3.57-.453 4.533-1.303.964-.907 1.474-2.04 1.474-3.513 0-.964-.227-1.7-.624-2.267-.396-.567-.85-1.02-1.303-1.36-.567-.397-1.247-.623-1.927-.793.567-.17 1.077-.397 1.53-.794.397-.283.737-.736 1.077-1.246.34-.51.453-1.19.453-1.984 0-1.473-.453-2.55-1.416-3.343-.907-.737-2.21-1.133-3.797-1.133h-5.043v17.736h5.043zm-4.137-9.69v-7.196h4.137c1.53 0 2.607.34 3.287 1.02.68.68 1.02 1.53 1.02 2.606 0 1.077-.34 1.927-1.02 2.607-.68.68-1.757 1.02-3.287 1.02h-4.137v-.057zm0 8.84v-7.99h4.08c.737 0 1.417.057 1.984.227.623.17 1.133.397 1.643.68.453.34.85.737 1.077 1.247.283.51.396 1.133.396 1.813 0 1.417-.453 2.437-1.416 3.06-.964.623-2.21.963-3.74.963h-4.024zm5.384-12.58c0-1.076-.567-1.586-1.757-1.586h-.85v3.23h.85c1.19 0 1.757-.567 1.757-1.644zm-1.757 10.71c1.757 0 2.663-.68 2.663-2.04 0-1.36-.906-2.04-2.663-2.04h-.85v4.08h.85zM155.703 88h7.764v17.17h6.403v6.12h-14.167V88zm12.24 20.513v-.85h-7.82V90.777h-.906v17.736h8.726zM171.003 88h13.714v6.12h-6.29v2.607h6.176v5.78h-6.176v2.663H185v6.12h-13.997V88zm11.39 20.513v-.85h-6.97v-7.65h6.63v-.85h-6.63v-7.536h6.97v-.85h-7.876v17.736h7.876z" fill="#2C3E50"/>
  </g>
</svg>
