<svg viewBox="0 0 200 200" xmlns="http://www.w3.org/2000/svg">
  <path d="M24.727 76.088c-1.534 0-3.57 1.643-4.754 2.738-2.63 2.3-4.973 6.572-4.973 10.012 0 4.863 4.162 6.703 5.17 6.703.35 0 .657-.174.657-.656 0-.35-.22-.657-.482-.986-.942-1.468-1.248-2.848-1.248-4.732 0-3.943 1.796-7.536 3.286-9.2.306-.286.92-.92 1.095-.92.22 0 .22.13.22.613l-.154 25.718c0 4.03-1.16 5.63-1.16 6.572 0 .438.218.526.525.526 1.663 0 3.285-1.972 3.723-2.695 1.446-2.453 1.752-4.38 1.752-9.923V78.213c0-.592-.13-.833-.657-1.205-.898-.482-1.774-.92-3.023-.92h.022zm46.53.065c-.766 0-1.095.438-1.138 1.643l-.177 5.127-4.47-.154c-.284 0-.393.087-.525.328-.372.7-.57 1.27-.57 2.19 0 .767.35.877.658.877l4.644.11v9.792c0 2.08-1.314 4.776-3.636 7.01 0 0 .22-.657.175-1.38 0-2.037-1.315-3.856-3.002-5.148l-4.184-3.156c.876-1.007 2.344-3.023 2.344-4.732 0-1.314-.833-1.884-2.41-1.884-2.19 0-4.71 1.972-4.71 4.973 0 1.097.482 2.082 1.227 2.85-1.03 1.905-2.454 4.424-3.506 6.22-.81 1.36-2.19 3.506-2.98 3.506-.59 0-.876-.964-.876-4.557 0-2.98.22-6.222.328-9.333 0-.7-.13-1.358-1.05-2.016-.878-.546-1.93-1.313-3.003-1.313-2.41 0-4.053 2.234-5.17 4.38-1.184 2.258-1.797 4.164-2.695 6.902l.11-9.487c0-.657-.176-.92-.702-1.16-.7-.286-1.752-.658-2.63-.658-.787 0-.875.35-.875 1.16l-.11 11.35v4.38c0 3.944.483 4.6 2.85 4.6 1.27 0 1.685-.152 1.707-1.248.066-.7.395-2.41.877-4.162 1.314-5.104 2.935-9.157 5.695-12.224.285-.306.504-.218.44.22 0 0-.44 6.922-.44 9.75 0 5.037.79 7.666 3.287 7.666 2.453 0 4.885-3.177 6.2-5.302l4.205-7.076c2.738 2.345 4.644 4.163 4.644 6.354 0 1.358-.876 2.716-2.19 2.716-1.622 0-2.674-1.753-3.77-1.753-.92 0-2.102 1.797-2.102 2.805 0 .942 2.06 2.3 5.783 2.3 5.477 0 8.457-3.79 10.23-7.974.352 4.973 2.345 7.886 5.412 7.886 2.038 0 4.382-2.563 5.433-5.696 0 0 .11.81.92 2.476 1.096 2.19 2.804 3.154 4.908 3.154 2.628 0 4.863-1.577 6.22-4.228.22 2.016 1.907 4.228 4.602 4.228 1.752 0 3.286-1.314 4.315-3.46 0 0 1.315 3.548 5.17 3.548 2.147 0 4.69-1.972 5.302-3.44l.066 2.104-5.652 5.258c-1.664 1.6-3.417 3.9-3.417 6.44 0 3.243 3.067 5.105 5.762 5.105 2.76 0 4.6-1.752 5.63-3.285 1.314-1.884 1.818-5.52 1.818-9.07l-.11-5.324c3.813-4.205 6.792-10.01 8.15-14.13l2.892-.086c.548-.044.526.22.438.525-.504 2.146-.942 4.6-.942 7.01 0 4.03.92 5.783 2.258 7.23 1.14 1.182 2.3 1.598 3.505 1.598 2.366 0 3.855-1.927 4.337-3.176 1.096 2.19 2.74 3.176 4.82 3.176 2.63 0 4.885-1.577 6.243-4.228.22 2.016 1.884 4.228 4.6 4.228 2.038 0 3.22-1.183 4.163-3.373 0 .7 0 1.467.044 2.19.044.35.33.57.592.658.876.35 1.62.503 2.3.503 1.752 0 2.19-.372 2.19-1.533 0-1.928 0-4.95.57-7.383.57-2.41 1.446-5.17 2.63-7.076.13-.22.393-.13.437.11.153 4.075.437 10.953 1.49 12.772.547.832 1.357 1.467 2.584 1.467.57 0 1.27-.22 1.468-.394.175-.154.263-.308.263-.592 0-5.214 1.62-10.297 3.242-13.67.044-.088.175-.11.175 0l-.11 3.79c0 6.133.44 10.033 3.506 11.917.504.263 1.16.504 2.015.504 1.578 0 3.002-.877 3.724-2.28.548-1.095 1.096-3.22 1.096-4.425 0-.438 0-1.205-.745-1.205-.438 0-.657.307-.79.79-.218 1.007-.437 1.883-.81 2.847-.35.986-.876 1.533-1.533 1.533-.745 0-1.095-.59-1.314-.942-.985-1.467-1.05-4.82-1.05-7.6l.218-7.187c0-.59-.22-1.313-1.16-1.817-.614-.395-2.19-1.052-3.112-1.052-.876 0-1.314.505-1.643 1.228-.59 1.314-2.585 6.506-3.132 10.735 0 .11-.153.13-.175 0-.262-3.002-.438-6.573-.438-8.982 0-.766-.153-1.796-1.708-2.475-.746-.33-1.382-.504-2.126-.504-.986 0-1.183.44-1.534 1.097-1.052 1.97-1.796 4.534-2.914 7.8v-7.45c0-.35-.22-.81-.81-.942-1.534-.35-2.19-.504-2.804-.504-.438 0-.658.352-.658.724l-.11 12.706c-.284 1.534-1.467 5.258-3.154 5.258-1.38 0-2.037-1.402-2.037-7.23l.263-9.55c0-.658-.395-.877-.986-1.14-.81-.33-1.468-.438-2.3-.438-1.052 0-1.424.482-1.205 1.687-1.16-1.534-2.3-2.41-4.338-2.41-4.118 0-7.23 4.907-7.23 12.05 0 2.036.44 4.03.44 4.03-.352 1.643-1.206 3-2.41 3-1.534 0-2.498-2.146-2.498-5.87s1.423-7.952 1.423-9.092c0-1.314-.833-2.19-2.41-2.19-.745 0-3.593.657-5.04.876 0 0 .155-.7.133-1.248 0-1.314-.614-2.125-2.125-2.125-1.883 0-3.285 1.36-3.285 3.615 0 1.03.613 1.972 1.38 2.476-.986 4.162-2.63 7.317-5.04 10.8l.22-14.108c0-.44-.13-.745-1.03-1.096-.48-.22-1.248-.438-2.234-.438-1.423 0-1.313 1.008-1.248 1.753-.657-1.14-2.06-2.5-4.25-2.5-5.958 0-7.777 9.093-6.88 15.555 0 .79-.81 3.57-2.54 3.57-1.38 0-2.015-1.4-2.015-7.228l.22-9.552c0-.657-.374-.876-.943-1.14-.877-.328-1.534-.437-2.344-.437-1.052 0-1.402.482-1.183 1.687-1.183-1.534-2.344-2.41-4.382-2.41-4.096 0-7.23 4.49-7.23 11.655 0 2.738-2.343 6.9-3.986 6.9-.92 0-1.885-1.686-1.885-5.98 0-2.958.394-12.926.394-12.926l5.76-.11c.264 0 .44-.284.526-.48.263-.527.395-.877.395-1.535 0-.57-.11-.79-.876-.833l-5.695-.35.218-5.368c0-.33-.176-.548-.548-.724-1.095-.438-2.476-.876-3.33-.876l.088.153zm17.417 14.02c1.533 0 3.067 1.403 3.067 6.354 0 6.266-2.255 9.2-4.008 9.2-1.643 0-2.892-2.343-2.892-6.9 0-4.6 1.227-8.653 3.834-8.653zm55.25 0c1.533 0 3.067 1.403 3.067 6.354 0 6.266-2.255 9.2-4.008 9.2-1.643 0-2.892-2.343-2.892-6.9 0-4.6 1.227-8.653 3.834-8.653zm-35.052 0c2.016 0 2.892 2.082 2.892 6.09 0 6.07-1.796 9.51-3.943 9.51-1.423 0-3.022-2.3-2.935-6.792 0-2.847.942-8.762 3.987-8.762v-.044zm3.396 20.22v2.41c0 7.888-2.103 9.202-3.79 9.202-.657 0-2.19-.482-2.19-2.41 0-2.738 2.847-5.85 3.724-6.79l2.256-2.41z" fill="#3F5D87" fill-rule="evenodd"/>
</svg>
