<svg viewBox="0 0 200 200" xmlns="http://www.w3.org/2000/svg">
  <path d="M141.718 107.843c.762.76.83 2.007-.07 2.63-2.214 1.453-5.05 1.246-7.68.97-4.43-.486-9.69-.693-11.974-4.846-.07 0-.07-.07-.14-.138-2.905-1.593 2.008-2.7 3.393-2.908 3.114-.415 6.436.415 9.48 1.107 2.562.484 4.984 1.176 6.99 3.183zm40.418 66.025c-2.076 1.453-1.177 3.944-2.63 5.675-1.453 1.66-4.983 1.66-6.852 1.66-7.96.07-15.71-.553-23.53.07-2.008.138-3.807.415-5.676.9-.553.138-1.453.484-2.076.138-1.592-.83-3.045-3.46-5.12-2.63-1.73.762-3.046 3.254-5.123 1.73-3.807-2.836-6.99-.276-11.005.486-4.152.83-8.097-1.454-12.18-.346-3.046.9-5.952 1.8-9.067.76-3.114-1.106-3.945-3.53-1.245-5.812 4.29-3.53 9.62-4.084 14.95-3.67 8.096.694 16.124.07 24.22-.345.278 0 .417.14.417.346 3.46 1.384 5.675-1.385 7.682-3.807.277-.346.76-.138.9.07 2.906 4.29 6.436-.554 10.104-.14.97.07 1.87.347 2.49 1.247.278.415.347.9.347 1.384.14 2.214 2.976 1.73 2.907-.485 0-.347.415-.693.762-.554 2.906 1.176 6.644 2.7 8.997-.346 2.006-2.56 2.282-6.23 2.49-9.344.415-8.374-.138-16.956-.76-25.26-.486-8.098-1.385-16.334-.416-24.43.968-8.03.9-15.85.76-23.947-.068-4.223-.276-8.445 0-12.666.14-3.876.83-8.028.416-11.904-.415-3.46-2.49-6.436-2.907-9.828-.415-3.114 0-6.367.762-9.412.415-1.87 1.384-4.152 1.315-6.09-.07-1.66-.14-3.392-.07-5.053 0-.83-.138-2.145.485-2.837.97-1.177 1.453-2.907-.83-3.114-5.468-.693-11.074-4.153-16.265-.762.07 1.177.14 2.492-.138 3.668l.76.97c1.316.553 2.63.76 4.085.83 1.66 0 3.46-.416 5.12-.277 1.385.138 2.562 1.384 2.077 2.976-.346 1.177-1.384 2.146-2.007 3.115-1.107 1.73-.9 4.222-.9 6.23-.07 5.05 0 10.103.14 15.017.137 4.153.553 8.374.83 12.527.07.068.345.137.345.345.14 4.706 1.73 9.343 1.8 14.05.07.068-1.246 5.813-1.246 5.813-.07 6.09-.554 17.37-.554 17.37-.07 10.382-1.868 20.694-.07 31.006.763 4.153-.83 8.167-.968 12.32-.138 4.567.416 9.066-.277 13.633.07.277 0 .554-.346.692-9.48 1.8-19.1 2.145-28.79 1.59-2.422-.137-5.26-.345-7.612.555-.9.415-2.146.97-3.253.9-1.384-.14-2.076-1.246-3.39-1.454-1.662-.345-3.254-.69-4.846-.83-4.292-.553-8.375-.83-12.39.9-2.214.97-4.567.554-6.78-.346-2.63-1.107-4.638-2.422-7.545-.97-1.177.555-2.215 1.178-3.53 1.455-1.107.276-2.076 0-3.045-.416-2.215-.83-3.945-1.108-6.298-.692.277.346.07.968-.415.968-14.05-.76-28.168.9-42.217 1.108-.692.138-1.177.9-1.592.9h-.415c-.346 0-.415-1.177-.346-1.385-1.87-2.076-1.384-8.928-1.315-10.935.553-13.08-1.108-26.23-1.454-39.24-.138-6.506-.138-13.08.9-19.517 1.246-7.266 1.246-14.326 1.107-21.592-.346-14.465 1.108-28.86.693-43.325 0-.277.276-.346.415-.277l.138-.07c3.877-.345 8.1-1.383 11.905-.345.07 0 .138.07.138.14l.554.07h4.29c.14 0 .347.068.347.137 7.613.07 15.226-.553 22.84-.9 2.63-.07 5.397 0 8.027-.83 1.316-.415 2.908-1.107 4.292-.97 3.46.278 6.99 1.316 10.38 2.077 2.423.485 4.084-3.668 6.23-2.214 3.253 2.076 6.99 1.315 10.727 1.384 2.006.07 3.875-.346 5.882-.346 1.107 0 2.007.277 2.976.484.97-.138 1.8-.07 2.907.346l17.717-.553c3.53.07 7.405.346 10.796-.97.9-.345 1.385-.83 1.66-1.383-.137-.277-.275-.554-.414-.9-.277-.485-.554-1.108-.9-1.454-3.806-1.245-8.166-.9-12.18-1.107-5.468-.276-10.797.486-16.264.9-5.052.416-10.312.762-15.364.347-2.976-.277-8.582-1.592-11.143.484-.277.14-.484.14-.76 0-4.846-3.944-11.213 2.008-16.75.347-3.322-.97-6.436-1.66-9.966-1.245-3.39.346-6.713.83-10.173.83-7.544-.07-15.018.415-22.562.14-1.66-.07-3.253-.07-4.776-.278-1.314-.14-3.045-.83-4.36-.277-2.076.76-2.49 1.453-2.284 2.076.554.415-1.384 3.045-1.384 4.36l-.138 3.46c-.07 5.122-.415 9.828-1.592 14.81-.554 2.63-1.87 6.368-.9 8.998.554 1.73 1.87 2.908 2.63 4.43 1.315 2.838 1.384 6.3 1.246 9.344l-.83 29.76c-.346 9.896-.97 19.862-.554 29.828.346 9.205 1.8 18.617.554 27.753-.416 3.045-4.084 8.443-.554 10.588 2.007 1.177 4.36 1.454 6.644 1.66 5.606.347 11.212-.275 16.887-.898 2.077-.277 4.153-.692 6.23-.692 1.59-.07 3.045.138 4.567.692 1.315.484 3.322 1.384 4.845 1.384.07.068 2.49-.07 2.63-.762 2.076-.9 3.875-1.592 6.505-1.108 2.56.485 4.845.83 7.544.346 1.385-.277 3.46-.415 4.846-.07l.553.416c.553-.276-.347.692-.9.9-3.115 1.246-2.146 5.26-2.492 7.96 0 .276-.346.345-.484.345-1.246 0-2.976 0-3.668-1.315-1.454-2.7-4.983-4.568-4.983 1.107 0 .345-.277.484-.485.484-.277 0-.484-.14-.484-.485 0-.347-3.668-2.284-4.084-2.492-1.8-.97-3.875-2.146-6.02-1.384-1.316.415-2.423 1.176-3.67 1.73-2.213 2.7-4.567 5.606-7.82 3.876-.69-.346-3.39-2.7-3.944-2.215-.762.83-1.592 1.66-2.63 2.076-2.976 1.178-6.09.97-9.274.9-.138 0-.485-.137-.485-.414-.138-1.246-.83-3.738-2.56-2.215-.415.347-.762.693-1.177 1.108-.484.416-1.107.97-1.73 1.246-2.076.83-8.443-.277-9.274-1.73-.692-1.107-.9-2.215-1.176-3.46-.485-3.046-.14-6.368-.277-9.482-.277-7.82-.83-15.503-1.454-23.323-.347-3.946-.693-8.03-.347-12.043.14-2.56.277-6.09 1.592-8.444 1.107-1.87.346-3.39-1.107-4.775-.346-.416-.485-1.177-.485-1.66-.276-2.908.277-5.953.416-8.86.137-2.145.483-4.29.483-6.436 0-1.66-.346-3.253-.484-4.845-.07-.83-.14-1.66.345-2.422.97-1.384.83-2.146.276-3.737-1.106-3.046 0-6.714.14-9.897.277-3.736.415-7.404 0-11.21-.415-4.153-1.246-8.168-.97-12.39.278-3.806.485-7.266.693-11.003.346-6.783.346-13.634.138-20.417v1.592s-.552-8.65 3.047-10.727c5.536-3.045 12.25-2.56 18.27-2.838 7.82-.346 15.71.415 23.53.415 4.57 0 9.068-.07 13.497-1.107 3.114-.692 6.23-.97 9.412-.83 3.876.276 7.613 1.245 11.42 1.59 3.806.347 7.543.14 11.35-.068 8.236-.553 16.54-.346 24.776 0l12.873.554c2.007.07 4.29.555 6.23.07l3.667-1.246c2.7-.76 4.568-.07 7.198.554l9.69 2.284c1.106-.277 2.144-.346 2.975.484 1.8 1.66.07 3.738 1.384 5.606 1.59 2.215 3.044 3.668 3.39 6.506.346 3.045.485 6.367-.484 9.343-.692 2.008-1.592 4.153-.762 6.3.485 1.314 1.385 2.56 1.73 3.944.693 2.976.693 5.952.485 8.997-.14 3.46-.347 6.99-.762 10.382-.277 2.215-1.177 4.36-1.246 6.506-.07 1.8.484 3.322.83 5.052 1.177 5.675-3.806 9.274-4.706 14.464-.484 2.838 2.7 1.592 4.153 3.253.9 1.107.414 2.907.345 4.083-.346 3.046.554 6.022.415 9.067-.138 3.806-1.315 6.92-.415 10.727.484 2.145.9 4.29.415 6.436-.484 2.146-2.976 7.544.346 8.513.14 0 .277.138.277.346 0 .968-.138 1.66-.554 2.56-1.454 3.322.83 2.63 1.245 4.775.415 2.007-.76 2.7-1.107 4.568-.485 2.976 1.107 5.26.97 8.166-.07 2.7-1.593 4.22-1.11 6.713.14 0 .347.138.347.346.277 1.314.416 2.836-.07 4.15-.69 1.87-1.452 2.423.693 3.53.554-.414.554.07.208.278zm-36.196-91.84c-1.315-8.097-2.076-16.54-4.775-24.292-1.177-3.253-1.73-6.782-5.537-7.405-4.983-.83-3.322 3.323-2.63 7.268.97 6.09 1.384 12.32 2.976 18.34 1.107 4.152 3.114 9.066-2.422 5.883-9.274-5.605-12.458-17.855-16.195-26.99-1.66-4.153-6.506-14.05-9.828-16.54-1.592-1.178-9.413-2.908-10.936-1.87-3.252 2.215 6.783 17.786 8.167 20.555 3.046 6.23 6.3 12.388 10.244 17.994 2.837 3.944 7.267 7.612.97 9.965-6.507 2.49-9.69-1.177-14.12-4.568-3.53-2.63-8.028-3.045-12.457-3.53-12.18-1.453-23.74-.07-33.497 8.03-4.706 3.944-7.682 9.342-10.174 14.88-.692 1.383-4.706 13.633-4.152 13.702-2.492-.416-.97-6.23-4.153-2.84-2.836 2.977.832 11.56 2.078 14.535 2.837 6.644 5.813 13.15 8.028 20.07 2.214 6.92 2.7 6.783 9.066 7.336 8.097.763 16.056-1.73 24.015-2.698 0 0-14.118-8.79 13.773.83 6.23 2.146 12.803 1.593 19.31 1.8 4.636-1.107 4.774-9.066 7.197-12.803.9-1.385 5.398-8.445 6.782-8.998 2.006-.762 4.844 1.315 6.85 1.59 11.628 1.8 15.226-7.75 13.358-17.093-1.592-8.168-.692-17.303.484-23.6.485-2.354-2.007-7.406-2.422-9.552zM93.965 181.41c-1.246-1.175-3.115-1.452-4.36-2.698-.693-.76-.9-1.453-.762-2.284 0 0-.07 0-.07-.07-.9-1.66 1.177-3.044 2.63-2.49.762.346 1.87.83 2.008 1.73.07 1.176-.69 2.007-.9 3.045.832.484 1.662 1.66 2.077 2.215.277.484-.276.9-.622.553z" fill="#C1272D" fill-rule="evenodd"/>
</svg>
