<svg viewBox="0 0 200 200" xmlns="http://www.w3.org/2000/svg">
  <path d="M15 15h170v170H15V15zm59.974 132.11v1.66c.13 5.567.737 9.482 1.824 11.744 1.086 2.262 3.412 3.394 6.98 3.394 3.533 0 5.868-1.237 7.003-3.71.682-1.466 1.022-3.94 1.022-7.423v-50.342h14.98v50.098c0 6.12-1.053 10.97-3.16 14.55-3.568 6.056-10.004 9.083-19.31 9.083s-15.548-2.45-18.725-7.348c-3.178-4.9-4.767-11.58-4.767-20.044v-1.66h14.154zm57.49 5.08c.453 3.287 1.345 5.744 2.674 7.372 2.432 2.962 6.6 4.443 12.5 4.443 3.534 0 6.404-.39 8.61-1.172 4.182-1.497 6.273-4.28 6.273-8.35 0-2.376-1.036-4.215-3.112-5.517-2.075-1.27-5.334-2.392-9.776-3.37l-7.587-1.708c-7.458-1.693-12.614-3.532-15.467-5.518-4.83-3.32-7.247-8.512-7.247-15.576 0-6.445 2.336-11.8 7.005-16.064 4.67-4.265 11.527-6.397 20.573-6.397 7.556 0 14 2.01 19.334 6.03 5.334 4.02 8.13 9.856 8.39 17.505h-14.397c-.26-4.33-2.14-7.405-5.642-9.228-2.334-1.204-5.236-1.807-8.706-1.807-3.858 0-6.94.782-9.24 2.344-2.303 1.563-3.454 3.744-3.454 6.543 0 2.572 1.135 4.492 3.404 5.762 1.46.846 4.572 1.84 9.34 2.978l12.353 2.98c5.415 1.3 9.5 3.042 12.256 5.223 4.28 3.386 6.42 8.285 6.42 14.698 0 6.576-2.504 12.037-7.514 16.383-5.01 4.345-12.086 6.518-21.23 6.518-9.34 0-16.683-2.14-22.033-6.42-5.35-4.28-8.026-10.164-8.026-17.65h14.3z" fill="#F7DF1E" fill-rule="evenodd"/>
</svg>
