<svg viewBox="0 0 200 200" xmlns="http://www.w3.org/2000/svg">
  <path d="M30.102 74v37.754c0 8.306-6.796 15.1-15.102 15.1v-7.55c4.207 0 7.55-3.343 7.55-7.55V74h7.552zm137.855 7.55H185V74h-41.53v7.55h16.936v45.305h7.55V81.55zM120.71 74v37.754c0 4.207-3.343 7.55-7.55 7.55s-7.55-3.343-7.55-7.55V89.102C105.61 80.796 98.812 74 90.507 74c-8.306 0-15.102 6.796-15.102 15.102v22.652c0 4.207-3.344 7.55-7.55 7.55-4.208 0-7.55-3.343-7.55-7.55V74h-7.552v37.754c0 8.306 6.795 15.1 15.1 15.1 8.307 0 15.103-6.794 15.103-15.1V89.102c0-4.207 3.344-7.55 7.55-7.55 4.207 0 7.55 3.343 7.55 7.55v22.652c0 8.306 6.797 15.1 15.103 15.1 8.306 0 15.1-6.794 15.1-15.1V74h-7.55z" fill="#000" fill-rule="evenodd"/>
</svg>
