<svg viewBox="0 0 200 200" xmlns="http://www.w3.org/2000/svg">
  <g fill="none" fill-rule="evenodd">
    <path d="M162.88 77.934h-9.73v-5.018c0-3.994-3.277-7.27-7.27-7.27-3.994 0-7.272 3.276-7.272 7.27v5.018h-9.728v-5.018c0-9.422 7.68-17 17-17 9.42 0 17 7.68 17 17v5.018zm-42.296-4.61h-10.138c-1.64 0-2.97-1.33-2.97-2.97 0-1.637 1.33-2.968 2.97-2.968h10.138c1.64 0 2.97 1.33 2.97 2.97 0 1.638-1.33 2.97-2.97 2.97zm7.17-15.975c-.615 0-1.332-.205-1.844-.717l-7.988-6.555c-1.23-1.024-1.434-2.867-.41-4.198 1.024-1.23 2.868-1.434 4.2-.41l7.987 6.554c1.228 1.024 1.433 2.868.408 4.2-.716.716-1.536 1.125-2.355 1.125zm18.126-6.964c-1.64 0-2.97-1.332-2.97-2.97v-10.24c0-1.64 1.33-2.97 2.97-2.97 1.638 0 2.97 1.33 2.97 2.97v10.24c0 1.638-1.332 2.97-2.97 2.97zm18.024 6.963c-.82 0-1.74-.41-2.253-1.127-1.023-1.23-.82-3.175.41-4.2l7.988-6.553c1.23-1.024 3.175-.82 4.2.41 1.023 1.228.818 3.174-.41 4.198l-7.99 6.555c-.613.512-1.228.716-1.944.716zm17.307 15.975h-10.24c-1.64 0-2.97-1.33-2.97-2.97 0-1.638 1.33-2.97 2.97-2.97h10.24c1.64 0 2.97 1.332 2.97 2.97 0 1.64-1.33 2.97-2.97 2.97z" fill="#FFA400"/>
    <path d="M166.873 77.934h-41.987c-1.844 0-3.278 1.433-3.278 3.277v31.03c0 1.844 1.434 3.278 3.278 3.278h41.987c1.844 0 3.278-1.434 3.278-3.277V81.21c-.102-1.843-1.536-3.276-3.277-3.276zm-18.945 20.38v4.198c0 1.127-.922 2.15-2.15 2.15-1.127 0-2.15-.92-2.15-2.15v-4.2c-1.333-.716-2.152-2.15-2.152-3.788 0-2.355 1.946-4.3 4.3-4.3 2.357 0 4.302 1.945 4.302 4.3.103 1.64-.82 3.072-2.15 3.79zM15.922 115.107V82.03h7.988v26.115h12.8v6.963H15.923zm47.21-11.367v1.843H46.236c.102.616.307 1.23.614 1.742s.716 1.024 1.228 1.332c.512.41 1.127.716 1.74.92.616.206 1.333.31 1.947.31 1.23 0 2.253-.206 3.072-.718.82-.41 1.536-1.025 2.05-1.742l5.324 3.38c-1.126 1.638-2.56 2.764-4.3 3.686-1.74.82-3.892 1.33-6.247 1.33-1.74 0-3.38-.306-4.916-.818-1.536-.512-2.867-1.33-4.096-2.355-1.126-1.023-2.048-2.355-2.764-3.89-.717-1.537-1.025-3.278-1.025-5.224 0-1.946.31-3.584 1.026-5.12.614-1.536 1.536-2.868 2.662-3.892 1.127-1.024 2.458-1.946 3.994-2.458 1.536-.614 3.175-.92 4.916-.92 1.74 0 3.277.306 4.71.818 1.434.614 2.663 1.434 3.687 2.458 1.025 1.126 1.844 2.458 2.356 3.994.615 1.638.923 3.38.923 5.325zm-7.066-2.867c0-1.228-.41-2.253-1.126-3.174-.717-.923-1.946-1.333-3.482-1.333-.717 0-1.434.103-2.048.308-.615.205-1.127.512-1.64.92-.51.41-.818.923-1.125 1.435-.308.512-.41 1.127-.512 1.74h9.933v.103zm19.356-3.277v8.91c0 1.127.205 1.946.614 2.458.41.512 1.127.82 2.253.82.41 0 .818 0 1.228-.103.41-.102.82-.204 1.024-.307l.103 5.633c-.512.205-1.23.307-2.05.512-.818.102-1.637.205-2.456.205-1.538 0-2.87-.205-3.893-.615-1.024-.41-1.946-.92-2.56-1.638-.615-.717-1.127-1.64-1.332-2.663-.204-1.024-.41-2.15-.41-3.38v-9.83h-3.788V91.86h3.686v-6.143h7.58v6.144h5.426v5.736H75.42zm30.21 1.127c-.614-.615-1.33-1.127-2.15-1.536-.82-.41-1.74-.615-2.663-.615-.718 0-1.332.103-1.947.41-.614.307-.92.717-.92 1.434 0 .614.306 1.126 1.023 1.433.717.307 1.74.614 3.277.92.922.206 1.74.41 2.663.82.92.41 1.638.82 2.355 1.332.718.512 1.332 1.23 1.742 2.048.41.82.615 1.74.615 2.867 0 1.434-.308 2.663-.922 3.687-.615 1.024-1.332 1.843-2.356 2.458-.922.614-2.05 1.024-3.175 1.33-1.23.308-2.356.41-3.585.41-1.945 0-3.79-.306-5.53-.92-1.843-.615-3.38-1.537-4.506-2.663l4.3-4.507c.718.716 1.538 1.33 2.562 1.843 1.024.512 2.048.717 3.174.717.615 0 1.23-.103 1.844-.41.614-.307.92-.82.92-1.536 0-.717-.408-1.23-1.125-1.64-.718-.306-1.947-.715-3.483-1.023-.82-.204-1.64-.41-2.458-.717-.82-.307-1.537-.716-2.15-1.228-.616-.513-1.128-1.23-1.538-1.947-.41-.82-.614-1.74-.614-2.765 0-1.434.307-2.56.922-3.585.614-1.024 1.33-1.74 2.253-2.355.92-.615 1.945-1.127 3.072-1.33 1.126-.31 2.253-.41 3.38-.41 1.74 0 3.48.306 5.12.818 1.638.512 3.072 1.332 4.2 2.458l-4.302 4.2zm-89.71 54.687v-33.08h22.223v6.76H23.602v6.247h13.723v6.35H23.602v6.86h15.362v6.863H15.922zm43.217 0v-12.7c0-.614-.104-1.228-.206-1.843-.103-.614-.307-1.126-.512-1.536-.205-.408-.615-.818-1.024-1.023-.41-.307-1.025-.41-1.74-.41-.718 0-1.333.103-1.845.41s-.92.615-1.33 1.127c-.308.512-.616 1.024-.82 1.638-.205.615-.308 1.23-.308 1.844v12.596h-7.68v-23.247h7.373v3.175h.103c.308-.512.615-1.024 1.127-1.434.41-.512 1.024-.922 1.536-1.23.615-.306 1.23-.613 1.946-.818.716-.205 1.433-.307 2.252-.307 1.536 0 2.868.308 3.994.82 1.127.512 1.946 1.33 2.663 2.15.716.922 1.125 1.946 1.432 3.073.308 1.126.41 2.253.41 3.482v14.337H59.14v-.102zm27.444-15.77c-.41-.513-1.024-1.026-1.74-1.333-.717-.307-1.537-.512-2.254-.512-.82 0-1.536.205-2.15.512-.615.307-1.23.717-1.64 1.332-.408.613-.818 1.125-1.125 1.842-.308.717-.41 1.434-.41 2.253 0 .82.102 1.536.41 2.253.205.717.614 1.33 1.126 1.843.513.513 1.025 1.025 1.742 1.333.717.307 1.434.512 2.253.512.82 0 1.536-.103 2.356-.41.717-.307 1.332-.717 1.844-1.33l4.2 5.222c-.923.92-2.254 1.638-3.688 2.15-1.536.512-3.175.82-4.813.82-1.844 0-3.585-.308-5.12-.82-1.64-.512-2.97-1.33-4.2-2.458-1.126-1.025-2.048-2.356-2.765-3.892-.716-1.536-1.024-3.277-1.024-5.223 0-1.946.308-3.584 1.024-5.12.717-1.537 1.64-2.868 2.765-3.892 1.127-1.024 2.56-1.946 4.2-2.458 1.638-.614 3.276-.82 5.12-.82.82 0 1.638.103 2.458.206.82.205 1.64.41 2.356.615.717.307 1.434.615 2.15 1.024.615.41 1.23.818 1.64 1.33l-4.712 5.02zm22.326-1.128c-.308-.102-.717-.205-1.024-.205h-.922c-1.024 0-1.844.205-2.56.512-.717.41-1.23.82-1.64 1.33-.41.513-.716 1.127-.92 1.742-.205.614-.308 1.126-.308 1.638v11.88h-7.68v-23.247h7.373v3.38h.1c.616-1.23 1.435-2.15 2.562-2.868 1.126-.717 2.355-1.127 3.79-1.127h.92c.308 0 .512.103.717.103l-.41 6.862zm18.024 20.38c-.512 1.228-1.024 2.253-1.536 3.277-.615.92-1.23 1.74-2.05 2.457-.818.716-1.74 1.126-2.764 1.536-1.024.307-2.355.512-3.79.512-.716 0-1.433 0-2.252-.103-.717-.102-1.434-.205-1.946-.41l.82-6.45c.41.1.82.204 1.23.306.408.102.818.102 1.227.102 1.23 0 2.05-.307 2.56-.82.513-.51 1.025-1.33 1.332-2.354l.717-1.946-9.73-22.837h8.5l5.224 14.95h.102l4.61-14.95h8.09l-10.344 26.73zm38.3-15.157c0 1.638-.204 3.175-.716 4.71-.512 1.537-1.23 2.766-2.15 3.995-.922 1.126-2.15 2.048-3.482 2.765-1.332.717-2.97 1.024-4.71 1.024-1.435 0-2.766-.308-4.098-.82-1.23-.615-2.253-1.332-2.97-2.356h-.102v13.826h-7.68v-34.41h7.27v2.867h.103c.716-.92 1.74-1.74 2.97-2.457 1.228-.717 2.764-1.025 4.505-1.025 1.638 0 3.174.308 4.608 1.025 1.33.614 2.56 1.536 3.482 2.662.922 1.127 1.64 2.458 2.15 3.892.513 1.126.82 2.662.82 4.3zm-7.475 0c0-.717-.103-1.434-.308-2.15-.205-.718-.615-1.332-1.024-1.844-.41-.51-1.024-1.023-1.74-1.33-.718-.308-1.435-.512-2.357-.512-.92 0-1.637.204-2.354.512-.717.307-1.23.82-1.74 1.33-.513.513-.82 1.23-1.128 1.947-.307.717-.41 1.433-.41 2.15 0 .717.103 1.434.41 2.15.308.718.615 1.332 1.127 1.947.512.512 1.024 1.024 1.74 1.33.718.308 1.435.513 2.356.513.923 0 1.742-.205 2.357-.512.717-.307 1.23-.82 1.74-1.33.41-.513.82-1.23 1.025-1.947.205-.82.307-1.536.307-2.253zm19.662-5.837v8.91c0 1.126.205 1.945.614 2.457.41.512 1.127.82 2.253.82.41 0 .818 0 1.228-.103.41-.102.82-.205 1.024-.307l.103 5.632c-.512.205-1.23.307-2.05.512-.818.102-1.637.204-2.456.204-1.538 0-2.87-.205-3.893-.614-1.024-.41-1.946-.922-2.56-1.64-.615-.716-1.127-1.637-1.332-2.662-.204-1.024-.41-2.15-.41-3.38v-9.83h-3.686v-5.735h3.686v-6.145h7.476v6.145h5.427v5.735h-5.428zM87.916 81.416c-2.253 0-4.097 1.638-4.097 3.79 0 2.252 1.535 3.686 3.788 3.686.205 0 .41 0 .512-.103-.41 1.638-1.945 2.867-3.48 3.07h-.31v3.586h.41c1.844-.205 3.585-1.024 4.917-2.253 1.74-1.64 2.662-4.097 2.662-6.964 0-2.766-1.844-4.814-4.404-4.814z" fill="#003A70"/>
  </g>
</svg>
