<svg viewBox="0 0 22 22" xmlns="http://www.w3.org/2000/svg">
  <path d="M12.58 3l-.13-.326c-.433-1.094-1-1.65-1.567-1.673h-.05H11c5.523 0 10 4.477 10 10s-4.477 10-10 10S1 16.523 1 11c0-5.45 4.36-9.883 9.784-9.998l.05-.002c-.017.002-.034.002-.05.002-.56.04-1.112.597-1.54 1.672L9.117 3h3.463zm4.59 15.362c-.36.422-.892.668-1.57.668H6.095c-.904 0-1.55-.437-1.87-1.147C4.945 18.575 5.92 19 6.997 19h8.008c.798 0 1.542-.234 2.166-.638zM12.58 3l4.75 11.988c.558 1.41.455 2.65-.16 3.374 1.1-.71 1.83-1.95 1.83-3.358V6.996C19 4.79 17.21 3 15.004 3H12.58zM4.224 17.883c-.33-.734-.31-1.76.14-2.895L9.116 3h-2.12C4.79 3 3 4.79 3 6.996v8.008c0 1.13.47 2.152 1.225 2.88z" stroke="#000" fill="none" fill-rule="evenodd"/>
</svg>
