<svg viewBox="0 0 200 200" xmlns="http://www.w3.org/2000/svg">
  <path d="M185 147.057c0 .854-1.024 1.536-3.072 2.048-4.097 1.025-9.302 1.537-15.618 1.537-1.365.17-2.688.256-3.968.256H41.114c-2.048 0-4.523-.043-7.424-.128-2.902-.086-5.718-.3-8.45-.64-1.365-.17-2.645-.3-3.84-.385-1.194-.085-2.304-.298-3.328-.64-2.048-.512-3.072-1.194-3.072-2.048v-.512l.512-.256c.17 0 .853-.342 2.048-1.025 1.024-.853 2.304-1.62 3.84-2.304.683-.34 1.366-.725 2.05-1.15.682-.428 1.45-.812 2.303-1.153 1.365-.854 2.432-1.45 3.2-1.793.768-.34 1.494-.682 2.177-1.024l1.024-.256c-.512-.853-.768-1.62-.768-2.304V55.657c0-1.878.682-3.5 2.048-4.865C34.63 49.597 36.164 49 38.042 49h123.916c1.707 0 3.328.597 4.864 1.792 1.195 1.536 1.792 3.158 1.792 4.865v79.623c0 .683-.256 1.45-.768 2.304l1.024.256c.683.342 1.41.683 2.177 1.024.768.342 1.92.94 3.456 1.793.683.34 1.365.725 2.048 1.152.684.425 1.452.81 2.305 1.15l3.84 2.305c.854.683 1.452 1.024 1.793 1.024l.512.255v.512zM32.922 135.28c0 .512.256 1.024.768 1.536.34.342.853.512 1.536.512h129.548c.683 0 1.195-.17 1.536-.512.512-.512.768-1.024.768-1.536V55.657c0-1.537-.512-2.817-1.536-3.84-1.195-.854-2.39-1.28-3.584-1.28H38.042c-1.195 0-2.39.426-3.584 1.28-1.024 1.023-1.536 2.303-1.536 3.84v79.623zM100 55.657c-.34 0-.683-.17-1.024-.512-.34-.342-.512-.683-.512-1.025 0-.34.17-.682.512-1.024.34-.34.683-.512 1.024-.512.34 0 .683.17 1.024.512.34.342.512.683.512 1.024 0 .342-.17.683-.512 1.025-.34.34-.683.512-1.024.512zM40.09 130.16V57.705h119.82v72.455H40.09zm1.793-70.92v69.383h116.234V59.24H41.883zm133.132 89.353c4.096-.34 6.657-.853 7.68-1.536-.682-.17-1.535-.682-2.56-1.536-1.194-.51-2.39-1.108-3.584-1.79-1.364-.684-2.602-1.324-3.71-1.92-1.11-.6-1.92-1.068-2.433-1.41-.683-.34-1.366-.597-2.05-.767-.68-.17-1.28-.342-1.79-.513h-5.633l14.85 7.17h-66.31c0 .682-.257 1.023-.77 1.023-.34.342-.767.512-1.28.512h-14.85c-.51 0-.937-.17-1.28-.512-.51 0-.767-.34-.767-1.024h-66.31l14.85-7.17h-4.353c-.342 0-1.366.17-3.072.513-.683.17-1.366.426-2.05.768-.68.342-1.535.77-2.56 1.28-.51.342-1.023.683-1.535 1.025-.512.34-1.11.683-1.792 1.024-.683.34-1.323.64-1.92.895-.598.256-1.152.555-1.665.896-1.536.855-2.474 1.367-2.816 1.537 1.024.683 3.67 1.195 7.937 1.536 1.878.17 4.14.3 6.786.384 2.645.086 5.675.128 9.088.128h117.772c3.413 0 6.443-.042 9.088-.128 2.646-.085 4.993-.213 7.04-.384zm-82.952-3.072v.257c0 .17.086.256.256.256l.255.256h14.85c.17-.172.34-.257.512-.257v-1.279h60.933l-11.265-5.633H42.395l-11.265 5.633h60.933v.768z" fill="#000" fill-rule="evenodd"/>
</svg>
