<svg viewBox="0 0 200 200" xmlns="http://www.w3.org/2000/svg">
  <path d="M185 147.05v5.713c0 .914-.305 1.676-.914 2.285-.762.762-1.6 1.143-2.513 1.143H18.427c-.914 0-1.75-.38-2.513-1.142-.61-.61-.914-1.37-.914-2.285v-5.483l.228-.23v-.227h.23l12.795-7.54V47.426c0-.914.304-1.675.914-2.285.76-.76 1.523-1.142 2.285-1.142h137.096c.762 0 1.524.38 2.285 1.142.61.61.914 1.37.914 2.285v91.855l12.796 7.54h.23c0 .153.075.23.227.23zm-14.624-8.225V47.427c0-.76-.152-1.218-.457-1.37-.61-.305-1.067-.458-1.372-.458H31.452c-.153 0-.534.152-1.143.456-.458.153-.686.61-.686 1.37v91.4h140.752zM100 50.17c-.305 0-.61-.153-.914-.458-.305-.304-.457-.61-.457-.914 0-.304.15-.61.456-.914.305-.304.61-.457.914-.457.305 0 .61.153.914.457.305.305.457.61.457.914 0 .305-.15.61-.456.914-.305.305-.61.457-.914.457zm66.263 3.198l.23.23V134.483l-.23.457H33.964c-.304 0-.456-.15-.456-.456V53.597c.152-.153.305-.23.457-.23h132.298zM34.88 54.738v78.832h130.24V54.74H34.88zm56.437 92.313v1.828h.23c0 .153.075.23.227.23.153.152.305.228.457.228.154.152.382.23.687.23h14.166c.305 0 .533-.078.686-.23.15 0 .303-.076.456-.228.152 0 .304-.077.457-.23V147.052c.152-.15.304-.227.457-.227H181.573l-10.74-6.627H29.167l-10.74 6.627H91.09l.227.228zm91.627 7.084c.304-.304.457-.76.457-1.37v-4.57h-73.346v.685c0 .456-.23.913-.686 1.37-.457.457-1.218.685-2.285.685H92.917c-.914 0-1.6-.228-2.057-.685-.61-.61-.914-1.066-.914-1.37v-.686H16.6v4.57c0 .61.152 1.066.456 1.37.305.305.762.457 1.37.457h163.147c.61 0 1.066-.15 1.37-.456zm-5.256-4.798c.153 0 .267.038.343.114.077.076.19.115.344.115v.685l-.23.457c-.15.152-.303.228-.456.228h-4.57c-.304 0-.457-.152-.457-.457-.15 0-.227-.076-.227-.228v-.458l.457-.456h4.798z" fill="#000" fill-rule="evenodd"/>
</svg>
