<svg viewBox="0 0 200 200" xmlns="http://www.w3.org/2000/svg">
  <g fill="none" fill-rule="evenodd">
    <path d="M103.672 184.188l-4.498-1.537s.55-22.927-7.68-24.572c-5.484-6.363.88-269.876 20.625-.878 0 0-6.802 3.4-8.01 9.215-1.316 5.705-.438 17.773-.438 17.773z" fill="#FFF"/>
    <path d="M103.672 184.188l-4.498-1.537s.55-22.927-7.68-24.572c-5.484-6.363.88-269.876 20.625-.878 0 0-6.802 3.4-8.01 9.215-1.316 5.705-.438 17.773-.438 17.773z" fill="#A6A385"/>
    <path d="M106.086 162.027s39.384-25.89 30.17-79.756c-8.887-39.163-29.84-52-32.145-56.936-2.522-3.51-4.936-9.653-4.936-9.653l1.647 108.937c0 .11-3.4 33.35 5.266 37.41" fill="#499D4A"/>
    <path d="M96.87 163.453S59.9 138.22 62.095 93.79c2.084-44.43 28.194-66.26 33.24-70.21 3.292-3.512 3.402-4.828 3.62-8.34 2.305 4.938 1.867 73.833 2.195 81.95.986 31.267-1.756 60.34-4.28 66.263z" fill="#58AA50"/>
  </g>
</svg>
