<svg viewBox="0 0 200 200" xmlns="http://www.w3.org/2000/svg">
  <path d="M46.855 117.56c-.96 0-1.906-.374-2.612-1.08L22.386 94.62v19.247c0 2.04-1.653 3.693-3.693 3.693-2.038 0-3.693-1.653-3.693-3.693V85.704c0-1.495.9-2.84 2.28-3.413 1.38-.572 2.97-.256 4.025.802l21.857 21.858V85.704c0-2.04 1.653-3.693 3.693-3.693s3.693 1.654 3.693 3.694v28.163c0 1.493-.9 2.84-2.28 3.412-.457.19-.936.28-1.413.28zm17.102-35.514l-1.014 1.894-7.85 14.265-1.014 1.8 1.014 1.8 7.85 13.804 1.06 1.89h20.544l1.015-2.076 5.863-11.818 2.63-5.356h-5.954l-15.003.046c-1.953-.026-3.747 1.742-3.747 3.694 0 1.95 1.794 3.72 3.746 3.693l9.047-.046-2.216 4.478H68.3l-5.772-10.157 5.818-10.525H80.72l2.884 5.92h7.434l-4.686-11.228-1.017-2.08H63.957zM101.373 82c-1.935.024-3.673 1.806-3.648 3.74v9.624h7.387V85.74c.024-1.966-1.776-3.765-3.74-3.74zm11.84 35.63c-.477 0-.957-.09-1.413-.28-1.38-.57-2.28-1.92-2.28-3.412V85.775c0-2.04 1.653-3.693 3.693-3.693s3.694 1.653 3.694 3.693v19.246l21.856-21.857c1.053-1.055 2.64-1.374 4.024-.8 1.38.57 2.28 1.918 2.28 3.412v28.163c0 2.04-1.653 3.693-3.693 3.693s-3.694-1.652-3.694-3.692V94.692l-21.856 21.858c-.705.706-1.65 1.08-2.612 1.08zm59.212-17.802l11.49-11.447c1.443-1.438 1.448-3.777.007-5.223-1.438-1.445-3.775-1.448-5.222-.01l-11.506 11.468-11.507-11.467c-1.446-1.44-3.783-1.436-5.222.01-1.44 1.445-1.436 3.784.007 5.223l11.49 11.448-11.456 11.415c-1.446 1.44-1.45 3.778-.01 5.222.722.726 1.67 1.088 2.618 1.088.942 0 1.885-.36 2.606-1.08l11.474-11.43 11.472 11.43c.723.72 1.664 1.08 2.608 1.08.948 0 1.894-.362 2.616-1.088 1.44-1.444 1.436-3.78-.01-5.222l-11.455-11.415zm-71.052 17.698c-1.935-.023-3.673-1.805-3.648-3.74v-15.46h7.387v15.46c.024 1.964-1.776 3.764-3.74 3.74z" fill="#090" fill-rule="evenodd"/>
</svg>
