<svg viewBox="0 0 200 200" xmlns="http://www.w3.org/2000/svg">
  <path d="M93.174 16.814c4.215-2.413 9.706-2.424 13.917 0 21.19 11.972 42.384 23.926 63.568 35.905 3.985 2.244 6.65 6.678 6.61 11.27v72.03c.03 4.78-2.9 9.322-7.103 11.515-21.12 11.906-42.226 23.827-63.34 35.734-4.304 2.46-9.904 2.27-14.072-.392-6.33-3.67-12.674-7.323-19.005-10.99-1.294-.77-2.753-1.385-3.667-2.638.81-1.09 2.253-1.225 3.427-1.7 2.643-.84 5.07-2.19 7.497-3.5.614-.42 1.364-.258 1.952.118 5.414 3.104 10.78 6.3 16.213 9.373 1.158.67 2.33-.218 3.322-.77 20.724-11.713 41.473-23.38 62.193-35.098.768-.37 1.192-1.184 1.13-2.025.014-23.762.003-47.527.007-71.288.088-.955-.464-1.833-1.327-2.224-21.045-11.85-42.08-23.72-63.122-35.576-.753-.512-1.725-.516-2.478-.004-21.042 11.86-42.073 23.74-63.114 35.59-.858.392-1.436 1.255-1.334 2.213.004 23.76 0 47.525 0 71.29-.073.84.38 1.638 1.144 2 5.616 3.184 11.238 6.346 16.857 9.52 3.165 1.703 7.05 2.716 10.54 1.41 3.077-1.103 5.234-4.244 5.175-7.512.03-23.622-.015-47.25.022-70.868-.077-1.05.918-1.915 1.938-1.816 2.697-.02 5.4-.037 8.097.007 1.125-.025 1.9 1.105 1.76 2.16-.01 23.774.03 47.546-.018 71.32.008 6.334-2.595 13.23-8.455 16.33-7.22 3.738-16.143 2.945-23.275-.64-6.175-3.083-12.068-6.72-18.132-10.02-4.215-2.184-7.13-6.742-7.1-11.52V63.99c-.043-4.687 2.728-9.202 6.837-11.413C50.95 40.66 72.063 28.735 93.174 16.814zm18.42 49.895c9.21-.593 19.068-.352 27.356 4.185 6.415 3.476 9.972 10.773 10.085 17.902-.18.96-1.184 1.49-2.102 1.425-2.672-.003-5.344.037-8.016-.018-1.134.044-1.792-1.002-1.934-2.003-.768-3.41-2.63-6.788-5.838-8.433-4.928-2.467-10.642-2.343-16.015-2.292-3.923.208-8.142.548-11.464 2.855-2.552 1.747-3.327 5.275-2.417 8.116.858 2.04 3.212 2.697 5.14 3.304 11.097 2.903 22.858 2.614 33.744 6.434 4.507 1.557 8.916 4.584 10.46 9.304 2.017 6.324 1.132 13.884-3.368 18.96-3.648 4.18-8.964 6.454-14.264 7.69-7.052 1.57-14.37 1.61-21.532.913-6.734-.767-13.74-2.536-18.94-7.124-4.445-3.86-6.616-9.874-6.4-15.68.05-.978 1.026-1.662 1.966-1.582 2.69-.02 5.38-.03 8.072.004 1.074-.077 1.87.852 1.926 1.865.497 3.25 1.718 6.66 4.55 8.587 5.47 3.527 12.332 3.286 18.594 3.385 5.187-.23 11.01-.3 15.244-3.73 2.233-1.955 2.895-5.227 2.292-8.04-.654-2.378-3.14-3.485-5.275-4.21-10.957-3.465-22.85-2.207-33.7-6.126-4.404-1.558-8.663-4.5-10.355-9.027-2.362-6.404-1.28-14.326 3.692-19.232 4.847-4.88 11.844-6.758 18.498-7.43z" fill="#8CC84B" fill-rule="evenodd"/>
</svg>
