<svg viewBox="0 0 200 200" xmlns="http://www.w3.org/2000/svg">
  <path d="M15 15h170v170H15V15zm85 120.172c19.425 0 35.172-15.747 35.172-35.172 0-19.425-15.747-35.172-35.172-35.172-19.425 0-35.172 15.747-35.172 35.172 0 19.425 15.747 35.172 35.172 35.172zm0-108.448l14.655 29.31h-29.31L100 26.724zm51.814 21.462L141.45 79.274 120.727 58.55l31.088-10.364zM173.276 100l-29.31 14.655v-29.31L173.276 100zm-21.462 51.814l-31.088-10.363 20.725-20.724 10.364 31.088zM100 173.276l-14.655-29.31h29.31L100 173.276zm-51.814-21.462l10.363-31.088 20.724 20.725-31.088 10.364zM26.724 100l29.31-14.655v29.31L26.724 100zm21.462-51.814L79.274 58.55 58.55 79.273 48.185 48.186z" fill="#FB842D" fill-rule="evenodd"/>
</svg>
