<svg viewBox="0 0 200 200" xmlns="http://www.w3.org/2000/svg">
  <g fill="none" fill-rule="evenodd">
    <path d="M101.58 85.376h6.316c5.328 7.68 10.836 15.786 16.394 23.798 5.54-7.993 10.863-16.025 16.254-23.8h6.32v28.6h-4.166V89.48l-16.837 24.493-3.216-.005-16.826-24.488-.04 24.493h-4.198V85.376" fill="#1FD3EF"/>
    <path d="M157.132 95.792s-2.588.03-3.607.03c-.61-7.215 1.42-9.748 7.363-10.24 6.484-.233 11.196-.13 17.068 0 4.355.34 6.317 2.043 6.88 6.383.18 1.374.197 2.79.1 4.174-.283 4.05-2.137 6.025-6.198 6.416-4.86.47-9.734.757-14.6 1.152-1.33.108-2.67.23-3.974.496-2.427.493-3.33 1.057-3.44 3.486-.038.866.05 2.074.05 3.142h28.168l.03 3.14H153.4c.036-2.408-.19-5.104.164-7.514.484-3.3 2.68-4.91 5.747-5.453 5.046-.896 10.182-.86 15.27-1.338 1.214-.114 2.426-.258 3.63-.445.752-.116 1.22-.02 1.987-.84 1.425-.815 1.226-4.742.873-7.302-.44-1.88-2.258-2.67-4.038-2.738-5.23-.196-10.466-.206-15.695.01-2.59.106-3.93 1.617-4.152 4.46-.075.97-.056 2.98-.056 2.98" fill="#5D5D5D"/>
    <path d="M65.325 88.71l.015-3.42s16.787-.005 24.29 0c4.994.005 7.23 2.208 7.322 7.216.03 1.567-.02 3.128-.22 4.693-.41 3.218-2.088 4.97-5.335 5.49-2.142.344-4.293.2-6.44.21-5.168.023-10.337.007-15.732.007v11.066h-3.877V99.487s14.72.09 21.117.008c4.89-.062 6.868-.438 6.137-7.13-.286-2.61-1.245-3.51-3.997-3.57-4.592-.097-23.28-.086-23.28-.086M36.363 114.123c-6.04 0-12.082.015-18.123-.007-2.123-.008-3.245-1.246-2.92-3.142.3-1.73 1.493-2.146 3.064-2.144 10.978.02 21.957.01 32.935.01 1.16 0 2.323-.026 3.484.007 1.775.05 2.798 1.023 2.817 2.622.02 1.593-.99 2.63-2.786 2.64-6.157.034-12.314.013-18.47.013" fill="#1FD3EF"/>
    <path d="M36.363 102.866c-6.04 0-12.082.015-18.123-.008-2.123-.007-3.245-1.245-2.92-3.142.3-1.728 1.493-2.146 3.064-2.143 10.978.02 21.957.01 32.935.01 1.16 0 2.323-.027 3.484.006 1.775.05 2.798 1.023 2.817 2.62.02 1.595-.99 2.632-2.786 2.642-6.157.034-12.314.013-18.47.014" fill="#5D5D5D"/>
    <path d="M36.363 90.997c-6.04 0-12.082.015-18.123-.007-2.123-.008-3.245-1.246-2.92-3.142.3-1.73 1.493-2.147 3.064-2.144 10.978.02 21.957.01 32.935.01 1.16 0 2.323-.026 3.484.007 1.775.05 2.798 1.024 2.817 2.623.02 1.593-.99 2.63-2.786 2.64-6.157.035-12.314.013-18.47.014" fill="#1FD3EF"/>
  </g>
</svg>
