<svg viewBox="0 0 200 200" xmlns="http://www.w3.org/2000/svg">
  <path d="M46.676 86.012c.23.174.633.288.23.632-.286.402-.63.747-.86 1.207-.23.405-.4.518-.746.232.458-.748.916-1.44 1.374-2.072l.002.002zm115.352 60.25c0 .17.056.284.056.46.116-.23.116-.346.175-.46h-.232zm0 .516v-.057.058zm-11.707 22.42l-9.987-55.418c-.17-.055-.4-.168-.802-.284.116.23.175.402.232.574.284-.057.4-.057.515-.113 0-.057 0-.114.06-.175l9.986 55.423-.002-.007zm-10.33-67.893c-.056.17-.056.345-.056.517 0-.174 0-.35.06-.52l-.003.003zm.058 1.148c-.057 0-.057 0-.114-.06v.055c.06.057.06.057.118 0l-.004.005zm-100.403-5.99c-.372.192-.656.396-.608.935 0 .172-.286.403-.574.578-.514.633-1.262 1.606-1.78 2.182.173.06.463.06.463.115 0 .17 0 .404-.115.52-.573.46-1.146.86-1.663 1.32-.114.056-.172.287-.23.405-.228.46-.287 1.09-1.09.978.057-.576-.115-.867-.806-.692.463-.748.864-1.322 1.265-1.955.633-.52 1.206-.978 1.78-1.495l1.03-.69c.233-.172.405-.4.634-.573 0 .06.17-.06.29-.116.173-.46.343-.975.518-1.433-.06-.06-.06-.118-.114-.175-.23.345-.403.69-.632 1.034l-.06-.06c-.516.462-1.203 1.21-1.606 1.61 0-.17.057-.34.113-.516.344-.342.745-.632 1.09-.975 0 0 .172-.058.288-.173l-.06-.06c.116-.287.173-.575.23-.693.288-.227.575-.284.632-.458.23-.63.404-.862.862-.803 0-.114 0-.175-.116-.288.344-.23.69-.517 1.03-.753.06.06.12.06.176.116-.23.345-.23.633-.462 1.034 0 0-.17.06-.284.06-.116.17-.23.34-.29.516l-.002.007c0 .056.06.224.29.4-.007.002-.015.006-.022.01l.2.1c.228-.404.456-.748.685-1.15l.003-.006.23.228-.52.864-1.55 2.243c-.114.17-.228.46-.398.52-.174.055-.403-.06-.632-.176.77-.22 1.54-1.286 1.805-2.536zm102.943 76.764c.315-.232.56-.42.803-.568 1.26-.69 2.465-1.38 3.73-2.07.458 0 .69 0 .802-.06.75-.348 1.44-.745 2.127-1.148-.198-.082-.39-.177-.575-.284.572-.118.742-.174 1.09-.29 1.374-1.615 3.272-2.705 4.704-3.97.632-.057.632-.23.632-.343.227-.288.458-.633.74-.864 1.266-1.15 2.64-2.126 3.79-3.333 1.66-1.656 3.25-3.384 4.762-5.18 1.374-1.61 2.757-3.217 3.904-5 1.607-2.47 2.983-5.002 4.418-7.592 1.034-1.836 1.952-3.676 2.988-5.515.11-.174.342-.403.514-.403 1.55-.175 3.1-.284 4.593-.46.345-.055.747-.282 1.09-.457-.173-.288-.287-.632-.457-.92-.23-.35-.575-.633-.807-.982-.226-.284-.4-.633-.57-.975-.175-.284-.346-.515-.518-.807-.36-.633-.688-1.284-.98-1.95-.058-.175-.176-.46-.115-.634 1.034-2.24 1.435-4.655 2.41-6.898.975-2.3 1.265-4.887 1.723-7.36.4-2.355.632-4.71.916-7.067.174-1.667.403-3.277.458-4.944.35-2.644.23-5.118.174-7.592-.056-2.18-.174-4.423-.283-6.61l-.012-.006c-.114-2.243-.17-4.486-.4-6.726-.403-3.048-.804-6.152-1.493-9.14-.517-2.473-1.374-4.83-2.238-7.188-1.09-2.76-2.18-5.576-3.56-8.22-2.236-4.254-5.163-8.05-7.86-12.017-1.784-2.53-4.078-4.6-5.8-7.186-.976-1.495-2.41-2.758-3.846-3.905-2.295-1.844-4.705-3.513-7.115-5.12-1.818-1.276-3.696-2.466-5.626-3.565-1.55-.867-3.213-1.556-4.82-2.304-1.837-.862-3.616-1.898-5.68-2.3-.52-.11-.978-.283-1.495-.458-1.32-.458-2.582-.975-3.904-1.38-2.005-.63-3.957-1.378-6.024-1.897-2.002-.517-4.07-.86-6.137-1.15-2.295-.338-4.646-.458-6.944-.682-1.468-.19-2.94-.324-4.42-.402-2.18-.115-4.417-.115-6.598-.172-1.09-.06-2.237-.175-3.327-.116-1.663.057-3.327.23-4.993.458-1.605.175-3.213.46-4.76.692-1.892.23-3.785.345-5.68.576-1.78.23-3.615.576-5.393.864-.632.116-1.265.345-1.897.458-1.374.288-2.81.404-4.187.864-2.464.75-4.935 1.614-7.345 2.53-2.24.92-4.42 1.9-6.542 3.048-2.18 1.205-4.248 2.64-6.313 4.023-1.984 1.327-3.92 2.727-5.8 4.195-1.833 1.44-3.556 3.048-5.222 4.658-.916.916-1.664 2.01-2.525 3.045-1.433 1.67-2.868 3.277-4.246 5.003-1.143 1.44-2.18 2.933-3.27 4.43-1.95 2.64-3.613 5.458-5.16 8.277-.634 1.15-1.207 2.3-1.78 3.447-.862 1.723-1.78 3.392-2.583 5.175-.575 1.207-1.033 2.53-1.378 3.85-.8 2.82-1.605 5.696-2.35 8.51-.69 2.53-.862 5.175-.917 7.762-.06 2.3.17 4.542.398 6.842.06.576-.283 1.265.402 1.723-.23.633-.057.982.283 1.09-.397.634.175 1.04-.052 1.616-.058.113.175.342.284.515 0 .174-.054.403 0 .576.06.517.29 1.034.29 1.61 0 .4.343.86.458 1.265.057.17 0 .457-.115.573-.345.4-.288.746.23.977.29.746.173 1.09.117 1.44.113.515-.06.687 0 .803.457.92.632 1.955.686 2.99 0 .23.116.46.232.747.056 0 0 1.09 0 1.09.283-.17.516-.226.802-.342.175.747.345 1.44.574 2.073.288.46.288.686.174.743.23 1.034.343 2.01.742 2.99 0-1.092-.11-2.183-.284-3.22.803.29 1.492.574 1.952.574.06-.174.115-.4.174-.517-.344-.342-.632-.86-.977-1.204.115.458 0 .633 0 .807-.23-.118-.517-.233-.803-.35.23-.282.458-.573.802-.915 0-.52-.284-.982-1.09-.923.344-.113.688-.284 1.09-.4.632-.344-.057-.977-.057-1.782.056-.975-.517-1.952-.69-2.988-.287-1.608-.228-4.023-.4-5.633-.345-.288-.633.458-.69.517.175 1.377.345 2.756.458 4.137-.34-1.15-.572-2.415-.858-3.796-.06.405-.116.577-.116.808-.283.284-.056.633.116 1.034-.4-.174-.86-.113-.86-.113v1.61c-.573-.577-.743-1.035-1.033-1.44-.114-.46-.175-.917-.284-1.375.11-.29 0-.463 0-.633-.068-.46-.126-.92-.175-1.383.058-.058-.056-.917-.056-.917.458.054.748.11 1.034.11-.574-.743-.174-1.206.06-1.666.114-.23.516-.284.63-.52.46-.86 1.207-1.548 1.207-2.643 0-.517.175-1.09.23-1.61.115-.978.228-1.955.283-2.933.118-1.264 0-2.53.29-3.736.462-2.007 1.036-4.02 1.666-6.034.458-1.44.977-2.815 1.548-4.254.862-2.243 1.666-4.486 2.757-6.61 1.547-3.108 3.327-6.096 5.05-9.142 1.09-1.898 2.237-3.68 3.445-5.52 1.145-1.782 2.29-3.62 3.614-5.29 1.816-2.354 3.853-4.53 6.083-6.497 2.296-2.068 4.477-4.195 6.943-6.094 3.21-2.476 6.63-4.67 10.217-6.555 2.93-1.55 5.97-2.762 9.01-3.912 1.953-.746 4.075-1.09 6.085-1.724 2.295-.748 4.59-1.09 7-1.15 1.55-.058 3.043-.23 4.59-.403 1.38-.11 2.756-.228 4.25-.4-.175.23-.232.344-.288.458-.63.92-1.318 1.84-1.95 2.76-.517.748-1.09 1.553-1.607 2.3-.92 1.21-1.898 2.416-2.757 3.682-1.32 1.898-2.525 3.853-3.903 5.75-1.374 1.838-2.868 3.563-4.303 5.344-1.893 2.474-3.672 5.002-5.565 7.474-1.723 2.356-3.555 4.603-5.22 6.96-1.493 2.065-2.814 4.254-4.25 6.376-2.12 3.164-4.245 6.266-6.367 9.43-1.666 2.407-3.35 4.803-5.05 7.186-.116.174-.29.227-.46.342-.457.747-.457 1.15-.63 1.495-.46.862-.917 1.723-1.436 2.53-.288.46-.69.86-1.034 1.32-.056-.69.916-1.034.458-1.898-.283.462-.573.863-.86 1.324l-.688 1.374c.23.175.632.29.23.633-.176.29-.346.634-.518.924.25-.146.464-.343.633-.576 0 .632-.345 1.147-.633 1.664-.23.46-.802.808-1.204 1.15.057.06.458.23.517.288.517-.174.69-.458.748-.288.176-.23.346-.4.402-.574.227-.576.572-1.034 1.145-1.265.23-.116.402-.288.574-.458 1.724-1.785 3.503-3.508 5.052-5.406 2.41-2.936 4.592-5.98 6.89-8.968.973-1.265 2.123-2.53 3.154-3.74.17 1.323.057 2.586 0 3.797-.174 2.124-.288 4.253-.458 6.435-.06.86 0 1.723-.06 2.587 0 .23-.173.402-.173.633 0 .574.174 1.206.174 1.782-.175 2.127-.406 4.196-.58 6.323-.058.458.17.92.285 1.324-.284 3.102.35 6.38-.17 9.658.4-.633.517-1.034.517-1.435.054-.345 0-.69 0-1.09v-.577c.054-1.036.283-2.127.17-3.164-.116-1.15-.116-2.24.115-3.333.116-.458-.056-1.034.23-1.61v.862c-.055 3.272.06 6.55-.398 9.828-.06.288.174.807-.46.748-.518 1.035.115 1.784-.457 2.357-.117.116.11.633.168.978-.23.69-.23.69.115.748.056 1.265.174 2.413.23 3.622.915-2.182.457-4.43.862-6.672.057.92.116 1.84.057 2.814 0 1.5-.057 2.935-.113 4.43 0 .287-.058.575-.115.863-.174.807-.23 1.61-.517 2.356-.23.576-.113 1.44-.113 2.127v2.19c.23.976-.06 1.493.113 2.067-.174.578-.23.75-.174.923l.174.86c1.15-.114.633.75 1.09 1.208-.344.463-.228.634-.228.867 0 .517-.055.977-.114 1.494 0 1.324-.056 2.646-.056 3.91 0 .176.056.344.056.516 0 .118-.056 1.614-.056 1.614.115.17 0 .343-.175.515-.054 0-.227-7.302-.227-7.302h-.86c-.115 3.447.173 6.552-.46 9.774-.688.055-.915.17-1.665.17-1.78 0-3.56 0-5.34.057-2.123 0-4.186.057-6.312.057-1.028 0-2.12.118-3.152.118-1.38 0-2.814-.174-4.187-.174-2.126 0-4.19.174-6.315.23-1.548.058-3.097.058-4.645.117-1.036.055-2.072.11-3.1.228-.46.056-.862.23-1.436.4-.174 0-.574-.056-.916 0-.578.117-1.09.46-1.668.577-.862.175-1.09.4-.977 1.265v.574c-.057.114 1.265-.174 1.265-.174-.118 0-.175.344-.35.632.463-.174.75-.288 1.037-.4.86.403 1.607.173 2.294.348 2.236.572 4.53.807 6.825 1.032 1.493.116 2.928.174 4.42.23 2.122.115 4.246.23 6.368.23 1.78 0 3.502-.174 5.277-.174 2.465 0 4.937.113 7.404.174.517 0 1.09-.06 1.664-.06h4.187c3.733-.114 7.462-.175 11.194-.284 2.125-.062 4.306-.175 6.428-.234l6.542-.174c2.525-.057 5.05-.057 7.52-.11 1.892 0 3.728-.065 5.626-.12 2.12-.056 4.3-.23 6.424-.342 1.15-.06 2.3-.175 3.446-.288 1.378-.113 2.813-.284 4.187-.343 2.067-.117 4.19-.174 6.26-.29 2.58-.17 5.163-.4 7.8-.458 2.413-.114 4.88-.058 7.292-.114 2.124-.06 4.248-.175 6.428-.232l3.62-.174c-.01-1.438-.02-2.84-.027-4.212.84-.03 1.682-.063 2.522-.103.21-.013.42-.033.634-.058.182 2.63.347 4.212.485 4.198 2.065-.113 4.13-.342 6.198-.4 1.317-.058 2.64 0 3.958-.058 2.122-.056 4.303-.174 6.427-.174.8 0 1.66.118 2.695.174-.458.404-.746.633-1.09.92.23.058.458.175.69.29-.27.188-.59.287-.917.283-.118.29-.233.405-.35.98h1.035c-.402 0-.746.518-1.147.863-.458-.118-.862 0-1.09.633.4.227.344.4.287.632-.69.227-1.206.46-.916 1.205-.233.113-.52.23-.807.4-.283.46-.802.575-.69 1.208.232.055.46.175.633.227-.287.116-.573.288-.86.402-1.032.632-.572.92-.343 1.207-.175.116-.345.23-.517.288.113.518.283.633.342.633-.293.222-.58.452-.86.69-.176.517-.405.746-.634 1.09-.228.345-.343.808-.63 1.15-1.205 1.324-2.066 2.88-3.615 3.912-.575.403-1.09.92-1.607 1.44-1.033.975-1.952 2.068-3.042 2.99-1.442 1.193-2.935 2.324-4.475 3.39-1.878 1.322-3.77 2.625-5.678 3.908-1.033.688-2.18 1.205-3.27 1.837-1.09.633-2.125 1.21-3.215 1.84-.69.458-1.322 1.09-2.067 1.44-1.893.807-3.904 1.494-5.854 2.242-1.897.807-3.27 1.495-4.706 2.012-1.32.457-2.697.806-4.073 1.09-.458.117-.977 0-1.494.058-.977.175-1.952.406-2.93.52-2.524.344-5.05.576-7.573.92-1.494.175-2.93.458-4.42.633-1.032.058-2.122-.056-3.156-.056-.746 0-1.548.175-2.296.06-1.204-.175-2.41-.46-3.616-.69-.283-.057-.69-.175-.916-.057-.458.23-.863-.113-1.323 0-.284.06-.572-.175-.86-.175-.23-.054-.52.062-.807 0-.632-.17-1.203-.4-1.897-.342-.683.057-1.375-.288-2.116-.458-1.036-.23-2.006-.458-3.044-.692-.402-.125-.786-.3-1.145-.517-1.494 0-2.47-.057-3.39-.403-.802-.284-1.548-.688-2.41-.572-.226.057-.398-.057-.63-.057-.176-.23-.344-.69-.514-.69-1.146.06-1.835-.917-2.812-1.207-.515-.174-.916-.748-1.433-.92-1.265-.518-2.294-1.608-3.73-1.78-.457-.06-.915-.29-1.434-.46.176.228.285.4.46.573-1.665-.807-3.213-1.724-4.764-2.588-.227-.056-.4-.283-.57-.4l-1.55-1.035c-.86.174-1.205-.175-1.44-.288-1.547-1.09-3.324-1.783-4.818-2.99-.633-.518-1.374-.863-1.832-1.496-.807-.978-1.782-1.667-2.872-2.24-.86-.46-1.662-.98-2.464-1.496-.404-.288-.807-.632-.807-1.265 0-.405-.17-.808-.687-.577-.23-.345-.458-.746-.746-.862-.69-.282-1.147-.806-1.664-1.264-.517-.458-.916-1.09-1.548-1.32-1.15-.458-1.84-1.436-2.526-2.24-1.61-1.9-3.044-3.97-4.536-5.978-.115-.175-.344-.29-.516-.463.23.633.516 1.15.802 1.724-.57-.23-.973-.634-1.317-1.035-.06.058 3.958 6.67 3.958 6.67.35.516.632 1.035.977 1.552-.707.066-1.385-.296-1.723-.92-.514-.917-1.09-1.493-2.237-1.375-.122-.415-.217-.838-.284-1.265-.233 0-.403 0-.807-.06.806 1.266 1.493 2.357 2.24 3.622-.29-.175-.46-.29-.58-.345 1.033 1.09 1.778 2.472 3.098 3.163.288 1.32 1.78 1.953 2.124 3.218-.284-.06-.52-.116-.807-.174-.458-.574-.975-1.148-1.49-1.78.114.4.284.745.515 1.033.69.862 1.322 1.724 2.124 2.472.288.293.69.408.69.925.457.23.632.284.802.284.118.35-.055.866.632.75.458.862.916.862 1.55.576.747.75 1.15.808 1.665.35 0 .283.056.57.056.802.228-.115.174-.288.174-.576.283.23.458.345.57.458.575.808 1.092 1.554 1.894 2.186 1.09.92 2.067 1.898 3.097 2.76 2.01 1.67 4.252 3.05 6.488 4.313 2.756 1.554 5.397 3.22 8.208 4.713 3.386 1.784 7 2.993 10.73 3.855 1.38.288 2.698.574 4.078.916 1.2.348 2.408.865 3.614 1.15 1.836.405 3.73.75 5.565 1.092.4.06.807.118 1.265.174.512.116 1.143-.115 1.258.06.288.457.517.226.862.17.4-.116.86-.116 1.32-.116 1.606.056 3.155.4 4.762.288.35 0 .863-.29 1.15.283.516-.228.804-.228 1.033-.282.06.515 0 .515-.11.57-.117.058-.29.117-.518.29 2.064.4 4.016.457 5.734 0 2.988.228 5.57-.116 8.038-.978.23.288.402.69.746.116.114-.175.402-.234.633-.29.515-.116 1.148-.345 1.606-.175.52.175.69-.283 1.09-.283.69 0 1.322-.06 1.954-.174.345-.057.69-.23 1.09-.345-.393-.194-.826-.294-1.264-.29.69-.345 1.32-.633 1.954-.916-.116.17-.232.4-.458.4h.8c-.175 0-.404.516-.69.86 2.064-.517 3.957-.977 5.795-1.44-.632-1.204.687-.8 1.147-1.492-.573.175-1.147.345-1.723.46 1.953-.977 3.962-1.838 5.91-2.7-.282.345-.63.517-1.144.807.345.055.574.055.746.11.916.29.69-.572.975-1.092 1.09 0 1.548-.17 2.065-.344.574-.174 1.147-.344 1.723-.573.916-.402 1.777-.916 2.695-1.375.175-.06.458 0 .69 0 .632-.405.86-.75 1.03-.693.808.114 1.375-.176 1.606-.918l.157-.114c.23.506.69.56 1.435.047-.46 0-.918-.057-1.32-.114-.053 0-.058.05-.1.057zm2.95-79.158c.14-19.405.73-11.78 1.427 1.997-.312-.46-.63-.916-.953-1.36-.157-.215-.315-.427-.474-.638zM40.653 159.712c-.4-.46-.746-.978-1.147-1.436l.174-.174c.626.69 1.26 1.38 1.89 2.13-.346-.176-.747-.29-.917-.52zm.916.52c.173-.06.348-.06.518-.117.174.288.288.633.458.978-.803-.06-1.204-.404-.975-.862zm59.686 23.742v-.175c1.09-.113 2.122-.23 3.213-.342v.168c-1.092.174-2.123.283-3.214.344v.005zm14.46-1.495c-.802.175-1.663.29-2.465.406-.287.057-.632.345-.745-.174-.116.06-.23.06-.345.117.284.86.975.17 1.548.514-1.264.175-2.464.288-3.672.458v-.113c.35-.058.748-.117 1.09-.176v-.17c-.57-.068-1.146-.106-1.722-.115-.168 0-.4.23-.572.287-.23.056-.458.115-.746.115-.974.057-1.95.057-2.87.114-.058 0-.174-.057-.23-.057v-.176c3.844-.514 7.632-1.03 11.477-1.548.06.113.06.23.115.342-.344 0-.573.12-.86.175l-.003-.003zm.862-.57c1.322-.176 2.53-.29 3.79-.46-2.638.747-3.5.86-3.787.46h-.002zM66.593 65.833c1.832-2.53 3.73-5.062 5.565-7.647.574-.753 1.032-1.558 1.605-2.304.175-.23.404-.345.69-.576l-.057-.11c.23-.29.458-.523.573-.75.292-.458.464-.977.693-1.494.057-.11.23-.225.23-.225.806.402.806-.458 1.09-.748.516-.576 1.033-1.206 1.49-1.782.345-.458.69-.862.978-1.38.058-.174-.115-.457-.174-.69h-.17c.175-.114.345-.284.517-.402.057 0 .057 0 .114-.057.344-.52.69-1.037 1.033-1.497.687-.917 1.433-1.837 2.236-2.64-.114.283-.23.574-.345.803.06 0 .06.058.117.058.69-.92 1.434-1.782 2.124-2.705-.058-.055-.115-.114-.174-.114-.283.288-.515.576-.802.864-.057-.06-.114-.116-.175-.116.577-.748 1.15-1.494 1.722-2.356.116.174.23.4.458.862.233-.574.462-.976.632-1.38-.17.175-.4.346-.57.52l-.175-.174 1.033-1.55c1.09-1.553 2.18-3.163 3.27-4.716.405-.574.917-1.034 1.266-1.61 1.09-2.182 2.813-3.91 4.13-5.92.288-.403.69-.747 1.034-1.092.284-.35.517-.23.746.057 1.548 1.954 3.097 3.966 4.645 5.92 1.153 1.44 2.3 2.815 3.39 4.312 1.32 1.84 2.582 3.68 3.904 5.52 1.49 2.126 2.983 4.253 4.418 6.435 2.18 3.222 4.246 6.443 6.426 9.66 1.608 2.357 3.215 4.658 4.763 7.015h-2.93c-2.695-.055-5.452-.284-8.147-.17-3.672.174-7.402.575-11.074.863-4.65.404-9.356.458-14 .458-1.67 0-3.334.234-4.995.35-2.01.113-3.963.23-5.97.283-2.356.12-4.646.176-7.002.235-1.32.056-2.697 0-4.132 0l.003-.01zm65.822 26.44v.52c-.057 0-.113.06-.23.06-.228-.808-.457-1.672-.745-2.477-.573-1.67-1.206-3.338-2.24-4.83-1.15-1.608-2.18-3.272-3.332-4.94-.283-.405-.69-.75-1.033-1.092-1.206-1.324-2.412-2.705-3.96-3.68-2.282-1.432-4.682-2.664-7.175-3.683-.692-.298-1.363-.643-2.007-1.034h1.374l9.814-.175c2.125-.054 4.192-.054 6.314-.17.515 0 .803.174 1.09.633.515.86 1.032 1.723 1.605 2.587.058.113.174.284.174.458 0 1.267 0 2.59.057 3.854.055 1.322.175 2.587.227 3.91 0 1.322-.115 2.7-.056 4.08.06 1.956.116 3.97.116 5.977l.01.005zm-61.75-19.25c2.697-.115 5.277-.288 7.92-.403 2.06-.115 4.187-.174 6.25-.287.862-.055 1.666-.11 2.526 0-.915.462-1.836.923-2.638 1.496-1.034.69-2.007 1.607-3.042 2.356-1.036.746-1.954 1.666-2.814 2.644-1.09 1.32-2.296 2.47-3.445 3.735-.806.92-1.722 1.782-2.41 2.76-.974 1.265-1.835 2.64-2.753 4.08.288-5.464.632-10.865.4-16.385l.008.004zm37.476 55.305c-1.837.458-3.728.977-5.625 1.206-1.605.23-3.272.174-4.935.174-1.496 0-2.93-.056-4.423-.174-1.664-.17-3.328-.343-4.935-1.09-1.38-.634-2.813-1.207-4.187-1.9-1.383-.688-2.76-1.49-3.795-2.757-.74-.923-1.777-1.67-2.695-2.475.174.69.573 1.266 1.206 1.667-.287.345-.688.175-1.264-.748-.17.116-.342.174-.458.23.175-.402.345-.806.517-1.15-.23-.457-.517-.976-.746-1.438-.46-.747-.917-1.55-1.32-2.298-.116-.174-.116-.344-.23-.517-.286-.33-.555-.676-.806-1.035-.458-.687-.86-1.433-1.433-2.125 0 .174.06.345.06.576-.06 0-.116.057-.116.057l-1.208-2.933c-.056 0-.056 0-.113.057l1.03 3.796c-.055 0-.112.055-.173.055-.168-.227-.34-.458-.458-.742-.113-.462-.458-.462-.742-.29-.174.116-.29.517-.23.69.403.977.86 1.954 1.32 2.93.114.346.23.634.402.98.06.114.23.228.23.4.232.458.405.917.69 1.322.517.69 1.09 1.38 1.608 2.07.512.688.97 1.438 1.43 2.126.057.115.23.115.284.174.29.862 1.265 1.492 1.954 1.148.174 1.322 1.607 1.782 2.18 3.048-.563-.23-1.118-.48-1.663-.75-.06.058-.06.115-.118.23.69.345 1.378.69 2.006 1.09.578.35 1.15.693 1.668 1.092.69.633 1.495.982 2.466 1.21-.053-.176-.11-.235-.11-.235 1.606.75 3.272 1.555 4.532 2.183-5.97.118-12.34.233-18.94.35 0-1.092-.056-2.128-.056-3.22 0-.46.113-.863.054-1.323-.174-2.64-.174-5.29-.517-7.876-.343-2.758-.343-5.46-.284-8.225.054-1.49-.06-3.042-.118-4.54 0-2.01 0-3.97.06-5.977 0-.288.117-.517.232-.807h.175c.054.118 0 .29.11.35.173.174.46.457.577.4.342-.23.86-.457.974-.806.284-.688.402-1.436.402-2.125 0-.515.23-.86.458-1.207.117-.174.174-.345.29-.574-.23-.174-.458-.288-.746-.517.23-.632.174-1.38 1.036-1.723.113-.06.113-.35.174-.52.055-.464.11-.98.17-1.44.114.175.175.23.284.343.032-.062.072-.12.118-.174 0-.227-.057-.688 0-.688.69-.115.4-.86.745-1.206.055-.062-.06-.234-.06-.35 0-.114 0-.284.058-.284.8-.174.687-1.036 1.204-1.44.173-.115.228-.283.457-.573.458.802-.345 1.206-.4 1.78.97-.574 1.26-1.953.686-2.356.23-.175.458-.402.632-.633.632-.69 1.317-1.322 1.893-2.012.403-.514.632-1.147 1.034-1.664.23-.288.69-.517 1.033-.692 1.034-.57 2.007-1.204 2.64-2.18.115-.117.287-.23.457-.346.174-.116.52-.116.576-.288.06-.114-.114-.4-.23-.574.227-.115.46-.345.917-.576-.175.345-.23.576-.345.807l.284.283c.52-.4 1.32-.86 1.838-1.204 0-.056-.288-.285-.288-.285-.342.175-.86.458-1.374.69.11-.175.11-.288.175-.345.8-.517 1.603-1.034 2.464-1.44 2.005-.916 4.016-1.837 6.024-2.7.345-.173.807-.055 1.206-.055.17 0 .284 0 .458-.057.916-.288 1.836-.576 2.755-.807.4-.113.857-.17 1.264-.17 1.717.055 3.44.055 5.16.17.746.057 1.435.23 2.124.46.885.306 1.747.67 2.583 1.09.975.523 1.893 1.095 2.813 1.727 1.664 1.09 3.213 2.3 4.877 3.277 1.607.978 2.87 2.3 3.903 3.796 1.265 1.78 2.698 3.39 3.27 5.575l.86 3.796c.175.69.576 1.38.404 2.182-.29 1.44-.52 2.935-.748 4.372-.113.578-.23 1.157-.17 1.724.11 1.79-.578 3.338-1.265 4.948-.23.517-.576 1.036-.86 1.61.14.1.293.177.457.23l.516-1.033c.06 0 .06 0 .116.06-.288.802-.517 1.666-.807 2.47-.686 1.783-1.375 3.622-2.236 5.346-.458.976-1.265 1.78-1.836 2.704-.572.803-1.032 1.665-1.605 2.413-.517.633-1.032 1.265-1.723 1.723-1.55 1.15-3.156 2.3-4.82 3.22-1.03.633-2.237.978-3.384 1.266l.015-.007zm-30.59-3.055l-.055.06c-.12-.058-.292-.114-.406-.23l-1.38-2.073c-.113-.17-.174-.342-.113-.57.633.976 1.265 1.897 1.952 2.813zm35.7 7.876c2.58-1.09 4.704-2.64 6.652-4.424.29-.287.576-.573.92-.807 2.412-1.493 4.187-3.563 5.797-5.863 1.835-2.644 3.04-5.633 4.535-8.45.1-.217.215-.428.342-.632-.116 6.554.632 12.992 1.492 19.49-6.485.228-13.086.457-19.742.688l.003-.002zm32.366-.932c-.116-18.05-.134-30.307-.078-38.15-1.465-1.954-2.983-3.853-4.175-6.034-.402-.742-1.032-1.435-1.605-2.18l-.345 13.74h.114c.058-.117.058-.174.117-.292h.114c.056.864.056 1.726.113 2.588h.06v.574c-.86-.345 0-1.09-.576-1.667v4.025c0 .175-.23.977.23 1.55l-.116.115c.23.288.458.517.632.746 0 .06-.054.115-.054.174-.232-.06-.633-.06-.633-.117v3.796h.233c.173.517.458.977.574 1.383-.286-.12-.574-.235-.975-.35.175 1.032-.288 1.954.458 2.646.17-.116.443-.034.345-.174-.1-.14-.176-.295-.23-.46.864.35.574 1.035.69 1.616.113.512.113 1.03.113 1.55 0 .053-.112.053-.23.108.517.574.517.862-.057 1.38.173.058.345.17.574.284-.172.06-.345.118-.4.175.173.46.282.805.457 1.148 0 .172-.114.517-.057.576.63.457-.116.804.116 1.203h-.175l-.342-1.724c-.06.06-.118.06-.175.06.058.343.176.688.176 1.09 0 .115-.118.285-.175.46 0 .056-.117.172-.226.23.116.114.232.175.232.175-.116.17-.232.343-.345.567-.228-.168-.4-.283-.63-.458 0 .75.057 1.497 0 2.3-.056 1.728-.23 3.45-.23 5.175 0 .806.23 1.552.344 2.355h.166c.06-.114.118-.284.174-.458.116.172.23.285.29.4.13-.164.244-.337.345-.518.287.23.457.514.63.514 1.513-.035 3.025-.073 4.536-.126zm1.35-36.15c.6 11.886 1.276 28.354 1.806 35.99.783-.09 1.586-.23 2.354-.23 2.983-.054 6.023-.054 9.007-.054 3.1 0 6.258 0 9.355-.06.517 0 1.263.462 1.607-.46.057.232.057.405.116.522.055-.117.173-.233.23-.35l-.005.014c.345-.52.288-.863-.344-1.208-.117-.116-.226-.288-.4-.517.113.057.172.057.226.057-.344-.284-.86-.633-1.208-1.09-.628-.806-1.26-1.61-1.832-2.414-1.15-1.554-2.296-3.16-3.445-4.772-.974-1.322-2.008-2.644-2.98-3.966-1.147-1.496-2.3-2.993-3.39-4.542-1.216-1.743-2.4-3.507-3.554-5.293-1.55-2.356-3.042-4.712-4.59-7.068-.968-1.496-1.934-3.058-2.95-4.56zm-7.032 6.843v-.403c-.168.057-.34.057-.57.116.287.11.575.17.575.284l-.006.004zm34.432 14.15v-.405c0 .114.057.284 0 .402v.002zm1.952-25.352c-.06 0-.4-.35-.458-.406-.06.175 0 .345-.115.576-.06-.17-.458-.113-.458-.283-.06.803.342 1.608.283 2.413.175-.116.862-.175 1.034-.345.06.057.174.113.23.113-1.148.864-.86 1.724-.344 2.706.114.226.458.687.114 1.147-.114.115.06.457.115.747h.167v.11l-.516.174c-.113-.173-.8-.514-.8-.806v2.936c.574.175.574.978.803 1.38.1-.138.18-.293.233-.457l.06.053c-.06.344-.117.69-.232 1.036-.114.515-.23.975-.284 1.492 0 .057.11.175.11.23-.63 1.44-.284 3.045-.513 4.537-.175 1.092 0 2.248-.116 3.396-.117.977-.348 2.01-.574 2.99-.06.173-.175.228-.458.343.113-.69.056-1.15-.06-1.783-.06 0-.806-.402-.865-.402 0 .808.458 1.898.632 2.815-.174-.057-.86-.458-.916-.458-.118.69-.118 1.61-.175 2.356-.06.576-.574 1.09-.632 1.723 0 .35.4.577.344 1.153h.458c0-1.147.52-2.18.52-3.39h.17c.058.116.23.23.174.288-.117.634-.35 1.323-.29 1.956 0 .344.284.69.175 1.09-.118.35-.174.692-.233 1.21-.06-.29-.116-.402-.116-.575-.056 0-.573-.058-.632-.058-.057.345.403.69.344.978-.056.057-.113.057-.23.115l-1.89-2.762c-1.497-2.18-2.99-4.37-4.48-6.61-.388-.548-.734-1.124-1.037-1.723-1.774-3.06-3.748-6-5.908-8.8-1.662-2.124-2.988-4.428-4.536-6.664-1.43-2.127-2.866-4.198-4.3-6.327-.518-.688-1.148-1.32-1.608-2.07-1.49-2.355-2.813-4.77-4.3-7.127-1.265-1.956-2.64-3.855-3.96-5.75-.46-.633-.917-1.325-1.38-2.014-.07-.12-.11-.258-.112-.398-.116-1.265-.232-2.53-.288-3.737 0-1.15.115-2.3.115-3.508v-1.035c0-.287.055-.517.055-.807.054-.054.113-.17.17-.227-1.664 0-3.387-.06-5.05 0-1.09.055-1.665-.405-2.41-1.21-2.18-2.472-3.79-5.29-5.68-7.933-1.786-2.516-3.604-5.008-5.453-7.477-1.494-2.01-2.988-3.966-4.477-5.977-1.667-2.3-3.272-4.598-4.994-6.898-2.068-2.757-4.192-5.52-6.314-8.277-.98-1.265-2.07-2.472-3.162-3.796.748.117 1.44.23 2.126.29l2.757.174c2.066.168 4.13.283 6.194.567 1.723.234 3.446.58 5.225.865 3.79.633 7.52 1.67 11.134 2.875 2.124.69 4.187 1.61 6.26 2.472 4.644 1.898 9.065 4.198 13.426 6.61 1.374.75 2.18 1.955 3.21 3.048 1.494 1.554 2.988 3.105 4.42 4.713 1.662 1.898 3.21 3.853 4.82 5.807 1.433 1.724 2.922 3.447 4.362 5.175.458.517.806 1.15 1.203 1.724.916 1.38 1.952 2.704 2.755 4.196.57 1.095.916 2.36 1.317 3.567.57 1.783 1.147 3.506 1.723 5.29.4 1.32.74 2.704 1.03 4.078.23.924.173 1.9.457 2.816.35 1.213 0 2.53.35 3.74.053.117.108.29.17.405.228.228.4.46.056.804-.055.056-.055.283 0 .458.117-.114.174-.23.29-.402 0 .116.054.175.054.23 0 .226-.06.458 0 .687 0 .113.114.283.17.4.116-.117.23-.173.458-.348.517 1.956.576 3.91.576 5.922 0 1.898.343 3.796-.457 5.635.17-.632-.23-1.21-.06-1.784l.025.015zm-36.67 22.358c.055 0 .114.06.114.06l-.06-.067c0-.055 0-.055-.056 0l.003.006zm9.066 56.8c-.632.46-1.265.863-2.067 1.036-.06-.057-.06-.116-.118-.175.63-.4 1.318-.803 1.95-1.206.06.11.175.227.232.343l.002.004zM41.11 92.967c.633-.802 1.266-1.607 1.95-2.412.055.057.513.175.572.23-.633.806-1.494 1.897-2.124 2.76-.118-.117-.29-.518-.404-.577l.007-.002zm-16.3 28.175c-.458-.977-.916-2.013-1.374-2.988.16-.1.333-.18.514-.23.633.915.916 2.006 1.38 2.988 0 0-.46.23-.518.23h-.002zm14.637-27.597c-.345.52-.69 1.095-1.034 1.614-.056-.06-.69.227-.746.17.345-.517 1.204-1.44 1.55-1.954.058.056.114.115.23.174v-.004zm103.14 79.684l-.014.01-.004-.01h.018zM39.646 96.464l.177-.09-.146-.073-.03.164zm-18.045 24.1c.287 0 .575.055.916.055 0-.23.29-.175.29-.402h.174c0 .288.057.517.057.807h-1.204c-.06-.06-.288-.406-.23-.462H21.6zm-.458-2.645c-.175-.176-.458-.346-.458-.518-.06-.227.113-.513.283-.8.118.4.175.745.288 1.15-.06.053-.116.112-.116.17l.002-.003zm1.435-3.682c.23.58.458 1.213.69 1.79-.164.052-.32.13-.46.228-.228-.576-.516-1.21-.745-1.782.155-.11.33-.19.517-.232l-.003-.004zm127.75 54.965c.282-.114.627-.175 1.09-.284-.52.398-.92.686-1.266 1.03-.058-.056-.114-.115-.173-.115.115-.23.23-.4.35-.632zM79.786 47.726c.342-.23.632-.404.975-.633l.113.114c-.35.458-.632.916-1.036 1.494-.058-.398-.058-.632-.117-.915-.056 0 0 0 .06-.057l.004-.002zM96.6 76.814c.517-.23 1.034-.458 1.664-.748-.056.344-.056.576-.056.807-.186-.067-.38-.107-.576-.118-.345.06-.977.52-1.265.576-.054 0 .23-.457.23-.516h.003zm43.05 48.75c.112.575 1.202.863.112 1.437.175.12.342.175.515.293-.014.087-.053.167-.114.23-.115.056-.344.172-.458.11-.06 0-.174-.226-.174-.342 0-.516.06-1.033.116-1.723l.003-.002z" fill="#DD3735" fill-rule="evenodd"/>
</svg>
