<svg viewBox="0 0 200 200" xmlns="http://www.w3.org/2000/svg">
  <g fill="none" fill-rule="evenodd">
    <path d="M54.276 73.5c.02 17.56.046 35.122.022 52.682 15.19 8.774 30.365 17.567 45.538 26.37l45.517-26.32c-.02-17.56-.046-35.122-.022-52.683-15.188-8.773-30.364-17.568-45.537-26.37L54.276 73.5" fill="#B7A634"/>
    <path d="M100 60.517l-.026-.014-.177-.1C88.424 66.99 77.04 73.556 65.65 80.113l-.007 39.486c11.403 6.565 22.804 13.138 34.192 19.73 2.9-1.71 31.23-18.036 34.147-19.712.004-13.16.01-26.324.012-39.485-11.342-6.518-22.676-13.058-33.993-19.616" fill="#F9DF34"/>
    <path d="M79.355 88.175l.953 1.65-1.806 1.043 2.567 4.445c.24.418.47.655.688.714.22.06.538-.033.954-.274.14-.08.268-.162.39-.247.12-.085.23-.173.334-.262l1.103 1.91c-.19.154-.408.31-.656.47-.248.158-.494.308-.737.448-.38.22-.758.403-1.13.548-.372.146-.73.218-1.078.218-.35 0-.678-.096-.988-.287-.312-.19-.598-.51-.858-.962l-3.058-5.297-1.493.864-.953-1.65 1.494-.862-1.554-2.692 2.466-1.424 1.554 2.692 1.805-1.043M80.854 82.75l2.696 4.67.052-.03c.012-.7.193-1.31.542-1.828.35-.52.755-.912 1.218-1.18.66-.38 1.252-.602 1.78-.667.525-.064 1.002-.007 1.43.17.426.18.82.467 1.183.868.362.4.703.88 1.024 1.434l3.187 5.522-2.465 1.423-2.927-5.07c-.428-.74-.863-1.227-1.306-1.458-.443-.232-.958-.177-1.55.164-.67.387-1.04.867-1.112 1.44-.07.574.16 1.317.687 2.232l2.717 4.707-2.467 1.422-7.158-12.4 2.467-1.422M96.37 87.45c.578.146 1.215.018 1.91-.384.497-.286.854-.658 1.068-1.115.216-.455.284-.845.205-1.17l2.17-1.253c.274 1.277.187 2.355-.264 3.232-.45.877-1.186 1.61-2.205 2.198-.706.407-1.408.662-2.105.764-.698.1-1.364.058-1.998-.132-.634-.19-1.225-.512-1.774-.967-.548-.455-1.023-1.03-1.424-1.725-.388-.67-.638-1.36-.753-2.065-.113-.706-.09-1.387.072-2.044.16-.657.452-1.27.874-1.837.42-.566.972-1.048 1.655-1.442.765-.44 1.516-.677 2.254-.71.738-.03 1.433.096 2.084.384.653.286 1.244.702 1.773 1.245.53.542.973 1.175 1.328 1.895l-6.477 3.74c.497.78 1.033 1.24 1.61 1.386zm.06-6.33c-.48-.155-1.023-.058-1.625.29-.394.226-.683.482-.866.765-.184.284-.298.57-.34.856-.043.288-.033.56.03.817.064.256.14.475.228.655l4.01-2.315c-.475-.56-.955-.915-1.437-1.068zM101.235 75.543l.72 1.25.054-.03c.01-.7.197-1.314.558-1.84.36-.523.8-.936 1.322-1.237.66-.38 1.254-.604 1.78-.67.525-.063 1.002-.006 1.43.172.426.178.82.467 1.183.868.362.4.704.878 1.025 1.434l3.188 5.522-2.466 1.423-2.927-5.07c-.428-.74-.863-1.227-1.305-1.458-.442-.23-.958-.176-1.55.165-.67.388-1.04.868-1.11 1.44-.072.574.157 1.32.685 2.233l2.717 4.706-2.466 1.425-5.183-8.978 2.345-1.354" fill="#524739"/>
    <path d="M134.948 78.076C123.58 71.534 112.253 64.99 101.28 58.62l-.06-.033-.176-.1c-.788-.44-1.75-.434-2.53.02-11.264 6.533-22.54 13.047-33.82 19.55-.792.456-1.28 1.3-1.28 2.213l-.005 39.172c0 .913.487 1.757 1.276 2.212 11.295 6.514 22.587 13.034 33.867 19.572.396.23.838.345 1.28.345.45 0 .9-.117 1.3-.354 1.68-.992 3.37-1.968 5.06-2.943 1.197-.69 2.393-1.38 3.586-2.075 1.214-.71 15.916-9.186 16.5-9.527 2.883-1.666 5.766-3.333 8.653-4.994.792-.456 1.28-1.3 1.28-2.213l.014-39.173c0-.915-.488-1.76-1.28-2.214zm-3.84 39.91c-1.725.992-30.013 17.333-31.283 18.074-10.43-6.043-20.867-12.07-31.31-18.093l.007-36.22c10.432-6.017 20.86-12.04 31.276-18.08 10.228 5.932 20.753 12.013 31.322 18.1l-.013 36.218z" fill="#524839"/>
    <path d="M28.82 58.822c.034 27.337.073 54.674.035 82.012 23.678 13.658 47.34 27.347 70.994 41.047l70.96-40.97c-.035-27.338-.074-54.674-.036-82.012-23.68-13.656-47.34-27.348-70.994-41.047C76.127 31.51 52.475 45.166 28.82 58.823zm71.24-11.382c15.08 8.737 30.18 17.45 45.293 26.135l-.017 52.608c-3.886 2.23-7.766 4.473-11.645 6.714-7.78-13.457-15.548-26.922-23.316-40.386l-22.205 12.8c7.767 13.465 15.537 26.93 23.315 40.388-3.876 2.258-7.78 4.47-11.645 6.747-15.173-8.783-30.36-17.54-45.555-26.288l.01-52.608c15.174-8.738 30.342-17.487 45.494-26.263l.236.133.035.02z" fill="#F9DF34"/>
    <path d="M99.85 184.516c-.458 0-.914-.12-1.322-.355-28.645-16.59-50.538-29.25-70.99-41.044-.816-.472-1.32-1.343-1.318-2.287.035-25.348.004-51.123-.026-76.05l-.008-5.955c0-.942.5-1.813 1.318-2.284l70.96-40.972c.816-.47 1.82-.47 2.637.002 21.093 12.216 46.02 26.645 70.99 41.047.818.47 1.32 1.342 1.32 2.285-.036 25.208-.005 50.84.025 75.626l.008 6.38c0 .942-.502 1.813-1.318 2.284l-70.96 40.97c-.407.236-.86.354-1.316.354zm-68.36-45.203c19.764 11.4 40.968 23.66 68.36 39.525l68.32-39.447-.004-4.855c-.03-24.29-.06-49.393-.028-74.116-24.013-13.85-47.925-27.692-68.36-39.527l-68.32 39.45.005 4.432c.03 24.43.06 49.675.028 74.538zm68.35 15.766c-.455 0-.91-.12-1.32-.356-15.17-8.78-30.358-17.536-45.55-26.282-.816-.47-1.32-1.342-1.32-2.285l.01-52.61c0-.94.503-1.81 1.32-2.28 17.774-10.235 32.228-18.58 45.488-26.26.81-.467 1.802-.472 2.615-.015l.236.134c.01.004.053.03.06.035 14.7 8.518 29.937 17.31 45.286 26.13.817.47 1.32 1.342 1.32 2.286l-.015 52.608c0 .943-.505 1.814-1.322 2.283-3.884 2.23-7.762 4.47-11.64 6.71-1.26.73-2.87.298-3.6-.96-7.338-12.7-14.67-25.403-22-38.11l-17.64 10.17c7.33 12.703 14.66 25.405 21.998 38.102.727 1.255.3 2.862-.954 3.593-1.61.938-3.225 1.87-4.84 2.8-2.27 1.305-4.54 2.612-6.794 3.94-.412.244-.875.366-1.338.366zm-42.92-30.445c14.312 8.24 28.617 16.488 42.91 24.76 1.833-1.07 3.673-2.13 5.512-3.19.85-.488 1.697-.977 2.546-1.467-7.34-12.7-14.67-25.405-22-38.11-.35-.606-.444-1.325-.263-2 .18-.675.623-1.25 1.23-1.6l22.203-12.8c1.26-.726 2.87-.293 3.597.966 7.33 12.704 14.66 25.406 21.998 38.104 2.682-1.55 5.364-3.097 8.05-4.64l.014-49.56c-14.54-8.36-28.968-16.684-42.924-24.77-12.574 7.283-26.27 15.188-42.865 24.744l-.008 49.563z" fill="#524839"/>
  </g>
</svg>
