<svg viewBox="0 0 200 200" xmlns="http://www.w3.org/2000/svg">
  <g transform="translate(16 25)" fill="none" fill-rule="evenodd">
    <circle fill="#61DAFB" cx="84.865" cy="75" r="16"/>
    <path d="M131.132 101.713C153.868 95.986 168.865 86.16 168.865 75s-14.997-20.986-37.733-26.713c6.41-22.552 5.398-40.453-4.267-46.033-9.665-5.58-25.673 2.495-42 19.32-16.327-16.825-32.335-24.9-42-19.32-9.665 5.58-10.676 23.48-4.267 46.033C15.862 54.014.865 63.84.865 75s14.997 20.986 37.733 26.713c-6.41 22.552-5.398 40.453 4.267 46.033 9.665 5.58 25.673-2.495 42-19.32 16.327 16.825 32.335 24.9 42 19.32 9.665-5.58 10.676-23.48 4.267-46.033zm-64.315 4.547c-10.228-.854-19.76-2.417-28.22-4.547C40.983 93.32 44.395 84.285 48.77 75c2.486 5.277 5.284 10.635 8.382 16s6.34 10.467 9.665 15.26zm36.096-62.52c10.228.854 19.76 2.417 28.22 4.547-2.385 8.392-5.797 17.428-10.173 26.713-2.486-5.277-5.284-10.635-8.382-16s-6.34-10.467-9.665-15.26zm28.22 57.973c-8.46 2.13-17.992 3.693-28.22 4.547-5.853 8.43-11.973 15.904-18.048 22.165-6.075-6.26-12.195-13.734-18.048-22.165 5.814.484 11.853.74 18.048.74 6.195 0 12.234-.256 18.048-.74 3.326-4.793 6.567-9.895 9.665-15.26 3.098-5.365 5.896-10.723 8.382-16 4.376 9.285 7.788 18.32 10.172 26.713zM84.864 21.575C78.79 27.835 72.67 35.31 66.817 43.74c-10.228.854-19.76 2.417-28.22 4.547C40.983 56.68 44.395 65.715 48.77 75c2.486-5.277 5.284-10.635 8.382-16s6.34-10.467 9.665-15.26C72.63 43.256 78.67 43 84.865 43c6.195 0 12.234.256 18.048.74-5.853-8.43-11.973-15.904-18.048-22.165z" stroke="#61DAFB" stroke-width="8"/>
  </g>
</svg>
