<svg viewBox="0 0 200 200" xmlns="http://www.w3.org/2000/svg">
  <path d="M132.792 131.71c6.274-.65 11.033-6.058 10.817-12.548-.218-6.49-5.626-11.682-12.116-11.682h-.433c-6.705.216-11.897 5.84-11.68 12.547.216 3.245 1.514 6.057 3.46 8.004-7.355 14.496-18.604 25.096-35.478 33.966-11.465 6.057-23.364 8.22-35.262 6.706-9.735-1.298-17.306-5.625-22.066-12.764-6.922-10.6-7.57-22.066-1.73-33.53 4.11-8.222 10.6-14.28 14.71-17.308-.865-2.812-2.163-7.57-2.812-11.033-31.368 22.715-28.123 53.434-18.605 67.93 7.14 10.815 21.634 17.52 37.642 17.52 4.326 0 8.652-.43 12.98-1.513 27.69-5.408 48.674-21.85 60.572-46.295zm38.074-26.826c-16.44-19.254-40.67-29.854-68.36-29.854h-3.462c-1.947-3.894-6.057-6.49-10.6-6.49h-.433c-6.705.216-11.897 5.84-11.68 12.547.216 6.49 5.624 11.682 12.114 11.682h.433c4.76-.217 8.87-3.246 10.6-7.356h3.894c16.442 0 32.018 4.76 46.08 14.062 10.816 7.14 18.604 16.44 22.93 27.69 3.678 9.086 3.462 17.956-.432 25.527-6.057 11.466-16.225 17.74-29.637 17.74-8.653 0-16.873-2.596-21.2-4.543-2.38 2.163-6.706 5.624-9.735 7.787 9.302 4.327 18.82 6.707 27.907 6.707 20.768 0 36.127-11.466 41.968-22.93 6.274-12.55 5.84-34.182-10.384-52.57zM60.97 135.387c.216 6.49 5.624 11.682 12.114 11.682h.433c6.706-.218 11.898-5.842 11.682-12.55-.217-6.49-5.626-11.68-12.116-11.68h-.432c-.433 0-1.082 0-1.515.216-8.87-14.71-12.547-30.72-11.25-48.026.866-12.98 5.193-24.23 12.765-33.53 6.273-8.006 18.388-11.9 26.61-12.116 22.93-.433 32.665 28.123 33.314 39.59 2.812.648 7.57 2.162 10.816 3.244C140.796 37.172 119.162 19 98.395 19 78.925 19 60.97 33.062 53.83 53.83c-9.95 27.69-3.46 54.3 8.654 75.283-1.082 1.514-1.73 3.894-1.514 6.274z" fill="#764ABC" fill-rule="evenodd"/>
</svg>
