<svg viewBox="0 0 201 200" xmlns="http://www.w3.org/2000/svg">
  <path d="M16 100v85h170V15H16v85zm79.447-59.075L103.563 49l-6.407 6.375-6.322 6.375h-9.91v32.3h6.236c13.755 0 22.04-2.89 25.03-8.67.77-1.445 1.54-4.76 1.795-7.395.598-7.055-2.136-11.815-7.86-14.11-2.306-.85-4.442-1.785-4.612-1.87-.257-.17 2.392-3.145 5.894-6.63L113.814 49l-7.518-7.48c-4.1-4.08-7.432-7.65-7.432-7.905 0-.255 2.05-.34 4.528-.17 30.497 2.38 45.874 17 45.874 43.52 0 15.385-6.32 28.22-17.427 35.53l-3.76 2.55 4.7 8.33 4.697 8.33-2.05 6.8c-1.025 3.655-2.392 6.885-2.904 7.14-.855.34-30.84-8.5-31.523-9.265-.085-.17-1.794-3.4-3.76-7.31l-3.5-6.97H80.924v8.075l-8.372-8.33-8.287-8.245-8.97 8.925c-4.954 4.93-9.226 8.925-9.567 8.925-.428 0-.685-22.185-.685-49.3v-49.3h42.288l8.115 8.075zm-22.894 91.12l8.372 8.33V166.3h-35.88v-23.375l9.056-9.605c4.955-5.185 9.312-9.52 9.568-9.52.342 0 4.357 3.74 8.885 8.245zm76.372 19.975c3.16 5.78 6.32 11.305 7.005 12.325l1.196 1.955h-40.75l-4.955-9.86c-2.734-5.44-4.784-10.03-4.698-10.2.17-.17 7.005 1.785 15.206 4.335 8.2 2.55 15.206 4.675 15.462 4.675.256 0 1.367-3.06 2.477-6.8 1.11-3.74 2.22-6.8 2.562-6.8.342 0 3.246 4.675 6.493 10.37z" fill="#F67135" fill-rule="evenodd"/>
</svg>
