<svg viewBox="0 0 200 200" xmlns="http://www.w3.org/2000/svg">
  <path d="M161.344 109.173c-5.944.033-11.09 1.46-15.407 3.586-1.594-3.155-3.188-5.912-3.454-7.97-.298-2.39-.664-3.853-.298-6.708.365-2.856 2.025-6.907 2.025-7.24-.034-.298-.366-1.76-3.786-1.792-3.42-.033-6.375.664-6.707 1.56-.332.897-.996 2.956-1.428 5.08-.6 3.122-6.842 14.18-10.395 19.99-1.162-2.257-2.158-4.25-2.358-5.844-.298-2.39-.664-3.852-.298-6.707.364-2.857 2.024-6.908 2.024-7.24-.033-.3-.365-1.76-3.785-1.793-3.42-.033-6.376.664-6.708 1.56-.332.897-.698 3.022-1.428 5.08-.698 2.06-9 20.523-11.158 25.337-1.096 2.458-2.058 4.417-2.756 5.745-.697 1.327-.033.1-.1.232l-.93 1.76v.033c-.464.83-.962 1.627-1.195 1.627-.166 0-.498-2.225.066-5.28 1.23-6.41 4.22-16.403 4.186-16.77 0-.165.564-1.925-1.927-2.82-2.425-.898-3.288.596-3.487.596-.2 0-.365.532-.365.532s2.69-11.257-5.147-11.257c-4.914 0-11.688 5.346-15.042 10.228-2.125 1.163-6.64 3.62-11.423 6.243-1.826.997-3.72 2.06-5.512 3.022l-.365-.4c-9.497-10.127-27.063-17.3-26.332-30.914.266-4.946 1.992-17.996 33.738-33.802 26-12.95 46.82-9.398 50.44-1.495 5.146 11.29-11.125 32.277-38.154 35.298-10.294 1.163-15.707-2.82-17.068-4.316-1.428-1.56-1.627-1.627-2.158-1.328-.864.465-.333 1.86 0 2.69.796 2.092 4.117 5.81 9.762 7.67 4.947 1.628 17.035 2.524 31.645-3.12 16.372-6.343 29.156-23.942 25.404-38.653-3.82-14.976-28.657-19.89-52.133-11.555-13.98 4.98-29.12 12.75-40.013 22.945-12.95 12.087-15.01 22.647-14.146 27.03 3.023 15.64 24.574 25.834 33.207 33.372-.43.232-.83.464-1.195.664-4.317 2.124-20.754 10.724-24.87 19.823-4.65 10.293.73 17.7 4.315 18.695 11.09 3.088 22.448-2.457 28.59-11.59 6.11-9.13 5.38-20.985 2.558-26.398l-.1-.2 3.387-1.99c2.192-1.296 4.35-2.492 6.242-3.522-1.062 2.89-1.826 6.31-2.224 11.29-.465 5.845 1.926 13.416 5.08 16.404 1.395 1.295 3.055 1.328 4.085 1.328 3.652 0 5.313-3.022 7.14-6.64 2.257-4.417 4.25-9.53 4.25-9.53s-2.49 13.846 4.316 13.846c2.492 0 4.982-3.22 6.11-4.88v.032s.068-.1.2-.332c.266-.398.4-.63.4-.63v-.067c.995-1.728 3.22-5.68 6.54-12.22 4.284-8.435 8.402-18.995 8.402-18.995s.398 2.59 1.627 6.84c.73 2.525 2.323 5.28 3.55 7.97-.995 1.395-1.593 2.192-1.593 2.192l.034.033c-.796 1.063-1.693 2.192-2.622 3.32-3.387 4.052-7.438 8.668-7.97 9.996-.63 1.56-.498 2.723.73 3.653.897.663 2.49.796 4.185.663 3.055-.2 5.18-.963 6.242-1.428 1.66-.598 3.554-1.494 5.38-2.823 3.32-2.457 5.346-5.943 5.147-10.592-.1-2.557-.93-5.08-1.96-7.47.3-.433.6-.865.897-1.33 5.246-7.67 9.297-16.105 9.297-16.105s.398 2.59 1.627 6.84c.63 2.16 1.893 4.517 3.022 6.842-4.915 4.018-8.003 8.666-9.066 11.72-1.96 5.646-.43 8.203 2.458 8.8 1.294.267 3.154-.33 4.55-.93 1.725-.563 3.817-1.527 5.744-2.954 3.32-2.457 6.508-5.878 6.342-10.493-.1-2.125-.664-4.217-1.428-6.21 4.184-1.727 9.596-2.723 16.47-1.893 14.777 1.727 17.7 10.958 17.135 14.81-.564 3.853-3.652 5.977-4.68 6.642-1.03.63-1.363.862-1.263 1.327.133.697.597.664 1.494.53 1.23-.198 7.77-3.153 8.037-10.26.398-9.132-8.268-19.094-23.643-18.994zM47.38 147.593c-4.88 5.345-11.754 7.37-14.676 5.644-3.155-1.826-1.926-9.696 4.084-15.374 3.653-3.454 8.4-6.642 11.523-8.6.698-.432 1.76-1.063 3.023-1.827.2-.133.332-.2.332-.2.232-.132.498-.298.763-.464 2.225 8.102.1 15.208-5.047 20.82zm35.698-24.275c-1.694 4.15-5.28 14.81-7.44 14.213-1.858-.498-2.987-8.567-.364-16.536 1.328-4.018 4.15-8.8 5.81-10.66 2.69-2.988 5.613-3.984 6.344-2.756.863 1.595-3.288 13.15-4.35 15.74zm29.453 14.08c-.73.365-1.393.63-1.692.432-.233-.133.298-.63.298-.63s3.686-3.953 5.147-5.78c.83-1.06 1.827-2.29 2.89-3.685v.4c0 4.78-4.583 7.968-6.642 9.263zm22.714-5.18c-.53-.4-.465-1.628 1.328-5.48.698-1.527 2.29-4.084 5.047-6.508.33.996.53 1.96.498 2.856-.033 5.977-4.284 8.202-6.874 9.132z" fill="#CF649A" fill-rule="evenodd"/>
</svg>
