<svg viewBox="0 0 200 200" xmlns="http://www.w3.org/2000/svg">
  <path d="M78.473 17.684c21.996-5.647 46.305-2.357 65.703 9.628 24.43 14.625 40.38 42.29 40.786 70.768.893 28.762-14.082 57.28-38.148 72.92-26.784 18.04-63.837 18.73-91.19 1.586-27.88-16.657-44.154-50.253-39.974-82.51 3.37-34.083 29.667-64.146 62.823-72.392zm-3.37 13.934c41.558-16.656 92.53 14.097 96.832 58.703 6.696 40.138-26.582 80.925-67.205 82.103-38.635 3.86-75.97-28.925-77.067-67.762C24.783 73.22 45.48 42.02 75.103 31.62zm4.18 64.065c18.63-15.234 36.85-30.997 55.884-45.784-9.983 15.355-20.25 30.508-30.234 45.864-8.563.04-17.126.04-25.65-.08zm15.748 8.49c8.604 0 17.167 0 25.73.122-18.75 15.153-36.89 31.038-55.964 45.784 9.984-15.357 20.25-30.55 30.235-45.906z" fill="#010101" fill-rule="evenodd"/>
</svg>
