<svg viewBox="0 0 200 200" xmlns="http://www.w3.org/2000/svg">
  <path d="M104.478 176.444v-14.76l36.867-18.676c.886-.448 1.44-1.354 1.44-2.346v-8.45c3.444-1.192 5.75-4.626 5.36-8.406-.455-4.412-4.4-7.62-8.812-7.165-4.412.456-7.62 4.4-7.164 8.813.33 3.206 2.502 5.768 5.36 6.76v6.835l-33.052 16.74v-13.732l14.57-6.74c.927-.426 1.523-1.36 1.525-2.382l.028-22.873 26.964-15.146c.83-.464 1.34-1.342 1.34-2.292v-6.38c3.446-1.19 5.75-4.624 5.36-8.406-.456-4.415-4.402-7.623-8.812-7.165-4.413.456-7.62 4.4-7.165 8.814.332 3.204 2.505 5.767 5.36 6.758v4.844l-26.96 15.144c-.827.467-1.34 1.34-1.34 2.29l-.03 22.73-10.84 5.01V86.835l22.684-11.093c.903-.435 1.475-1.354 1.475-2.356v-8.452c3.444-1.192 5.75-4.624 5.36-8.408-.455-4.41-4.4-7.618-8.812-7.16-4.413.452-7.62 4.397-7.164 8.812.327 3.205 2.502 5.762 5.358 6.754v6.812l-18.9 9.237V52.44c3.444-1.19 5.752-4.626 5.36-8.408-.453-4.41-4.4-7.62-8.812-7.165-4.41.458-7.618 4.4-7.163 8.813.33 3.203 2.504 5.765 5.358 6.756V98.98l-13.358-7.02V70.82c0-.817-.38-1.59-1.03-2.085l-9.138-6.998c.497-1.196.712-2.527.57-3.906-.455-4.41-4.402-7.614-8.813-7.16-4.412.455-7.62 4.398-7.164 8.81.455 4.414 4.4 7.622 8.814 7.167 1.122-.118 2.16-.46 3.087-.978l8.418 6.448v21.43c0 .978.542 1.875 1.406 2.33l17.21 9.04v17.094l-28.71-13.28.392-10.4c.04-1.024-.518-1.973-1.427-2.44l-13.162-6.75c.198-.845.27-1.735.175-2.647-.456-4.41-4.4-7.62-8.812-7.163-4.413.455-7.62 4.4-7.165 8.812.457 4.41 4.4 7.616 8.814 7.162 1.582-.16 3.005-.78 4.165-1.704l12.094 6.204-.396 10.48c-.04 1.06.563 2.042 1.525 2.485l32.508 15.036v12.204c-.03.228-.027.46 0 .693v35.86c-2.766-.028-5.495-.206-8.185-.52v-30.825c0-1.027-.6-1.96-1.532-2.388l-20.396-9.386c.05-.524.05-1.06-.006-1.606-.453-4.412-4.398-7.622-8.81-7.163-4.413.455-7.62 4.398-7.165 8.81.455 4.41 4.4 7.62 8.814 7.165 1.968-.205 3.692-1.104 4.964-2.432l18.872 8.685v28.336C50.32 168.55 23.412 137.367 23.412 100c0-42.23 34.358-76.587 76.59-76.587 42.23 0 76.586 34.358 76.586 76.588 0 40.725-31.956 74.117-72.11 76.444zM100 15c-46.87 0-85 38.133-85 85 0 46.868 38.13 84.998 85 85 46.87 0 85-38.132 85-85 0-46.867-38.13-85-85-85z" fill="#264970" fill-rule="evenodd"/>
</svg>
