<svg viewBox="0 0 200 200" xmlns="http://www.w3.org/2000/svg">
  <path d="M184.09 48.182c-6.18 2.727-12.908 4.545-20 5.454 7.274-4.363 12.728-11.09 15.455-19.09-6.818 3.91-14.272 6.818-22.18 8.363C151 36.18 142.09 32 132.09 32 113 32 97.365 47.455 97.365 66.545c0 2.546.363 5.182.91 7.728-28.73-1.364-54.365-15.182-71.456-35.91-3 5-4.727 10.91-4.727 17.273 0 11.82 6.092 22.455 15.455 28.637-5.727-.182-11.09-1.818-15.727-4.273v.364c0 16.727 11.818 30.636 27.818 33.818-2.727.727-5.91 1.182-9.09 1.182-2.182 0-4.364-.273-6.546-.637 4.545 13.637 17.273 23.637 32.455 23.91-11.82 9.272-26.82 14.727-43.09 14.727-2.73 0-5.456-.182-8.183-.455 15.454 9.726 33.636 15.454 53.182 15.454 63.818 0 98.727-52.455 98.727-97.91V65.91C173.82 61.09 179.82 55 184.365 48.18h-.273z" fill="#2AA9E0" fill-rule="evenodd"/>
</svg>
