<svg viewBox="0 0 200 200" xmlns="http://www.w3.org/2000/svg">
  <g fill="none" fill-rule="evenodd">
    <path d="M33.017 73.64l-3.966-2.336L16 39.87V27.546l.02.005 20.928-12.114L78.844 39.74 78.84 51.7l21.022 54.534 2.983-7.803 7.497-4.375V78.943l10.682-27.83v-11.4s12.967-7.72 18.253-10.77c4.2-2.425 12.85-7.482 12.85-7.482l10.575 5.92.004-11.93 10.135 6.04-10.138 5.89.006.004 10.14-5.89s9.5 5.095 10.71 6.086l.114 12.04-52.44 126.982-31.38 18.16v-.105L68.43 166.675 36.99 90.31l-.008-14.334-3.965-2.336z" fill="#3185B8"/>
    <path d="M78.84 51.7l21.022 54.534-.043 30.04-10.657 6.06-30.302-78.72-1.004-11.858L78.844 39.74 78.84 51.7zM26.327 33.567V45.7l10.675-6.01-10.675-6.123zm73.347 115.005l10.573 6.095-.052 24.073 21.037-12.138 52.44-126.983-.114-12.04-31.43 18.117v24.17l-10.542 6.043v11.902l-7.672-4.493-2.875 6.797v28.096l-14.602 8.586-6.11 15.488-10.654 6.284zm-52.27-54.68v12.21l10.56-6.076-10.56-6.133zm20.955 48.53v12.313L78.97 148.6l-10.613-6.177zm31.492 42.34l.038-12.003 10.305 5.98-10.343 6.02zm31.465-126.968l10.404-5.978V39.773l-10.43 5.924.027 12.097z" fill="#61A5CE"/>
    <path d="M37.177 39.6l-.002 12.12-10.673-6.193 10.604-5.97L16 27.348 36.928 15.23l41.895 24.304-20.988 12.016L37.177 39.6zM57.77 63.627l10.544-6.126v12.12L57.77 63.63zm10.712 42.326l-10.596 6.17-10.502-6.227 10.56-6.075 10.538 6.132zM89.18 166.34l10.69 6.215.038-12.505-10.728 6.29zm10.618-30.27l-10.655 6.06 10.51 6.238 10.654-6.284-10.51-6.014zm31.323-66.432l10.503-6.097 10.484 6.124-10.542 6.042-10.444-6.068zm52.418-42.262l-31.43 18.117L141.7 39.57l-10.43 5.923-10.266-5.985s12.966-7.72 18.253-10.77c4.2-2.424 12.85-7.48 12.85-7.48l10.58 5.922 10.14-5.89s9.502 5.094 10.71 6.086c-2.858 1.67 0 0 0 0zm-62.813 120.91v12.134l10.6-6.132-10.6-6z" fill="#EAE9E6"/>
    <path d="M68.335 69.827l10.457 5.908V63.833l-10.457-6.127v12.12zm94.367-42.446l.004-11.93 10.135 6.04-10.138 5.89zm10.305 18.04V33.663l-10.226 5.9 10.227 5.86zm-30.997 54.67l10.176-5.837v11.708l-10.176-5.87zm-10.6 54.402l-.13-12.034-10.534 6.033 10.665 6.002z" fill="#3185B8"/>
  </g>
</svg>
