<svg viewBox="0 0 200 200" xmlns="http://www.w3.org/2000/svg">
  <path d="M80.372 169.202c-8.864-7.39-12.56-15.508-21.423-49.856-9.232-33.98-14.034-46.906-19.204-48.755-6.648 0-11.08 2.958-16.99 5.91-2.587-3.323-5.173-6.276-7.756-9.6l14.404-13.663c24.743-23.268 37.672-29.18 48.38-21.79 7.02 4.803 9.973 12.555 14.405 37.672 5.54 31.023 9.6 45.056 14.036 49.12 3.69 3.325 4.06 2.958 9.6-2.218 8.865-8.494 19.945-30.653 19.945-40.255 0-9.972-4.43-12.925-15.88-11.08l-7.754 1.108 3.32-8.126c4.433-11.08 15.513-23.64 25.118-28.068 10.713-4.803 25.854-4.803 33.974 0 8.13 4.8 11.083 14.774 10.342 31.39-1.108 16.99-10.342 35.823-31.394 63.897-31.39 42.103-56.504 56.877-72.387 43.21l-.738 1.102z" fill="#1AB7EA" fill-rule="evenodd"/>
</svg>
